<svg width="223" height="131" viewBox="0 0 223 131" fill="none" xmlns="http://www.w3.org/2000/svg">
<path fill-rule="evenodd" clip-rule="evenodd" d="M134 36C134 55.8817 117.882 72 98 72C78.1183 72 62 55.8817 62 36C62 16.1183 78.1183 0 98 0C117.882 0 134 16.1183 134 36Z" fill="#4D4D4D"/>
<path fill-rule="evenodd" clip-rule="evenodd" d="M42 82.6503C41.5227 87.2401 38.6087 90.6704 33.2609 92.9441C32.0009 93.4587 30.7174 93.8448 29.413 94.1021C36.1957 95.3464 39.587 98.5194 39.587 103.624C39.587 107.956 37.2502 111.601 32.5768 114.561C27.9019 117.52 22.1087 119 15.1957 119C11.8043 119 8.97919 118.474 6.71739 117.424C4.45698 116.373 3.32609 114.625 3.32609 112.18C3.32609 109.179 4.93571 103.945 8.15217 96.4825C11.37 89.0196 14.3478 82.6503 17.087 77.3748C17.5227 76.5166 17.8488 75.917 18.0652 75.5734L15.7174 75.8951C12.3261 76.3674 9.20675 77.1599 6.35939 78.2755C3.51064 79.3911 1.58742 80.7846 0.586957 82.4573C0.543941 82.586 0.435708 82.6503 0.26087 82.6503C0.087419 82.6503 0 82.5326 0 82.2972C0 82.0604 0.0222017 81.9002 0.0652174 81.814C1.71785 77.3529 4.74006 74.6303 9.13043 73.6434C11.1314 73.2149 13.8053 73 17.1522 73H30C33.9574 73 36.9463 73.8364 38.9681 75.5091C40.9898 77.1818 42 79.283 42 81.814V82.6503ZM35.2174 80.9777C34.8261 77.2038 31.8052 75.1875 26.1521 74.9302C24.1096 77.546 21.4135 82.4574 18.0652 89.663C14.7183 96.8686 12.5869 102.069 11.6739 105.265C10.7608 108.46 10.3043 110.883 10.3043 112.535C10.3043 114.186 10.783 115.258 11.7391 115.752C12.6966 116.245 14.2826 116.491 16.5 116.491C20.6309 116.491 24.24 115.386 27.3261 113.178C30.4135 110.969 31.9565 107.677 31.9565 103.302C31.9565 101.157 31.4237 99.3134 30.3594 97.7693C29.2937 96.2253 27.7396 95.3246 25.6956 95.0672C23.0009 95.7968 20.3922 96.1609 17.8695 96.1609C17.1313 96.1609 16.7608 96.0104 16.7608 95.7106C16.7608 94.7237 17.4352 94.0488 18.7826 93.6847C20.1313 93.3192 21.4135 93.1372 22.6304 93.1372C23.8487 93.1372 25.0435 93.2234 26.2174 93.3945C29.0439 92.5362 31.2502 90.9922 32.8376 88.7623C34.4237 86.5325 35.2174 84.2164 35.2174 81.8141V80.9777Z" fill="#4D4D4D"/>
<path fill-rule="evenodd" clip-rule="evenodd" d="M59.4384 91.5246L62.7918 91.5893H63.4493C62.7918 92.0644 61.86 93.4665 60.6555 95.7969C59.4495 98.1272 58.5514 99.886 57.9596 101.073C57.3678 102.259 56.7103 103.857 55.987 105.863C55.2637 107.87 54.9014 109.498 54.9014 110.75C54.9014 112.002 55.3407 112.627 56.2164 112.627C56.7872 112.585 57.5861 112.185 58.6171 111.43C59.6468 110.674 60.5016 109.877 61.1815 109.035C61.86 108.194 62.6057 107.114 63.4171 105.799C64.2272 104.482 64.9295 103.339 65.5212 102.368C66.113 101.397 66.453 100.911 66.5397 100.911C66.8475 100.911 67 101.31 67 102.109C67 102.906 66.7818 103.672 66.3425 104.406C64.458 107.471 62.9023 109.822 61.674 111.462C60.447 113.102 58.9669 114.602 57.2363 115.962C55.5043 117.321 53.9375 118 52.5342 118C50.0356 118 48.7863 116.188 48.7863 112.562C48.7863 110.103 49.269 107.319 50.2329 104.212C51.1982 101.105 52.6224 98.1052 54.5068 95.2143C52.9735 96.4222 51.4388 97.0268 49.9041 97.0268C49.4229 97.0268 48.9178 96.9194 48.3918 96.7031C45.2804 102.745 43.603 105.766 43.3623 105.766C43.1203 105.766 43 105.41 43 104.698C43 103.986 43.2742 102.993 43.8226 101.721C44.3696 100.447 44.9614 99.2277 45.598 98.0625C46.2331 96.8973 46.5731 96.25 46.6164 96.1205C45.0384 95.3438 44.2493 94.0918 44.2493 92.3661C44.2493 91.5025 44.5235 90.7257 45.0719 90.0357C45.6189 89.3457 46.3758 89 47.3397 89C48.305 89 49.0941 89.3016 49.7068 89.9062C49.6201 90.1652 49.5753 90.5536 49.5753 91.0714C49.5753 92.2366 50.0034 93.1539 50.8582 93.8232C51.713 94.4912 52.7539 94.8259 53.9808 94.8259C54.332 94.8259 54.595 94.8039 54.7699 94.7612C56.3046 92.603 57.8603 91.5246 59.4384 91.5246Z" fill="#4D4D4D"/>
<path fill-rule="evenodd" clip-rule="evenodd" d="M95.2227 102.475C95.3522 102.214 95.4818 102.084 95.6113 102.084C95.8704 102.084 96 102.41 96 103.06C96 105.142 95.1689 106.867 93.5068 108.233C91.8432 109.599 90.2886 110.282 88.8428 110.282C87.3956 110.282 86.1538 109.869 85.1174 109.046C83.5628 112.126 81.7173 114.554 79.5796 116.333C77.442 118.111 74.6883 119 71.3198 119C69.1615 119 67.4015 118.338 66.0412 117.016C64.6809 115.693 64 113.676 64 110.966C64 108.254 64.6161 105.456 65.8468 102.573C67.0776 99.6882 68.9341 97.2048 71.4177 95.1229C73.8999 93.041 76.6757 92 79.7409 92C84.8804 92 87.4494 94.7325 87.4494 100.198C87.4494 102.28 86.996 104.469 86.0891 106.769C86.7368 107.68 87.6658 108.135 88.8745 108.135C91.121 108.135 93.2366 106.248 95.2227 102.475ZM84.4049 98.4409C84.2326 96.1416 83.1961 94.9927 81.2956 94.9927C78.3158 94.9927 75.4008 97.8982 72.5506 103.711C70.996 106.921 70.2186 109.826 70.2186 112.429C70.2186 115.031 71.3419 116.397 73.587 116.528C75.4449 116.528 77.1608 115.541 78.7375 113.568C80.3129 111.594 81.6415 109.414 82.7207 107.029C81.2528 105.771 80.5182 104.188 80.5182 102.279C80.5182 101.108 80.8311 100.175 81.4582 99.4818C82.0839 98.7883 82.937 98.4409 84.0162 98.4409H84.4049Z" fill="#4D4D4D"/>
<path fill-rule="evenodd" clip-rule="evenodd" d="M124.223 102.475C124.352 102.214 124.482 102.084 124.611 102.084C124.87 102.084 125 102.41 125 103.06C125 105.142 124.169 106.867 122.507 108.233C120.843 109.599 119.289 110.282 117.843 110.282C116.396 110.282 115.154 109.869 114.117 109.046C112.563 112.126 110.717 114.554 108.58 116.333C106.442 118.111 103.688 119 100.32 119C98.1615 119 96.4015 118.338 95.0412 117.016C93.6809 115.693 93 113.676 93 110.966C93 108.254 93.6161 105.456 94.8468 102.573C96.0776 99.6882 97.9341 97.2048 100.418 95.1229C102.9 93.041 105.676 92 108.741 92C113.88 92 116.449 94.7325 116.449 100.198C116.449 102.28 115.996 104.469 115.089 106.769C115.737 107.68 116.666 108.135 117.874 108.135C120.121 108.135 122.237 106.248 124.223 102.475ZM113.405 98.4409C113.233 96.1416 112.196 94.9927 110.296 94.9927C107.316 94.9927 104.401 97.8982 101.551 103.711C99.996 106.921 99.2186 109.826 99.2186 112.429C99.2186 115.031 100.342 116.397 102.587 116.528C104.445 116.528 106.161 115.541 107.738 113.568C109.313 111.594 110.641 109.414 111.721 107.029C110.253 105.771 109.518 104.188 109.518 102.279C109.518 101.108 109.831 100.175 110.458 99.4818C111.084 98.7883 111.937 98.4409 113.016 98.4409H113.405Z" fill="#4D4D4D"/>
<path fill-rule="evenodd" clip-rule="evenodd" d="M151.284 105.494C149.765 108.061 148.222 110.387 146.659 112.475C143.316 116.825 140.015 119 136.759 119C134.979 119 133.643 118.109 132.754 116.325C131.862 114.541 131.418 112.563 131.418 110.387C131.418 106.038 132.069 103.863 133.372 103.863C135.413 103.863 137.302 103.395 139.038 102.461C140.776 101.525 141.644 100.297 141.644 98.7736C141.644 97.5562 140.949 96.9467 139.559 96.9467C136.563 96.9467 133.241 100.209 129.594 106.734C129.247 107.386 128.52 108.898 127.413 111.269C126.305 113.639 125.328 115.434 124.482 116.651C123.635 117.869 122.799 118.478 121.973 118.478H118C119.347 115.956 121.333 110.855 123.96 103.178C126.587 95.5002 128.531 90.3569 129.789 87.747C129.834 87.6595 130.104 87.0945 130.604 86.0506C131.103 85.0067 131.451 84.2889 131.646 83.8975C131.842 83.506 132.221 82.7661 132.785 81.6791C133.351 80.5921 133.807 79.787 134.153 79.265C134.501 78.743 134.979 77.9934 135.586 77.0147C136.195 76.036 136.738 75.285 137.215 74.763C137.693 74.241 138.257 73.6219 138.908 72.9042C139.559 72.1864 140.168 71.6534 140.732 71.3049C142.209 70.4345 143.555 70 144.77 70C147.159 70 148.352 71.087 148.352 73.2623C148.352 76.3067 146.518 80.3422 142.849 85.3662C139.18 90.3902 135.044 95.1421 130.441 99.6218L129.268 102.884C131.352 100.187 133.719 97.8283 136.368 95.8056C139.018 93.783 141.448 92.771 143.663 92.771C144.923 92.771 145.911 93.075 146.627 93.6844C147.344 94.2938 147.701 95.1198 147.701 96.1638C147.701 98.5557 146.648 100.481 144.543 101.939C142.436 103.395 140.015 104.342 137.28 104.776C137.67 109.301 138.301 112.062 139.169 113.063C139.604 113.542 140.146 113.78 140.797 113.78C141.448 113.78 142.339 113.389 143.467 112.606C144.597 111.823 145.52 110.964 146.236 110.029C146.953 109.094 147.712 107.973 148.516 106.668C149.318 105.364 150.014 104.232 150.6 103.276C151.187 102.319 151.523 101.84 151.609 101.84C151.87 101.84 152 102.265 152 103.113C152 103.961 151.762 104.754 151.284 105.494ZM144.9 71.6963C142.47 71.6963 138.214 79.5258 132.134 95.185C137.693 88.6603 141.601 83.1574 143.858 78.6776C145.161 76.3288 145.812 74.3936 145.812 72.8707C145.812 72.0878 145.509 71.6963 144.9 71.6963Z" fill="#4D4D4D"/>
<path fill-rule="evenodd" clip-rule="evenodd" d="M172.531 78.7547C170.998 81.9338 168.656 85.5382 165.504 89.568C162.353 93.5965 159.521 96.8298 157.007 99.2693L155.985 102.275C155.474 103.8 154.985 105.65 154.516 107.828C154.048 110.006 153.835 111.552 153.877 112.467C153.877 113.773 154.346 114.427 155.283 114.427C156.22 114.427 157.338 113.882 158.637 112.793C159.935 111.705 160.884 110.757 161.479 109.952C162.076 109.146 162.768 108.089 163.556 106.783C164.343 105.476 165.025 104.343 165.6 103.385C166.175 102.428 166.505 101.948 166.59 101.948C166.845 101.948 166.973 102.351 166.973 103.157C166.973 103.962 166.761 104.735 166.334 105.476C163.992 109.527 162.098 112.379 160.649 114.035C157.71 117.344 154.687 119 151.577 119C149.193 119 148 117.344 148 114.035C148 110.768 149.427 105.062 152.28 96.9173C152.493 96.2209 152.983 94.7613 153.749 92.54C154.516 90.3187 155.177 88.588 155.73 87.3467C156.284 86.1054 157.029 84.4609 157.966 82.4133C158.903 80.3658 159.807 78.7324 160.681 77.5133C161.554 76.2942 162.523 75.0529 163.587 73.7893C165.675 71.2636 167.931 70 170.359 70C172.786 70 174 71.1329 174 73.3973C174 75.1391 173.511 76.9253 172.531 78.7547ZM171.189 71.6333H170.742C168.145 71.6333 163.992 79.604 158.285 95.5453C164.12 88.5324 168.102 82.7831 170.231 78.2973C171.424 75.5533 172.02 73.7573 172.02 72.908C172.02 72.0587 171.744 71.6333 171.189 71.6333Z" fill="#4D4D4D"/>
<path fill-rule="evenodd" clip-rule="evenodd" d="M190.375 93H193C191.677 93.814 190.333 95.8291 188.966 99.044C187.857 101.745 186.917 104.199 186.149 106.407C185.38 108.613 184.912 109.953 184.74 110.425C184.57 110.897 184.175 112.043 183.556 113.865C182.936 115.686 182.435 117.09 182.051 118.076C180.984 121.076 179.746 123.455 178.337 125.213C176.928 126.971 175.179 128.375 173.087 129.425C170.995 130.475 168.882 131 166.748 131C164.614 131 162.789 130.583 161.274 129.747C159.757 128.911 159 127.592 159 125.792C159 124.849 159.289 124.002 159.865 123.253C160.441 122.502 161.102 122.127 161.85 122.127C162.597 122.127 163.226 122.298 163.738 122.641C164.25 122.985 164.614 123.37 164.827 123.799C164.058 124.056 163.674 124.956 163.674 126.499C163.674 127.313 163.963 127.967 164.539 128.461C165.116 128.953 165.851 129.2 166.748 129.2C170.205 129.2 173.108 126.091 175.456 119.876L179.105 110.103C177.1 112.633 175.36 114.529 173.888 115.794C172.415 117.058 171.262 117.819 170.43 118.076C169.598 118.333 168.615 118.462 167.485 118.462C166.353 118.462 165.447 118.001 164.763 117.08C164.08 116.158 163.749 114.808 163.771 113.029C163.791 111.25 164.304 108.711 165.308 105.409C166.31 102.108 167.421 99.4941 168.637 97.5651C169.854 95.6362 171.113 94.3927 172.415 93.8359C173.716 93.2791 175.499 93 177.761 93C177.932 93 178.017 93.0862 178.017 93.2572C178.017 93.4282 177.889 93.643 177.633 93.9002C175.884 95.4433 174.1 98.2081 172.287 102.195C170.472 106.181 169.565 109.546 169.565 112.289C169.565 113.746 169.971 114.475 170.782 114.475C172.318 114.475 174.283 112.932 176.672 109.846C179.063 106.76 180.898 103.673 182.179 100.587C182.351 100.159 182.596 99.5365 182.916 98.7225C183.236 97.9085 183.46 97.3504 183.588 97.0508C183.716 96.7512 183.919 96.3325 184.197 95.7976C184.473 95.2614 184.72 94.8975 184.932 94.7046C185.146 94.5117 185.434 94.2641 185.797 93.9645C186.16 93.6649 186.533 93.472 186.917 93.3858C188.156 93.1286 189.308 93 190.375 93Z" fill="#4D4D4D"/>
<path fill-rule="evenodd" clip-rule="evenodd" d="M222.351 105.401C220.749 108.117 219.288 110.383 217.968 112.201C216.647 114.018 215.143 115.606 213.455 116.964C211.766 118.321 210.23 119 208.844 119C206.291 119 205.013 117.577 205.013 114.73C205.013 111.883 206.636 106.167 209.883 97.5839C210.057 97.1898 210.143 96.7733 210.143 96.3358C210.143 95.4161 209.569 94.9562 208.423 94.9562C207.275 94.9562 206.15 95.3182 205.046 96.0408C203.942 96.7635 202.935 97.7922 202.026 99.1284C201.117 100.463 200.295 101.822 199.558 103.201C198.823 104.581 198.141 106.167 197.514 107.964C196.885 109.76 196.388 111.259 196.02 112.464C195.651 113.668 195.284 114.961 194.916 116.34C194.547 117.72 194.343 118.474 194.299 118.606H188C188 117.686 189.905 112.408 193.714 102.774C195.273 98.2632 196.052 95.11 196.052 93.3139C196.052 92.8764 195.987 92.5479 195.857 92.3285H198.584C200.1 92.3285 201.074 92.4822 201.506 92.7883C201.94 93.0944 202.156 93.5109 202.156 94.0365C202.156 94.562 201.918 95.6355 201.442 97.2555C205.078 93.7514 208.736 92 212.416 92C214.883 92 216.117 93.1392 216.117 95.4161C216.117 96.161 216.009 96.9046 215.792 97.6496C215.577 98.3946 215.035 99.8832 214.169 102.117C212.265 107.021 211.312 110.306 211.312 111.971C211.312 113.022 211.701 113.547 212.481 113.547C213.044 113.547 213.833 113.153 214.851 112.365C215.868 111.577 216.712 110.756 217.384 109.902C218.054 109.048 218.79 107.975 219.592 106.683C220.392 105.39 221.074 104.262 221.636 103.299C222.2 102.336 222.525 101.854 222.61 101.854C222.87 101.854 223 102.259 223 103.07C223 103.879 222.784 104.656 222.351 105.401Z" fill="#4D4D4D"/>
<path fill-rule="evenodd" clip-rule="evenodd" d="M119 22.6503C118.521 27.2401 115.609 30.6704 110.261 32.9441C109 33.4587 107.717 33.8448 106.413 34.1021C113.196 35.3464 116.587 38.5194 116.587 43.6238C116.587 47.9562 114.25 51.6014 109.575 54.5608C104.902 57.5203 99.1087 59 92.1957 59C88.8043 59 85.9778 58.4744 83.7174 57.4245C81.457 56.3732 80.3261 54.6252 80.3261 52.1804C80.3261 49.1785 81.9343 43.9455 85.1522 36.4825C88.37 29.0196 91.3478 22.6503 94.087 17.3748C94.5213 16.5166 94.8474 15.917 95.0652 15.5734L92.7174 15.8951C89.3261 16.3674 86.2068 17.1599 83.358 18.2755C80.5106 19.3911 78.5874 20.7846 77.587 22.4573C77.5439 22.586 77.4343 22.6503 77.2609 22.6503C77.0874 22.6503 77 22.5326 77 22.2972C77 22.0604 77.0222 21.9002 77.0652 21.814C78.7179 17.3529 81.7387 14.6303 86.1304 13.6434C88.13 13.2149 90.8039 13 94.1522 13H107C110.956 13 113.945 13.8364 115.967 15.5091C117.988 17.1818 119 19.283 119 21.814V22.6503ZM112.217 20.9777C111.826 17.2038 108.804 15.1875 103.152 14.9302C101.108 17.546 98.4135 22.4574 95.0652 29.663C91.7169 36.8686 89.5869 42.0689 88.6739 45.2651C87.7608 48.46 87.3043 50.8829 87.3043 52.5351C87.3043 54.1859 87.783 55.2577 88.7391 55.7518C89.6952 56.2446 91.2826 56.491 93.5 56.491C97.6309 56.491 101.239 55.3864 104.326 53.1784C107.413 50.9691 108.956 47.677 108.956 43.3022C108.956 41.1572 108.424 39.3134 107.358 37.7693C106.294 36.2253 104.74 35.3246 102.696 35.0672C99.9995 35.7968 97.3908 36.1609 94.8695 36.1609C94.1299 36.1609 93.7608 36.0104 93.7608 35.7106C93.7608 34.7237 94.4352 34.0488 95.7826 33.6847C97.1299 33.3192 98.4135 33.1372 99.6304 33.1372C100.847 33.1372 102.043 33.2234 103.217 33.3945C106.044 32.5362 108.25 30.9922 109.836 28.7623C111.424 26.5325 112.217 24.2164 112.217 21.8141V20.9777Z" fill="#FFFFFE"/>
</svg>
