<svg width="1027" height="538" viewBox="0 0 1027 538" fill="none" xmlns="http://www.w3.org/2000/svg">
<g clip-path="url(#clip0)">
<path fill-rule="evenodd" clip-rule="evenodd" d="M650.842 383.578C650.842 383.578 648.375 390.822 648.533 392.946C648.685 395.07 659.245 390.914 659.245 390.914C659.245 390.914 660.03 388.15 660.854 386.408C660.854 386.408 657.029 381.454 650.842 383.578Z" fill="#EEA987"/>
<path fill-rule="evenodd" clip-rule="evenodd" d="M647.372 30.3989C647.372 30.3989 668.288 30.4616 672.727 52.8269C680.84 93.7187 663.552 109.189 665.162 118.632C666.778 128.076 665.59 128.186 665.59 128.186L654.958 113.542C654.958 113.542 624.365 56.0377 647.372 30.3989Z" fill="#262626"/>
<path fill-rule="evenodd" clip-rule="evenodd" d="M659.047 105.227C659.047 105.227 686.579 115.272 690.649 138.958L680.451 142.558C680.451 142.558 643.072 106.502 659.047 105.227Z" fill="#E8734D"/>
<path fill-rule="evenodd" clip-rule="evenodd" d="M647.372 30.3989C647.372 30.3989 619.544 32.0403 620.744 65.8449C621.945 99.6488 605.316 113.864 607.71 125.582C610.098 137.301 623.396 136.573 630.262 128.641C637.122 120.71 631.384 118.499 637.67 113.737C643.956 108.976 645.004 94.7083 640.13 86.5108C635.255 78.3133 628.053 71.5487 647.372 30.3989Z" fill="#262625"/>
<path fill-rule="evenodd" clip-rule="evenodd" d="M529.745 222.873C529.745 222.873 531.447 255.88 517.925 293.636C504.396 331.389 493.847 356.161 490.867 365.951C487.885 375.734 466.64 436.783 466.64 436.783L456.539 431.367C456.539 431.367 467.26 363.596 466.696 349.94C466.123 336.08 483.206 309.051 482.4 302.666C481.593 296.279 480.686 211.621 482.267 200.04C483.85 188.457 529.745 222.873 529.745 222.873Z" fill="#EEA987"/>
<path fill-rule="evenodd" clip-rule="evenodd" d="M636.601 430.991L652.676 410.527L653.929 411.504L637.854 431.974L636.601 430.991Z" fill="#73A5F5"/>
<path fill-rule="evenodd" clip-rule="evenodd" d="M669.073 412.249L638.784 412.282L638.778 408.799L669.073 408.759V412.249Z" fill="#73A5F5"/>
<path fill-rule="evenodd" clip-rule="evenodd" d="M646.581 229.494C646.581 229.494 680.531 251.97 688.07 258.746C695.602 265.521 713.352 282.936 713.662 285.649C713.966 288.362 715.991 292.606 708.174 305.132C700.358 317.654 686.032 341.08 683.934 345.269C679.521 354.089 660.703 386.685 660.703 386.685L638.164 379.871C638.164 379.871 659.324 345.764 670.524 318.017C673.479 310.7 680.082 300.583 677.82 297.418C675.557 294.255 652.728 283.016 602.097 255.186C597.038 252.406 593.14 258.347 593.879 250.957C594.624 243.568 594.129 217.33 609.181 211.732C624.227 206.134 646.581 229.494 646.581 229.494Z" fill="#3C4169"/>
<path fill-rule="evenodd" clip-rule="evenodd" d="M688.954 132.967C688.954 132.967 700.233 173.482 703.406 177.838C706.578 182.193 745.277 176.251 745.277 176.251L743.351 187.212C743.351 187.212 692.799 194.467 690.979 192.047C689.158 189.628 673.268 141.426 673.268 141.426L688.954 132.967Z" fill="#E8734D"/>
<path fill-rule="evenodd" clip-rule="evenodd" d="M563.603 129.39C563.603 129.39 596.517 157.839 601.233 160.475C605.956 163.111 659.522 188.066 659.522 188.066L652.689 196.614C652.689 196.614 594.565 175.893 591.893 174.454C589.215 173.014 551.69 144.19 551.69 144.19L563.603 129.39Z" fill="#D9997A"/>
<path fill-rule="evenodd" clip-rule="evenodd" d="M941.35 295.218L939.899 293.442V293.44L941.35 295.218ZM942.801 296.999L939.899 293.44C940.103 293.27 954.338 281.465 955.149 268.852C955.459 264.085 953.843 259.897 950.215 256.047C946.324 251.915 941.818 249.796 936.819 249.749C925.124 249.639 914.234 260.634 914.122 260.745L914.029 260.837L900.349 273.311L897.256 269.917L910.883 257.485C911.859 256.502 923.356 245.17 936.614 245.154C936.693 245.154 936.766 245.154 936.845 245.154C943.144 245.209 948.771 247.812 953.559 252.897C958.051 257.661 960.129 263.133 959.733 269.164C958.777 283.805 943.454 296.468 942.801 296.999Z" fill="#EDDAD3"/>
<path fill-rule="evenodd" clip-rule="evenodd" d="M810.973 457.129L780.355 457.168L780.348 453.646L810.973 453.606V457.129Z" fill="#73A5F5"/>
<path fill-rule="evenodd" clip-rule="evenodd" d="M803.335 423.267L804.186 432.463L781.469 434.171L779.946 423.293L803.335 423.267Z" fill="#333859"/>
<path fill-rule="evenodd" clip-rule="evenodd" d="M922.664 238.015C922.664 238.015 926.463 239.686 928.237 239.596C930.005 239.505 940.889 238.408 942.307 240.276C943.725 242.144 954.18 252.675 952.761 254.272C951.35 255.868 950.288 255.072 949.576 254.276C948.87 253.479 940.809 246.708 939.833 246.601C939.833 246.601 947.01 254.634 945.776 257.028C944.543 259.421 942.326 258.981 941.001 259.425C939.675 259.871 937.465 261.556 935.077 260.496C932.683 259.436 923.561 249.525 921.344 248.109C919.128 246.694 913.284 244.487 913.198 243.955C913.106 243.425 922.664 238.015 922.664 238.015Z" fill="#EEA886"/>
<path fill-rule="evenodd" clip-rule="evenodd" d="M872.554 95.0308C872.085 95.1772 871.426 95.6654 870.641 96.3871C869.935 97.0257 869.144 97.8556 868.293 98.8056C863.524 104.107 857.099 113.071 857.099 113.071C857.099 113.071 843.36 84.8792 846.988 85.1279C850.609 85.3753 855.312 81.0615 855.312 81.0615C855.312 81.0615 875.792 94.0148 872.554 95.0308Z" fill="#EEA886"/>
<path fill-rule="evenodd" clip-rule="evenodd" d="M846.988 85.1277L850.701 84.2061L860.866 107.979L858.603 115.894L846.988 85.1277Z" fill="#EDDCC5"/>
<path fill-rule="evenodd" clip-rule="evenodd" d="M842.733 157.639C842.733 157.639 809.562 183.708 803.038 196.141C796.515 208.574 767.638 175.366 767.638 175.366L842.733 157.639Z" fill="#EDDCC5"/>
<path fill-rule="evenodd" clip-rule="evenodd" d="M803.48 195.354L802.458 198.716L801.205 203.193V203.195C801.205 203.195 801.205 203.193 801.198 203.192C800.67 202.911 766.622 184.935 763.792 184.437C760.936 183.939 772.334 178.346 772.334 178.346L803.48 195.354Z" fill="#323657"/>
<path fill-rule="evenodd" clip-rule="evenodd" d="M789.022 246.867C789.022 246.867 792.96 310.661 793.303 315.2C793.646 319.732 795.011 340.546 794.345 343.904C793.679 347.268 805.182 423.148 805.182 423.148L777.169 424.968C777.169 424.968 765.408 346.741 763.218 336.502C761.022 326.264 737.527 232.998 737.349 225.273C737.17 217.55 789.022 246.867 789.022 246.867Z" fill="#272A45"/>
<path fill-rule="evenodd" clip-rule="evenodd" d="M900.943 52.6256C900.943 52.6256 902.473 67.5653 899.459 70.0874C896.445 72.6107 901.656 84.3581 899.479 85.3681C897.302 86.3788 893.443 87.0543 893.279 87.5583C893.114 88.0624 883.569 102.346 880.047 101.175C876.525 100.005 854.045 88.4496 855.371 80.3874C856.704 72.3264 858.188 54.0236 858.188 50.4974C858.181 46.972 881.637 30.319 900.943 52.6256Z" fill="#EEA886"/>
<path fill-rule="evenodd" clip-rule="evenodd" d="M924.379 234.298L926.054 236.391L913.35 245.986L910.191 242.289L924.379 234.298Z" fill="#EDDCC5"/>
<path fill-rule="evenodd" clip-rule="evenodd" d="M794.503 381.151L788.283 387.655C788.283 387.655 773.422 374.244 773.422 373.986C773.422 373.736 778.699 366.677 778.699 366.677L794.503 381.151Z" fill="#3D436B"/>
<path fill-rule="evenodd" clip-rule="evenodd" d="M804.1 430.952C804.1 430.952 810.736 438.136 813.077 438.723C815.426 439.304 827.364 444.04 832.476 444.205C837.595 444.364 842.014 445.947 841.012 451.066C840.016 456.192 799.265 454.101 799.265 454.101C799.265 454.101 797.254 452.003 796.33 452.339C795.407 452.682 794.741 454.411 794.741 454.411L778.125 454.16C778.125 454.16 777.228 440.24 781.575 433.518C781.575 433.518 797.729 430.793 798.982 430.121C800.242 429.448 804.1 430.952 804.1 430.952Z" fill="#4D5485"/>
<path fill-rule="evenodd" clip-rule="evenodd" d="M873.596 37.5595C871.037 38.1183 868.814 38.9277 866.881 39.9094C865.054 39.9404 854.157 40.3553 853.861 45.9681C853.458 53.5204 855.754 75.2874 855.787 77.469C855.793 77.7613 856.018 77.3054 856.367 76.3C859.725 70.4979 870.278 67.0476 870.278 67.0476L875.087 67.041C874.744 62.2278 877.197 58.9762 877.197 58.9762C883.906 56.1645 901.279 57.7069 901.279 57.7069C908.786 35.3007 887.032 34.6185 873.596 37.5595Z" fill="#FCC53A"/>
<path fill-rule="evenodd" clip-rule="evenodd" d="M871.07 61.3389C870.74 59.237 865.015 56.9809 863.676 62.1318C862.343 67.2821 867.495 74.2156 869.948 72.7557C872.409 71.2984 871.426 63.5766 871.07 61.3389Z" fill="#EEA886"/>
<path fill-rule="evenodd" clip-rule="evenodd" d="M794.107 453.171L788.732 432.528L790.282 432.126L795.657 452.768L794.107 453.171Z" fill="#73A5F5"/>
<path fill-rule="evenodd" clip-rule="evenodd" d="M784.583 433.874L731.841 240.286L736.273 239.079L789.015 432.667L784.583 433.874Z" fill="#EDDAD3"/>
<path fill-rule="evenodd" clip-rule="evenodd" d="M787.821 413.47C778.567 413.483 770.322 420.093 768.587 429.52C766.628 440.148 773.68 450.387 784.306 452.346C794.932 454.306 805.169 447.253 807.128 436.626C808.078 431.473 806.963 426.262 803.995 421.954C801.027 417.639 796.554 414.743 791.41 413.8C790.202 413.575 789.009 413.47 787.821 413.47ZM787.9 458.416C786.37 458.416 784.82 458.284 783.263 457.993C769.524 455.46 760.408 442.22 762.941 428.478C765.474 414.736 778.706 405.613 792.452 408.146C799.107 409.38 804.885 413.12 808.724 418.695C812.563 424.269 814.001 431.005 812.774 437.661C810.531 449.846 799.866 458.402 787.9 458.416Z" fill="#5B83C2"/>
<path fill-rule="evenodd" clip-rule="evenodd" d="M719.282 227.821C719.282 227.821 718.299 242.458 731.933 244.045C745.567 245.629 770.019 243.995 770.019 243.995C770.019 243.995 735.106 219.781 719.282 227.821Z" fill="#857E83"/>
<path fill-rule="evenodd" clip-rule="evenodd" d="M936.634 324.489C889.407 324.548 851.037 363.022 851.097 410.257C851.163 457.485 889.631 495.86 936.852 495.801C984.079 495.742 1022.45 457.268 1022.39 410.033C1022.33 362.805 983.855 324.423 936.634 324.489ZM936.858 500.393C924.682 500.412 912.862 498.037 901.728 493.347C890.976 488.815 881.313 482.323 873.015 474.044C864.724 465.765 858.201 456.126 853.643 445.38C848.927 434.257 846.519 422.442 846.506 410.264C846.493 398.079 848.861 386.257 853.551 375.121C858.082 364.368 864.579 354.71 872.851 346.411C881.129 338.112 890.772 331.594 901.51 327.029C912.631 322.312 924.445 319.91 936.627 319.891C948.81 319.877 960.63 322.246 971.764 326.943C982.509 331.469 992.173 337.967 1000.47 346.246C1008.77 354.519 1015.29 364.164 1019.84 374.904C1024.57 386.026 1026.97 397.841 1026.98 410.026C1027 422.211 1024.62 434.033 1019.94 445.169C1015.4 455.922 1008.91 465.58 1000.64 473.879C992.357 482.178 982.714 488.696 971.976 493.255C960.855 497.978 949.041 500.379 936.858 500.393Z" fill="#353A3D"/>
<path fill-rule="evenodd" clip-rule="evenodd" d="M936.641 329.179C891.999 329.239 855.734 365.608 855.793 410.25C855.853 454.892 892.21 491.163 936.845 491.11C981.487 491.051 1017.75 454.681 1017.69 410.039C1017.64 365.397 981.276 329.12 936.641 329.179ZM936.852 495.702C925.309 495.715 914.102 493.472 903.548 489.019C893.351 484.724 884.196 478.569 876.333 470.719C868.464 462.875 862.29 453.731 857.963 443.546C853.491 433.003 851.216 421.802 851.196 410.257C851.183 398.705 853.432 387.497 857.878 376.942C862.178 366.749 868.332 357.593 876.175 349.722C884.024 341.859 893.16 335.677 903.344 331.35C913.884 326.877 925.084 324.601 936.634 324.588C948.184 324.568 959.384 326.817 969.937 331.264C980.135 335.565 989.29 341.72 997.153 349.564C1005.02 357.414 1011.2 366.558 1015.52 376.737C1019.99 387.279 1022.27 398.481 1022.29 410.033C1022.3 421.584 1020.05 432.792 1015.61 443.348C1011.31 453.54 1005.15 462.697 997.311 470.561C989.468 478.431 980.326 484.612 970.142 488.933C959.601 493.413 948.401 495.689 936.852 495.702Z" fill="#E0E0E0"/>
<path fill-rule="evenodd" clip-rule="evenodd" d="M801.205 203.195C801.205 203.195 840.147 233.367 848.538 240.912C856.934 248.456 875.562 262.705 875.905 265.728C876.241 268.749 881.28 276.802 872.58 290.748C863.88 304.696 819.007 356.636 816.164 361.003C813.321 365.377 797.92 383.862 797.92 383.862L775.764 366.261C775.764 366.261 821.026 303.743 826.678 297.021C832.338 290.296 835.847 282.066 833.327 278.543C830.808 275.02 812.695 271.35 756.319 240.361C750.686 237.264 729.479 232 730.304 223.77C731.135 215.542 730.093 188.344 746.853 182.11C763.614 175.876 801.205 203.195 801.205 203.195Z" fill="#323657"/>
<path fill-rule="evenodd" clip-rule="evenodd" d="M846.988 85.1278C846.988 85.1278 858.603 111.949 859.612 116.985C860.628 122.021 854.896 156.214 849.606 158.133C844.316 160.056 801.719 179.915 784.959 186.821C768.198 193.726 728.18 216.581 722.468 212.894C716.769 209.206 698.729 180.158 700.061 174.446C700.061 174.446 703.412 172.259 714.309 171.574C725.205 170.887 771.622 144.468 775.302 138.082C778.983 131.696 818.321 84.1297 846.988 85.1278Z" fill="#3C4169"/>
<path fill-rule="evenodd" clip-rule="evenodd" d="M851.611 104.789C851.611 104.789 856.532 117.099 859.124 125.717C861.624 134.042 872.415 159.951 873.424 161.965C874.427 163.979 890.726 190.151 892.579 193.171C894.426 196.19 924.319 233.425 924.992 233.593C925.665 233.76 911.088 244.525 911.088 244.525C911.088 244.525 874.48 200.916 872.29 196.89C870.107 192.863 846.091 163.512 842.733 157.638C839.369 151.767 821.778 124.116 820.043 119.386C818.11 114.1 812.22 100.844 828.565 93.1819C842.516 86.6403 849.342 100.762 851.611 104.789Z" fill="#3C4169"/>
<path fill-rule="evenodd" clip-rule="evenodd" d="M785.744 432.839L779.148 408.245L780.698 407.829L787.294 432.423L785.744 432.839Z" fill="#73A5F5"/>
<path fill-rule="evenodd" clip-rule="evenodd" d="M792.419 420.238L768.528 401.08L770.731 398.336L794.622 417.487L792.419 420.238Z" fill="#73A5F5"/>
<path fill-rule="evenodd" clip-rule="evenodd" d="M773.422 373.986C773.422 373.986 786.265 382.701 787.274 383.875C788.276 385.05 790.413 385.426 790.413 385.426C790.413 385.426 791.515 391.765 792.023 393.355C792.524 394.952 803.15 409.795 804.575 410.217C806 410.633 815.874 416.61 813.981 420.423C812.081 424.23 803.223 421.413 797.63 418.734C792.036 416.056 773.066 401.305 771.364 398.732L770.658 396.713C770.658 396.713 768.31 396.495 767.42 396.383C766.523 396.271 759.023 389.569 759.023 389.569C759.023 389.569 766.82 378.327 773.422 373.986Z" fill="#545C91"/>
<path fill-rule="evenodd" clip-rule="evenodd" d="M791.805 433.795C791.403 435.979 789.312 437.424 787.129 437.021C784.952 436.619 783.508 434.528 783.91 432.344C784.312 430.16 786.403 428.722 788.586 429.125C790.763 429.527 792.208 431.618 791.805 433.795Z" fill="#5B83C2"/>
<path fill-rule="evenodd" clip-rule="evenodd" d="M934.53 410.752L895.449 268.054L899.875 266.841L938.956 409.538L934.53 410.752Z" fill="#EDDAD3"/>
<path fill-rule="evenodd" clip-rule="evenodd" d="M901.814 270.817L893.516 270.828L893.509 266.534L901.807 266.522L901.814 270.817Z" fill="#EDDAD3"/>
<path fill-rule="evenodd" clip-rule="evenodd" d="M942.795 410.138C942.801 413.476 940.097 416.194 936.753 416.194C933.409 416.201 930.698 413.496 930.691 410.152C930.684 406.807 933.395 404.095 936.733 404.089C940.077 404.082 942.795 406.794 942.795 410.138Z" fill="#5B83C2"/>
<path fill-rule="evenodd" clip-rule="evenodd" d="M327.162 326.765C280.288 326.824 242.202 365.014 242.262 411.893C242.323 458.778 280.508 496.87 327.382 496.81C374.256 496.751 412.343 458.561 412.282 411.675C412.221 364.797 374.037 326.705 327.162 326.765ZM327.388 501.369C315.297 501.382 303.565 499.034 292.514 494.376C281.842 489.877 272.255 483.432 264.019 475.212C255.783 466.998 249.314 457.426 244.789 446.765C240.102 435.722 237.719 423.992 237.704 411.9C237.688 399.807 240.041 388.078 244.698 377.021C249.196 366.347 255.641 356.762 263.855 348.522C272.07 340.289 281.64 333.817 292.301 329.291C303.339 324.608 315.066 322.219 327.156 322.206C339.247 322.186 350.98 324.542 362.029 329.199C372.702 333.698 382.289 340.144 390.525 348.357C398.76 356.577 405.231 366.149 409.756 376.81C414.442 387.847 416.826 399.576 416.841 411.669C416.856 423.761 414.503 435.497 409.846 446.547C405.349 457.221 398.904 466.814 390.689 475.047C382.474 483.286 372.903 489.758 362.244 494.284C351.205 498.968 339.479 501.356 327.388 501.369Z" fill="#353A3D"/>
<path fill-rule="evenodd" clip-rule="evenodd" d="M327.169 331.422C282.862 331.481 246.864 367.58 246.921 411.886C246.978 456.205 283.07 492.205 327.376 492.146C371.682 492.093 407.68 455.994 407.623 411.682C407.566 367.369 371.474 331.363 327.169 331.422ZM327.382 496.711C315.92 496.724 304.798 494.494 294.322 490.074C284.204 485.813 275.117 479.704 267.309 471.913C259.503 464.128 253.368 455.051 249.079 444.944C244.637 434.481 242.377 423.358 242.362 411.893C242.347 400.434 244.579 389.311 248.993 378.828C253.257 368.708 259.367 359.624 267.153 351.813C274.941 344.002 284.014 337.874 294.119 333.579C304.584 329.14 315.7 326.877 327.162 326.863C338.624 326.85 349.747 329.08 360.223 333.493C370.34 337.762 379.428 343.871 387.235 351.662C395.042 359.446 401.177 368.524 405.465 378.63C409.907 389.093 412.167 400.209 412.182 411.675C412.198 423.141 409.966 434.263 405.552 444.739C401.287 454.859 395.177 463.95 387.39 471.761C379.603 479.565 370.53 485.701 360.424 489.995C349.961 494.435 338.844 496.698 327.382 496.711Z" fill="#E0E0E0"/>
<path fill-rule="evenodd" clip-rule="evenodd" d="M636.423 434.745L592.955 275.565L597.355 274.366L640.816 433.545L636.423 434.745Z" fill="#EDDAD3"/>
<path fill-rule="evenodd" clip-rule="evenodd" d="M466.552 434.963L423.091 275.785L427.489 274.585L470.95 433.762L466.552 434.963Z" fill="#EDDAD3"/>
<path fill-rule="evenodd" clip-rule="evenodd" d="M719.447 186.871C719.447 186.871 724.183 185.161 725.364 183.875C726.538 182.59 733.734 176.126 736.016 176.458C738.298 176.787 752.434 176.119 752.618 178.21C752.717 179.333 751.51 179.5 750.461 179.432C749.413 179.362 739.09 180.181 738.331 180.777C738.331 180.777 748.911 181.454 749.696 183.986C750.481 186.518 748.628 187.736 748.001 188.965C747.381 190.193 746.992 192.901 744.584 193.809C742.177 194.716 729.717 195.131 727.191 195.668C724.658 196.205 718.088 197.457 717.659 197.147C717.231 196.835 719.447 186.871 719.447 186.871Z" fill="#EEA886"/>
<path fill-rule="evenodd" clip-rule="evenodd" d="M430.042 290.541L331.564 410.059L519.146 431.889L786.845 430.86L903.898 296.527L901.246 288.082L430.042 290.541ZM322.979 413.516L427.946 286.124L428.981 286.118L904.492 283.637L908.858 297.566L908.047 298.5L788.87 435.28L518.763 436.302L322.979 413.516Z" fill="#EDDAD3"/>
<path fill-rule="evenodd" clip-rule="evenodd" d="M659.905 389.384C659.905 389.384 666.91 395.414 671.138 395.585C675.366 395.757 688.023 398.475 688.644 400.698C689.264 402.921 693.775 408.462 669.746 408.904C646.02 409.34 643.975 408.753 644.503 404.405C645.024 400.051 646.739 394.107 647.616 389.865L659.905 389.384Z" fill="#E8734D"/>
<path fill-rule="evenodd" clip-rule="evenodd" d="M563.326 260.364C563.326 260.364 562.356 274.845 575.839 276.415C589.327 277.984 613.522 276.365 613.522 276.365C613.522 276.365 578.985 252.41 563.326 260.364Z" fill="#857E83"/>
<path fill-rule="evenodd" clip-rule="evenodd" d="M659.403 105.78C659.403 105.78 679.073 116.531 681.678 121.348C686.401 130.073 688.096 147.324 688.023 150.388C687.786 160.605 676.137 163.044 676.217 166.035C676.296 169.026 667.958 184.421 666.059 192.596C664.166 200.768 647.412 222.371 647.412 222.371C647.412 222.371 615.52 232.885 602.124 201.556C602.124 201.556 614.168 178.879 614.913 167.557C617.083 134.758 619.794 130.225 622.235 125.521C626.773 116.783 639.193 107.452 641.225 105.663C643.25 103.873 659.403 105.78 659.403 105.78Z" fill="#EDDCC5"/>
<path fill-rule="evenodd" clip-rule="evenodd" d="M630.981 118.651C634.919 115.248 648.922 114.249 653.322 132.752C657.728 151.255 671.705 188.45 674.093 191.831C676.487 195.211 719.269 186.331 719.269 186.331L720.72 201.017C720.72 201.017 664.12 213.871 661.323 208.7C658.533 203.53 628.87 149.5 628.666 145.919C628.468 142.337 621.048 127.23 630.981 118.651Z" fill="#E8734D"/>
<path fill-rule="evenodd" clip-rule="evenodd" d="M661.072 123.387C652.161 125.025 643.243 116.535 641.225 105.664C641.225 105.664 640.169 90.7135 638.837 85.0295C637.518 79.3455 657.721 95.4733 657.721 95.4733C657.721 95.4733 657.735 95.8651 657.768 96.4912C657.814 97.3013 657.893 98.5026 658.005 99.7666C658.216 102.013 658.559 104.466 659.113 105.351L661.666 107.371C661.666 107.371 669.977 121.751 661.072 123.387Z" fill="#EEA987"/>
<path fill-rule="evenodd" clip-rule="evenodd" d="M625.691 450.901L638.804 434.369L640.051 435.359L626.931 451.891L625.691 450.901Z" fill="#73A5F5"/>
<path fill-rule="evenodd" clip-rule="evenodd" d="M638.131 414.143C628.976 414.156 620.817 420.7 619.095 430.022C617.163 440.537 624.135 450.67 634.649 452.603C645.163 454.543 655.294 447.563 657.233 437.047C658.17 431.955 657.068 426.802 654.133 422.534C651.191 418.272 646.772 415.403 641.68 414.466C640.486 414.248 639.299 414.143 638.131 414.143ZM638.204 458.607C636.693 458.613 635.163 458.475 633.62 458.191C620.025 455.684 611.008 442.589 613.515 428.993C616.015 415.396 629.108 406.371 642.702 408.878C649.292 410.092 655.011 413.799 658.81 419.315C662.609 424.83 664.027 431.493 662.82 438.077C660.597 450.136 650.044 458.593 638.204 458.607Z" fill="#5B83C2"/>
<path fill-rule="evenodd" clip-rule="evenodd" d="M642.069 434.257C641.673 436.414 639.602 437.839 637.445 437.443C635.288 437.041 633.864 434.969 634.259 432.819C634.655 430.661 636.726 429.23 638.883 429.632C641.04 430.028 642.465 432.1 642.069 434.257Z" fill="#EDDAD3"/>
<path fill-rule="evenodd" clip-rule="evenodd" d="M634.615 264.021C634.615 264.021 635.77 303.126 635.889 308.965C636.02 315.332 636.172 338.395 635.598 341.291C635.024 344.187 631.133 428.148 631.133 428.148L605.606 423.767C605.606 423.767 605.283 356.999 605.606 347.908C606.213 330.736 585.172 252.046 585.02 245.383C584.862 238.719 634.615 264.021 634.615 264.021Z" fill="#3C4169"/>
<path fill-rule="evenodd" clip-rule="evenodd" d="M631.133 428.148L631.219 433.67L619.827 433.274L618.765 426.024L631.133 428.148Z" fill="#EEA987"/>
<path fill-rule="evenodd" clip-rule="evenodd" d="M631.172 430.556C631.172 430.556 638.177 436.586 642.406 436.751C646.634 436.922 659.298 439.634 659.918 441.857C660.538 444.08 665.056 449.615 641.027 450.07C617.294 450.525 615.256 449.945 615.777 445.591C616.298 441.237 618.013 435.293 618.884 431.051L631.172 430.556Z" fill="#E8734D"/>
<path fill-rule="evenodd" clip-rule="evenodd" d="M648.118 221.055C648.118 221.055 657.233 234.321 681.995 253.921C681.995 253.921 607.315 284.572 596.26 285.245C594.637 285.343 589.558 273.272 585.02 264.034C585.02 264.034 567.963 243.539 589.994 216.502C597.447 207.359 602.124 201.556 602.124 201.556L648.118 221.055Z" fill="#3C4169"/>
<path fill-rule="evenodd" clip-rule="evenodd" d="M642.689 454.273L612.42 452.986L612.572 449.503L642.834 450.796L642.689 454.273Z" fill="#73A5F5"/>
<path fill-rule="evenodd" clip-rule="evenodd" d="M666.791 46.356C666.791 46.356 674.759 61.4217 671.863 81.8891C668.968 102.356 652.049 97.2899 643.527 90.8287C634.998 84.3676 626.78 62.2727 628.138 51.3645C629.497 40.4536 654.311 23.6826 666.791 46.356Z" fill="#EEA886"/>
<path fill-rule="evenodd" clip-rule="evenodd" d="M655.677 46.5369C655.677 46.5369 652.689 66.0747 632.347 73.3301C632.347 73.3301 622.354 66.4342 628.699 47.219C635.044 28.0031 657.774 35.0646 658.836 35.2084C659.905 35.3529 672.826 49.4053 673.209 59.9467C673.585 70.4888 673.314 71.1736 673.314 71.1736C673.314 71.1736 668.038 52.7342 655.677 46.5369Z" fill="#262625"/>
<path fill-rule="evenodd" clip-rule="evenodd" d="M394.013 259.729C394.013 259.729 393.036 274.258 406.568 275.832C420.1 277.408 444.373 275.783 444.373 275.783C444.373 275.783 409.72 251.749 394.013 259.729Z" fill="#857E83"/>
<path fill-rule="evenodd" clip-rule="evenodd" d="M482.267 200.04C482.267 200.04 463.518 211.843 453.953 225.433C444.387 239.022 413.286 270.809 396.12 273.427C384.87 275.143 363.402 290.64 346.85 302.641C330.295 314.646 316.713 320.326 316.713 320.326L321.627 331.119C321.627 331.119 402.142 297.778 407.527 294.577C412.914 291.375 438.85 280.16 443.237 275.962C447.624 271.763 506.967 261.17 529.745 222.874C552.515 184.574 482.267 200.04 482.267 200.04Z" fill="#EEA987"/>
<path fill-rule="evenodd" clip-rule="evenodd" d="M467.956 435.009C467.956 435.009 472.071 443.321 475.911 445.135C479.752 446.943 490.387 454.404 490.092 456.7C489.797 458.996 491.803 465.876 469.425 456.898C447.326 448.025 445.67 446.686 447.853 442.873C450.037 439.053 453.947 434.23 456.413 430.655L467.956 435.009Z" fill="#EDDAD3"/>
<path fill-rule="evenodd" clip-rule="evenodd" d="M323.531 330.327C323.531 330.327 319.621 341.746 321.183 346.054C322.745 350.369 325.212 364.19 323.238 365.72C321.263 367.251 317.559 374.052 307.257 350.125C297.083 326.501 296.833 324.212 301.413 322.952C305.993 321.691 312.659 320.979 317.272 320.115L323.531 330.327Z" fill="#EDDAD3"/>
<path fill-rule="evenodd" clip-rule="evenodd" d="M532.569 41.4413C532.569 41.4413 552.146 51.5988 544.996 78.1625C537.839 104.727 519.073 104.152 511.859 81.0012C504.642 57.8482 509.802 34.682 532.569 41.4413Z" fill="#EEA987"/>
<path fill-rule="evenodd" clip-rule="evenodd" d="M531.559 107.931C531.559 107.931 547.838 116.396 550.14 121.184C552.442 125.972 560.43 149.563 560.074 152.619C558.893 162.802 547.608 167.91 547.41 170.903C547.212 173.899 546.466 185.447 543.814 193.437C541.163 201.427 529.746 222.874 529.746 222.874C529.746 222.874 503.259 222.973 482.267 200.04C482.267 200.04 490.836 187.848 491.02 176.467C491.206 165.087 487.323 136.896 488.96 127.153C490.642 117.149 508.698 106.961 510.892 105.362C513.084 103.761 531.559 107.931 531.559 107.931Z" fill="#EB9928"/>
<path fill-rule="evenodd" clip-rule="evenodd" d="M529.745 222.874C529.745 222.874 534.448 262.068 519.937 306.611C519.937 306.611 473.2 289.7 462.614 286.319C452.031 282.939 411.671 257.235 411.664 251.844C411.664 251.844 437.209 244.822 445.577 233.031C453.947 221.24 483.554 198.047 483.554 198.047L529.745 222.874Z" fill="#46A4D4"/>
<path fill-rule="evenodd" clip-rule="evenodd" d="M531.559 107.931C531.559 107.931 550.332 112.881 564.685 127.848L556.36 139.662C556.36 139.662 517.939 116.48 531.559 107.931Z" fill="#EB9928"/>
<path fill-rule="evenodd" clip-rule="evenodd" d="M529.086 124.905C520.036 125.714 511.905 116.407 510.891 105.358C510.891 105.358 514.251 91.1424 513.453 85.337C512.655 79.5375 528.782 98.2336 528.782 98.2336C528.782 98.2336 528.571 99.8835 528.453 101.813C528.327 103.925 528.308 106.36 528.795 107.334L531.553 107.932C531.553 107.932 538.136 124.097 529.086 124.905Z" fill="#EEA987"/>
<path fill-rule="evenodd" clip-rule="evenodd" d="M525.795 52.3642C525.795 52.3642 544.923 64.9659 546.354 70.9639C546.354 70.9639 553.089 60.8493 544.019 43.9543C534.95 27.0625 513.117 26.9576 501.022 37.7544C488.925 48.5531 486.158 69.9869 470.321 70.4058C454.484 70.8254 444.36 63.6511 440.657 82.0246C436.955 100.398 416.173 84.9846 412.065 99.3656C407.958 113.746 426.35 133.291 452.414 115.953C478.476 98.6148 483.151 113.584 493.233 113.57C503.317 113.558 515.511 113.153 513.572 86.9941C511.633 60.8348 525.795 52.3642 525.795 52.3642Z" fill="#C75656"/>
<path fill-rule="evenodd" clip-rule="evenodd" d="M476.4 462.994L448.242 451.555L449.558 448.315L477.715 459.755L476.4 462.994Z" fill="#73A5F5"/>
<path fill-rule="evenodd" clip-rule="evenodd" d="M462.359 454.22L469.437 434.264L470.941 434.798L463.863 454.754L462.359 454.22Z" fill="#73A5F5"/>
<path fill-rule="evenodd" clip-rule="evenodd" d="M469.063 414.017C459.875 414.024 451.69 420.588 449.967 429.943C448.023 440.498 455.023 450.657 465.571 452.603C476.117 454.543 486.282 447.544 488.226 436.995C489.167 431.889 488.063 426.717 485.116 422.435C482.168 418.154 477.73 415.277 472.62 414.341C471.426 414.116 470.236 414.011 469.063 414.017ZM469.139 458.627C467.622 458.627 466.084 458.495 464.539 458.211C450.901 455.697 441.85 442.556 444.363 428.913C446.875 415.271 460.012 406.22 473.654 408.733C480.26 409.954 485.997 413.668 489.808 419.203C493.618 424.738 495.047 431.42 493.829 438.031C491.601 450.123 481.017 458.613 469.139 458.627Z" fill="#5B83C2"/>
<path fill-rule="evenodd" clip-rule="evenodd" d="M466.812 432.852L475.09 408.977L476.597 409.498L468.321 433.373L466.812 432.852Z" fill="#73A5F5"/>
<path fill-rule="evenodd" clip-rule="evenodd" d="M490.497 412.362L460.14 410.897L460.309 407.407L490.666 408.872L490.497 412.362Z" fill="#73A5F5"/>
<path fill-rule="evenodd" clip-rule="evenodd" d="M473.014 434.191C472.615 436.355 470.538 437.786 468.374 437.39C466.211 436.988 464.78 434.91 465.178 432.746C465.577 430.582 467.654 429.151 469.818 429.553C471.982 429.949 473.413 432.027 473.014 434.191Z" fill="#5B83C2"/>
<path fill-rule="evenodd" clip-rule="evenodd" d="M333.28 411.781C333.284 415.099 330.598 417.791 327.28 417.797C323.962 417.797 321.268 415.112 321.265 411.794C321.261 408.476 323.946 405.784 327.264 405.777C330.583 405.771 333.276 408.462 333.28 411.781Z" fill="#5B83C2"/>
<path fill-rule="evenodd" clip-rule="evenodd" d="M528.782 98.2335C528.782 98.2335 528.571 99.8834 528.453 101.813C519.515 99.9401 516.197 90.7597 515.999 90.1851C522.206 99.7284 528.782 98.2335 528.782 98.2335Z" fill="#A77860"/>
<path fill-rule="evenodd" clip-rule="evenodd" d="M658.005 99.7669C648.111 97.6934 644.351 91.4302 644.351 91.4302C652.953 96.9084 657.768 96.4914 657.768 96.4914C657.814 97.3015 657.893 98.5029 658.005 99.7669Z" fill="#A77860"/>
<path fill-rule="evenodd" clip-rule="evenodd" d="M870.641 96.3812C870.641 96.3812 870.641 96.3812 870.641 96.3871C869.935 97.0257 869.144 97.8556 868.293 98.8056L868.286 98.799C865.522 96.432 860.978 90.2393 859.876 88.7227C862.119 91.6155 870.641 96.3812 870.641 96.3812Z" fill="#A77860"/>
<path fill-rule="evenodd" clip-rule="evenodd" d="M641.225 105.663C641.225 105.663 656.917 121.143 656 142.558C655.083 163.972 638.428 212.504 624.233 224.067C610.032 235.63 551.69 266.841 551.69 266.841C551.69 266.841 551.73 222.642 563.313 213.08C574.895 203.517 592.329 203.011 607.473 174.269C622.617 145.529 604.67 130.716 641.225 105.663Z" fill="#E8734D"/>
<path fill-rule="evenodd" clip-rule="evenodd" d="M490.974 125.002C492.952 120.167 505.022 112.907 517.371 127.453C529.712 142 559.124 168.912 562.798 170.848C566.472 172.784 632.413 193.973 632.413 193.973L629.187 203.527C629.187 203.527 563.893 195.097 559.045 191.742C554.197 188.388 503.112 153.551 501.302 150.44C499.491 147.33 485.988 137.19 490.974 125.002Z" fill="#EEA987"/>
<path fill-rule="evenodd" clip-rule="evenodd" d="M507.082 158.923C507.082 158.923 524.845 136.116 527.483 134.771C527.483 134.771 506.886 106.186 491.393 123.62C491.393 123.62 480.878 138.368 507.082 158.923Z" fill="#EB9928"/>
<path fill-rule="evenodd" clip-rule="evenodd" d="M623.343 192.093C623.343 192.093 628.363 192.463 629.965 191.769C631.568 191.076 640.77 188.108 642.722 189.342C644.668 190.575 657.847 195.73 657.167 197.714C656.798 198.779 655.624 198.439 654.694 197.949C653.77 197.459 644.008 193.995 643.072 194.231C643.072 194.231 652.458 199.163 652.141 201.796C651.825 204.428 649.635 204.783 648.566 205.652C647.491 206.518 646.04 208.833 643.467 208.68C640.902 208.527 629.352 203.825 626.826 203.283C624.299 202.742 617.789 201.204 617.519 200.745C617.255 200.285 623.343 192.093 623.343 192.093Z" fill="#EEA886"/>
<path fill-rule="evenodd" clip-rule="evenodd" d="M659.113 105.351C659.113 105.351 675.029 128.821 677.602 145.199C680.181 161.576 661.072 201.568 660.802 204.1C660.802 204.1 677.806 164.004 680.214 162.214C682.621 160.426 689.837 162.022 688.07 144.607C685.003 114.412 677.087 116.672 659.113 105.351Z" fill="#E8734D"/>
<path fill-rule="evenodd" clip-rule="evenodd" d="M261.772 122.1L185.846 191.008C185.846 191.008 159.264 178.117 174.068 162.454C181.1 155.012 189.148 148.128 197.302 142.035C218.183 126.429 239.763 116.019 246.801 114.778C256.591 113.055 261.772 122.1 261.772 122.1Z" fill="#323657"/>
<path fill-rule="evenodd" clip-rule="evenodd" d="M219.099 160.828L186.345 193.292C186.345 193.292 158.391 177.484 173.196 161.821C180.226 154.379 189.022 148.004 197.302 142.035L219.099 160.828Z" fill="#73A5F5"/>
<path fill-rule="evenodd" clip-rule="evenodd" d="M366.4 331.33L364.946 329.542C364.946 329.542 364.947 329.542 364.947 329.542L366.4 331.33ZM367.852 333.118L364.947 329.542C365.154 329.377 379.433 317.555 380.267 304.916C380.582 300.139 378.969 295.937 375.337 292.076C371.438 287.927 366.922 285.797 361.916 285.743C350.191 285.62 339.258 296.625 339.148 296.736L339.054 296.829L325.328 309.315L322.229 305.909L335.91 293.464C336.885 292.479 348.428 281.137 361.715 281.137C361.792 281.137 361.868 281.137 361.945 281.139C368.261 281.2 373.896 283.819 378.691 288.92C383.187 293.702 385.262 299.192 384.86 305.235C383.881 319.91 368.507 332.583 367.852 333.118Z" fill="#353A3D"/>
<path fill-rule="evenodd" clip-rule="evenodd" d="M204.808 493.459H235.5V489.929H204.808V493.459Z" fill="#73A5F5"/>
<path fill-rule="evenodd" clip-rule="evenodd" d="M227.888 459.504L228.726 468.727L205.951 470.409L204.439 459.504H227.888Z" fill="#333859"/>
<path fill-rule="evenodd" clip-rule="evenodd" d="M347.74 273.962C347.74 273.962 351.549 275.643 353.323 275.555C355.096 275.466 366.007 274.381 367.425 276.255C368.844 278.13 379.31 288.698 377.891 290.297C376.473 291.897 375.408 291.096 374.698 290.297C373.988 289.498 365.918 282.701 364.942 282.593C364.942 282.593 372.126 290.653 370.884 293.051C369.642 295.449 367.425 295.005 366.094 295.449C364.764 295.893 362.547 297.581 360.153 296.515C357.758 295.449 348.622 285.502 346.405 284.08C344.188 282.659 338.334 280.439 338.245 279.906C338.156 279.374 347.74 273.962 347.74 273.962Z" fill="#EEA886"/>
<path fill-rule="evenodd" clip-rule="evenodd" d="M280.43 116.543C280.43 116.543 275.711 120.865 272.08 120.612C268.447 120.361 282.175 148.635 282.175 148.635C282.175 148.635 294.444 131.579 297.694 130.57C300.944 129.559 280.43 116.543 280.43 116.543Z" fill="#EEA886"/>
<path fill-rule="evenodd" clip-rule="evenodd" d="M272.08 120.612L275.809 119.694L285.961 143.536L283.688 151.469L272.08 120.612Z" fill="#D4D4D4"/>
<path fill-rule="evenodd" clip-rule="evenodd" d="M267.72 193.292C267.72 193.292 234.44 219.379 227.885 231.834C221.331 244.288 192.421 210.964 192.421 210.964L267.72 193.292Z" fill="#EDDCC5"/>
<path fill-rule="evenodd" clip-rule="evenodd" d="M228.326 231.047L227.298 234.414L226.038 238.901L226.037 238.902C226.037 238.902 226.036 238.901 226.031 238.9C225.497 238.616 191.391 220.555 188.555 220.053C185.698 219.547 197.127 213.957 197.127 213.957L228.326 231.047Z" fill="#323657"/>
<path fill-rule="evenodd" clip-rule="evenodd" d="M213.767 282.663C213.767 282.663 217.632 346.622 217.969 351.161C218.305 355.706 219.65 376.579 218.977 379.943C218.305 383.308 229.734 459.385 229.734 459.385L201.656 461.18C201.656 461.18 189.969 382.747 187.784 372.482C185.598 362.217 162.167 268.693 161.999 260.951C161.831 253.209 213.767 282.663 213.767 282.663Z" fill="#272A45"/>
<path fill-rule="evenodd" clip-rule="evenodd" d="M326.212 88.1006C326.212 88.1006 327.725 103.081 324.699 105.605C321.673 108.129 326.884 119.911 324.699 120.921C322.514 121.93 318.648 122.604 318.48 123.109C318.311 123.614 308.732 137.92 305.202 136.742C301.672 135.563 279.15 123.95 280.494 115.872C281.839 107.793 283.352 89.4477 283.352 85.913C283.352 82.3783 306.882 65.7155 326.212 88.1006Z" fill="#EEA886"/>
<path fill-rule="evenodd" clip-rule="evenodd" d="M349.465 270.241L351.142 272.339L338.395 281.942L335.232 278.231L349.465 270.241Z" fill="#D4D4D4"/>
<path fill-rule="evenodd" clip-rule="evenodd" d="M219.086 417.276L212.843 423.788C212.843 423.788 197.968 410.323 197.968 410.072C197.968 409.815 203.262 402.75 203.262 402.75L219.086 417.276Z" fill="#3D436B"/>
<path fill-rule="evenodd" clip-rule="evenodd" d="M228.643 467.209C228.643 467.209 235.281 474.42 237.634 475.007C239.987 475.601 251.945 480.364 257.071 480.529C262.198 480.7 266.628 482.29 265.619 487.423C264.611 492.555 223.767 490.405 223.767 490.405C223.767 490.405 221.75 488.307 220.827 488.643C219.902 488.98 219.23 490.708 219.23 490.708L202.575 490.438C202.575 490.438 201.692 476.485 206.062 469.756C206.062 469.756 222.256 467.045 223.515 466.365C224.776 465.699 228.643 467.209 228.643 467.209Z" fill="#4D5485"/>
<path fill-rule="evenodd" clip-rule="evenodd" d="M298.815 72.9637C296.25 73.5218 294.019 74.3313 292.081 75.311C290.247 75.3387 279.328 75.7417 279.02 81.3684C278.606 88.9398 280.878 110.76 280.913 112.948C280.919 113.239 281.142 112.782 281.495 111.776C284.869 105.963 295.453 102.521 295.453 102.521H300.271C299.935 97.6948 302.4 94.4365 302.4 94.4365C309.123 91.6281 326.539 93.1969 326.539 93.1969C334.093 70.7458 312.284 70.034 298.815 72.9637Z" fill="#622B1A"/>
<path fill-rule="evenodd" clip-rule="evenodd" d="M296.255 96.7975C295.923 94.691 290.187 92.421 288.842 97.5825C287.498 102.744 292.652 109.701 295.117 108.241C297.581 106.783 296.607 99.0398 296.255 96.7975Z" fill="#EEA886"/>
<path fill-rule="evenodd" clip-rule="evenodd" d="M218.594 489.468L213.232 468.773L214.792 468.364L220.155 489.065L218.594 489.468Z" fill="#73A5F5"/>
<path fill-rule="evenodd" clip-rule="evenodd" d="M209.076 470.112L156.456 275.994L160.899 274.789L213.519 468.905L209.076 470.112Z" fill="#353A3D"/>
<path fill-rule="evenodd" clip-rule="evenodd" d="M212.145 472.025L86.4885 447.048L170.869 319.356H326.59V323.961H173.345L94.1089 443.869L210.448 466.991L328.595 333.276L331.34 337.128L212.145 472.025Z" fill="#353A3D"/>
<path fill-rule="evenodd" clip-rule="evenodd" d="M212.35 449.661C203.072 449.661 194.798 456.285 193.045 465.725C191.068 476.379 198.124 486.651 208.775 488.63C219.421 490.609 229.695 483.55 231.673 472.896C232.631 467.737 231.521 462.512 228.55 458.185C225.579 453.863 221.102 450.954 215.943 449.998C214.739 449.773 213.535 449.661 212.35 449.661ZM212.37 494.719C210.837 494.719 209.284 494.58 207.725 494.29C193.955 491.731 184.831 478.451 187.386 464.676C189.942 450.908 203.221 441.778 216.993 444.337C223.664 445.578 229.453 449.338 233.293 454.926C237.135 460.52 238.57 467.275 237.331 473.951C235.065 486.163 224.364 494.719 212.37 494.719Z" fill="#5B83C2"/>
<path fill-rule="evenodd" clip-rule="evenodd" d="M143.886 263.481C143.886 263.481 142.881 278.152 156.545 279.759C170.208 281.368 194.723 279.759 194.723 279.759C194.723 279.759 159.76 255.441 143.886 263.481Z" fill="#857E83"/>
<path fill-rule="evenodd" clip-rule="evenodd" d="M361.631 360.66C314.293 360.66 275.781 399.181 275.781 446.521C275.781 493.868 314.293 532.388 361.631 532.388C408.968 532.388 447.481 493.868 447.481 446.521C447.481 399.181 408.968 360.66 361.631 360.66ZM361.631 536.993C349.421 536.993 337.575 534.598 326.422 529.881C315.65 525.323 305.977 518.798 297.671 510.493C289.364 502.187 282.842 492.509 278.286 481.736C273.569 470.587 271.178 458.732 271.178 446.521C271.178 434.31 273.569 422.462 278.286 411.306C282.842 400.533 289.364 390.862 297.671 382.549C305.977 374.244 315.65 367.719 326.422 363.167C337.575 358.444 349.421 356.056 361.631 356.056C373.842 356.056 385.688 358.444 396.84 363.167C407.613 367.719 417.285 374.244 425.592 382.549C433.898 390.862 440.42 400.533 444.976 411.306C449.694 422.462 452.085 434.31 452.085 446.521C452.085 458.732 449.694 470.587 444.976 481.736C440.42 492.509 433.898 502.187 425.592 510.493C417.285 518.798 407.613 525.323 396.84 529.881C385.688 534.598 373.842 536.993 361.631 536.993Z" fill="#353A3D"/>
<path fill-rule="evenodd" clip-rule="evenodd" d="M361.631 365.364C316.888 365.364 280.485 401.773 280.485 446.521C280.485 491.275 316.888 527.684 361.631 527.684C406.376 527.684 442.776 491.275 442.776 446.521C442.776 401.773 406.376 365.364 361.631 365.364ZM361.631 532.283C350.056 532.283 338.826 530.02 328.252 525.547C318.041 521.226 308.871 515.045 300.997 507.168C293.123 499.291 286.94 490.121 282.621 479.909C278.149 469.334 275.882 458.099 275.882 446.521C275.882 434.943 278.149 423.715 282.621 413.14C286.94 402.928 293.123 393.758 300.997 385.881C308.871 378.004 318.041 371.823 328.252 367.501C338.826 363.029 350.056 360.759 361.631 360.759C373.206 360.759 384.437 363.029 395.009 367.501C405.221 371.823 414.391 378.004 422.265 385.881C430.14 393.758 436.322 402.928 440.642 413.14C445.113 423.715 447.381 434.943 447.381 446.521C447.381 458.099 445.113 469.334 440.642 479.909C436.322 490.121 430.14 499.291 422.265 507.168C414.391 515.045 405.221 521.226 395.009 525.547C384.437 530.02 373.206 532.283 361.631 532.283Z" fill="#73A5F5"/>
<path fill-rule="evenodd" clip-rule="evenodd" d="M90.2983 360.66C42.9613 360.66 4.44852 399.181 4.44852 446.521C4.44852 493.868 42.9613 532.388 90.2983 532.388C137.636 532.388 176.149 493.868 176.149 446.521C176.149 399.181 137.636 360.66 90.2983 360.66ZM90.2983 536.993C78.0884 536.993 66.2427 534.598 55.0894 529.881C44.3168 525.323 34.6438 518.798 26.3387 510.493C18.0317 502.187 11.5096 492.509 6.95369 481.736C2.23687 470.587 -0.155502 458.732 -0.155502 446.521C-0.155502 434.31 2.23687 422.462 6.95369 411.306C11.5096 400.533 18.0317 390.862 26.3387 382.549C34.6438 374.244 44.3168 367.719 55.0894 363.167C66.2427 358.444 78.0884 356.056 90.2983 356.056C102.509 356.056 114.355 358.444 125.508 363.167C136.28 367.719 145.952 374.244 154.259 382.549C162.566 390.862 169.088 400.533 173.644 411.306C178.36 422.462 180.752 434.31 180.752 446.521C180.752 458.732 178.36 470.587 173.644 481.736C169.088 492.509 162.566 502.187 154.259 510.493C145.952 518.798 136.28 525.323 125.508 529.881C114.355 534.598 102.509 536.993 90.2983 536.993Z" fill="#353A3D"/>
<path fill-rule="evenodd" clip-rule="evenodd" d="M90.2983 365.364C45.5542 365.364 9.15346 401.773 9.15346 446.521C9.15346 491.275 45.5542 527.684 90.2983 527.684C135.042 527.684 171.444 491.275 171.444 446.521C171.444 401.773 135.042 365.364 90.2983 365.364ZM90.2983 532.283C78.7243 532.283 67.4933 530.02 56.9205 525.547C46.7085 521.226 37.5388 515.045 29.6644 507.168C21.7901 499.291 15.6077 490.121 11.2879 479.909C6.81715 469.334 4.54878 458.099 4.54878 446.521C4.54878 434.943 6.81715 423.715 11.2879 413.14C15.6077 402.928 21.7901 393.758 29.6644 385.881C37.5388 378.004 46.7085 371.823 56.9205 367.501C67.4933 363.029 78.7243 360.759 90.2983 360.759C101.873 360.759 113.104 363.029 123.677 367.501C133.888 371.823 143.059 378.004 150.933 385.881C158.807 393.758 164.99 402.928 169.309 413.14C173.78 423.715 176.048 434.943 176.048 446.521C176.048 458.099 173.78 469.334 169.309 479.909C164.99 490.121 158.807 499.291 150.933 507.168C143.059 515.045 133.888 521.226 123.677 525.547C113.104 530.02 101.873 532.283 90.2983 532.283Z" fill="#73A5F5"/>
<path fill-rule="evenodd" clip-rule="evenodd" d="M226.037 238.903C226.037 238.903 265.031 269.198 273.435 276.771C281.839 284.345 300.496 298.652 300.832 301.682C301.168 304.711 306.21 312.792 297.47 326.759C288.73 340.731 243.685 392.735 240.827 397.109C237.97 401.49 222.508 420.001 222.508 420.001L200.321 402.328C200.321 402.328 245.772 339.715 251.452 332.986C257.131 326.258 260.662 318.011 258.139 314.475C255.618 310.939 237.467 307.235 180.992 276.099C175.349 272.988 154.099 267.683 154.939 259.436C155.78 251.19 154.772 223.924 171.579 217.696C188.388 211.47 226.037 238.903 226.037 238.903Z" fill="#323657"/>
<path fill-rule="evenodd" clip-rule="evenodd" d="M96.366 446.521C96.366 449.872 93.6491 452.59 90.2983 452.59C86.9476 452.59 84.2313 449.872 84.2313 446.521C84.2313 443.17 86.9476 440.452 90.2983 440.452C93.6491 440.452 96.366 443.17 96.366 446.521Z" fill="#5B83C2"/>
<path fill-rule="evenodd" clip-rule="evenodd" d="M210.237 469.076L203.661 444.417L205.217 444.001L211.795 468.661L210.237 469.076Z" fill="#73A5F5"/>
<path fill-rule="evenodd" clip-rule="evenodd" d="M216.946 456.45L193.022 437.226L195.233 434.468L219.157 453.699L216.946 456.45Z" fill="#73A5F5"/>
<path fill-rule="evenodd" clip-rule="evenodd" d="M197.968 410.072C197.968 410.072 210.826 418.82 211.834 420.001C212.843 421.175 214.982 421.558 214.982 421.558C214.982 421.558 216.078 427.911 216.582 429.507C217.087 431.11 227.717 446.006 229.146 446.422C230.574 446.844 240.463 452.848 238.559 456.667C236.654 460.48 227.773 457.644 222.171 454.952C216.568 452.26 197.575 437.45 195.866 434.864L195.166 432.845C195.166 432.845 192.813 432.621 191.917 432.509C191.021 432.397 183.513 425.668 183.513 425.668C183.513 425.668 191.341 414.407 197.968 410.072Z" fill="#545C91"/>
<path fill-rule="evenodd" clip-rule="evenodd" d="M216.314 470.046C215.908 472.23 213.809 473.674 211.625 473.272C209.44 472.863 207.998 470.765 208.403 468.582C208.809 466.391 210.908 464.953 213.093 465.356C215.277 465.758 216.72 467.862 216.314 470.046Z" fill="#5B83C2"/>
<path fill-rule="evenodd" clip-rule="evenodd" d="M359.411 447.128L320.419 304.039L324.861 302.829L363.852 445.914L359.411 447.128Z" fill="#353A3D"/>
<path fill-rule="evenodd" clip-rule="evenodd" d="M318.48 306.816H326.8V302.513H318.48V306.816Z" fill="#353A3D"/>
<path fill-rule="evenodd" clip-rule="evenodd" d="M367.698 446.521C367.698 449.872 364.982 452.59 361.631 452.59C358.281 452.59 355.564 449.872 355.564 446.521C355.564 443.17 358.281 440.452 361.631 440.452C364.982 440.452 367.698 443.17 367.698 446.521Z" fill="#5B83C2"/>
<path fill-rule="evenodd" clip-rule="evenodd" d="M272.08 120.612C272.08 120.612 242.075 116.949 206.089 165.781C170.104 214.615 183.513 201.877 151.001 234.621L228.749 241.093C228.749 241.093 253.801 199.874 270.139 193.293C286.476 186.71 284.696 152.562 284.696 152.562L272.08 120.612Z" fill="#D4D4D4"/>
<path fill-rule="evenodd" clip-rule="evenodd" d="M251.153 163.28C239.805 163.282 227.177 157.401 219.188 148.079L224.071 143.892C231.602 152.68 244.388 158.029 254.498 156.623C261.046 155.708 265.773 152.185 268.546 146.149C270.781 141.288 271.083 137.062 269.444 133.588C266.396 127.125 254.482 123.82 254.393 123.796L257.977 118.033C258.455 118.156 270.876 121.614 275.241 130.799C277.75 136.083 277.464 142.153 274.39 148.838C270.693 156.879 264.123 161.774 255.388 162.995C254.005 163.187 252.588 163.28 251.153 163.28Z" fill="#323657"/>
<path fill-rule="evenodd" clip-rule="evenodd" d="M276.692 140.326C276.692 140.326 281.606 152.672 284.192 161.314C286.691 169.663 297.47 195.648 298.479 197.668C299.487 199.688 315.791 225.942 317.639 228.972C319.488 232.001 349.406 269.366 350.078 269.534C350.751 269.702 336.128 280.475 336.128 280.475C336.128 280.475 299.487 236.715 297.302 232.676C295.117 228.635 271.082 199.182 267.72 193.292C264.359 187.401 246.759 159.66 245.03 154.918C243.097 149.616 237.214 136.321 253.602 128.662C267.597 122.122 274.424 136.288 276.692 140.326Z" fill="#D4D4D4"/>
</g>
<defs>
<clipPath id="clip0">
<rect width="1027" height="537" fill="white" transform="translate(-0.000488281 0.00927734)"/>
</clipPath>
</defs>
</svg>
