<svg width="1920" height="743" viewBox="0 0 1920 743" fill="none" xmlns="http://www.w3.org/2000/svg">
<path fill-rule="evenodd" clip-rule="evenodd" d="M2229.77 742.416V604.096H2179.8V485.535H2100.63V582.538H2053.85V338.24H1863.15V562.778H1841.55V540.322H1785.79V512.486H1677.84V540.322H1638.26V559.183H1582.49V402.913H1496.12V358H1348.59V602.298H1332.41V540.322H1262.24V514.27H1235.26V485.535H1183.07V208.908H1082.32V185.552H1048.13V216.098H999.563V257.415H940.201V232.263H909.608V248.428H864.637V162.21H688.316V228.668H664.924V81.3724H648.746V56.2198H630.742V0.534668H558.766V65.2075H537.187V201.73L528.198 210.705V286.15H513.795V393.925H476.026V120.893H456.235V93.9423H413.038V115.5H350.077V252.023H337.474V212.503H179.157V250.225H161.178V589.715H139.587V638.223H121.583V550.208H108.993V481.94H94.6029V456.801H65.8097V478.358H44.2311V600.501H15.4379V487.333H-9.75452V458.598H-31.3329V478.358H-99.7089V447.813H-121.287V478.358H-153.682V577.146H-214.856V516.081H-337.179V553.803H-362.371V528.651H-441.549V510.688H-491.921V625.653H-513.5V602.298H-535.092V575.348H-655.639V618.463H-688.02V652.591H-720.401V640.021H-792.365V742.416H2229.77Z" fill="url(#paint0_linear)" fill-opacity="0.17"/>
<defs>
<linearGradient id="paint0_linear" x1="735.565" y1="-44.4066" x2="735.565" y2="742.405" gradientUnits="userSpaceOnUse">
<stop/>
<stop offset="1" stop-opacity="0"/>
</linearGradient>
</defs>
</svg>
