<svg width="218" height="69" viewBox="0 0 218 69" fill="none" xmlns="http://www.w3.org/2000/svg">
<path fill-rule="evenodd" clip-rule="evenodd" d="M65.5547 6.46645C65.5817 6.48309 65.6396 6.51162 65.7297 6.55324C65.8198 6.59485 65.9331 6.63646 66.0682 6.67807C66.2033 6.71968 66.3591 6.75773 66.5341 6.79102C66.7104 6.82431 66.8919 6.84095 67.0811 6.84095C67.3604 6.84095 67.5856 6.79934 67.7568 6.71612C67.9279 6.63289 68.0592 6.49736 68.1493 6.3107C68.2394 6.12285 68.2973 5.88151 68.3243 5.58666C68.3514 5.29062 68.3655 4.93038 68.3655 4.50594V0H71V4.50594C71 5.18005 70.9601 5.79472 70.879 6.34756C70.7979 6.90159 70.6216 7.37358 70.3514 7.76473C70.0811 8.15588 69.6873 8.45905 69.1699 8.67543C68.6512 8.89181 67.955 9 67.0811 9C66.2703 9 65.5766 8.81691 65 8.45073L65.5547 6.46645Z" fill="#4D4D4D"/>
<path fill-rule="evenodd" clip-rule="evenodd" d="M81.481 9C80.8069 9 80.1958 8.87024 79.6465 8.61191C79.0972 8.35357 78.6264 8.01429 78.2353 7.59405C77.8441 7.17262 77.541 6.69167 77.3246 6.15C77.1082 5.60833 77 5.05 77 4.475C77 3.89167 77.1118 3.32857 77.3365 2.7869C77.5612 2.24524 77.8762 1.76905 78.2793 1.35595C78.6835 0.944048 79.1614 0.614286 79.7155 0.369048C80.2683 0.122619 80.8734 0 81.5309 0C82.205 0 82.8173 0.128571 83.3666 0.386905C83.9159 0.645238 84.3855 0.986905 84.7766 1.4119C85.1678 1.8369 85.4697 2.32024 85.6826 2.8619C85.8942 3.40357 86 3.95833 86 4.525C86 5.10833 85.8882 5.66905 85.6635 6.20595C85.4388 6.74405 85.1262 7.21905 84.7267 7.63095C84.3272 8.04405 83.8517 8.375 83.2976 8.625C82.7448 8.875 82.1396 9 81.481 9ZM79.4717 4.5002C79.4717 4.8002 79.5134 5.08949 79.5966 5.36925C79.6798 5.64782 79.8046 5.89544 79.9711 6.11211C80.1375 6.32878 80.348 6.50378 80.6012 6.63711C80.8556 6.77044 81.1564 6.83711 81.506 6.83711C81.8555 6.83711 82.1599 6.76925 82.4178 6.63116C82.6758 6.49425 82.8863 6.31449 83.048 6.09425C83.2108 5.87282 83.3309 5.62044 83.4106 5.33711C83.489 5.05378 83.5283 4.76687 83.5283 4.4752C83.5283 4.1752 83.4867 3.88592 83.4034 3.60616C83.3214 3.32759 83.1942 3.08116 83.023 2.86925C82.853 2.65616 82.6402 2.48592 82.3869 2.35616C82.1325 2.22759 81.8353 2.16211 81.4941 2.16211C81.1445 2.16211 80.8425 2.22878 80.5893 2.36211C80.3349 2.49544 80.1244 2.67282 79.9592 2.89425C79.7916 3.11449 79.6691 3.36449 79.5906 3.64425C79.511 3.92282 79.4717 4.20854 79.4717 4.5002Z" fill="#4D4D4D"/>
<path fill-rule="evenodd" clip-rule="evenodd" d="M98.605 3.28297C98.3287 3.11745 98.0431 2.97031 97.7483 2.84157C97.4996 2.73121 97.2206 2.62743 96.9127 2.53153C96.6034 2.43431 96.302 2.38571 96.0072 2.38571C95.7677 2.38571 95.5769 2.42249 95.4335 2.49606C95.2913 2.56963 95.219 2.69443 95.219 2.86915C95.219 2.9979 95.2611 3.103 95.344 3.18576C95.4269 3.26852 95.5466 3.34472 95.7032 3.41435C95.8598 3.48266 96.0507 3.54966 96.277 3.61403C96.5021 3.6784 96.7574 3.75591 97.0429 3.84787C97.4943 3.98581 97.9023 4.1382 98.2668 4.30373C98.63 4.46926 98.9406 4.665 99.1986 4.88965C99.4565 5.11561 99.6552 5.38886 99.7934 5.71072C99.9316 6.03258 100 6.42275 100 6.88255C100 7.4711 99.8921 7.96637 99.6763 8.36574C99.4591 8.76642 99.1735 9.08565 98.8195 9.32475C98.4642 9.56385 98.0642 9.73594 97.6167 9.84235C97.1706 9.94745 96.7205 10 96.2691 10C95.9099 10 95.5414 9.97241 95.1637 9.91724C94.786 9.86206 94.4109 9.78455 94.0385 9.68339C93.6647 9.58224 93.3055 9.46269 92.9607 9.32475C92.6146 9.18681 92.2948 9.03048 92 8.85575L93.1607 6.49632C93.4831 6.69863 93.8187 6.87861 94.1688 7.03495C94.4636 7.17288 94.7978 7.29637 95.1716 7.40673C95.544 7.51708 95.9243 7.57225 96.3112 7.57225C96.606 7.57225 96.8113 7.53416 96.9258 7.45533C97.0416 7.37782 97.0982 7.27404 97.0982 7.1453C97.0982 7.00736 97.0416 6.89044 96.9258 6.79322C96.8113 6.69732 96.6521 6.61193 96.4494 6.53836C96.2468 6.46479 96.0138 6.39122 95.7519 6.31766C95.4887 6.24409 95.2097 6.15607 94.915 6.05491C94.482 5.90778 94.1096 5.75013 93.7963 5.57935C93.4831 5.40988 93.2252 5.21676 93.0225 5C92.8199 4.78455 92.6698 4.53757 92.5738 4.26169C92.4764 3.98581 92.4277 3.66921 92.4277 3.31056C92.4277 2.768 92.5277 2.28981 92.7251 1.87599C92.9238 1.46216 93.1923 1.11666 93.5331 0.840778C93.874 0.564898 94.2635 0.356017 94.7018 0.214136C95.1387 0.0709406 95.6019 0 96.0901 0C96.4494 0 96.7995 0.0341566 97.1403 0.103784C97.4812 0.172097 97.8102 0.260116 98.1286 0.365213C98.4458 0.471624 98.7432 0.585917 99.0196 0.71072C99.2959 0.834209 99.5447 0.95113 99.7658 1.06148L98.605 3.28297Z" fill="#4D4D4D"/>
<path fill-rule="evenodd" clip-rule="evenodd" d="M114 0V9H111.517V5.47606H108.485V9H106V0H108.485V3.32113H111.517V0H114Z" fill="#4D4D4D"/>
<path fill-rule="evenodd" clip-rule="evenodd" d="M124.993 6.82482C125.276 6.82482 125.518 6.76257 125.717 6.63687C125.917 6.51117 126.08 6.34597 126.205 6.14006C126.329 5.93536 126.421 5.69832 126.479 5.43017C126.537 5.16201 126.566 4.88069 126.566 4.58739V0H129V4.58739C129 5.2075 128.92 5.78811 128.762 6.32921C128.604 6.86911 128.359 7.33599 128.027 7.72985C127.694 8.1237 127.275 8.43376 126.773 8.66002C126.269 8.88627 125.676 9 124.993 9C124.286 9 123.681 8.88029 123.179 8.64206C122.675 8.40263 122.261 8.0818 121.937 7.67957C121.612 7.27733 121.374 6.81045 121.225 6.27893C121.075 5.74621 121 5.18236 121 4.58739V0H123.434V4.58739C123.434 4.88069 123.463 5.16441 123.521 5.43615C123.579 5.7091 123.671 5.94733 123.795 6.15323C123.92 6.35794 124.081 6.52195 124.277 6.64286C124.472 6.76496 124.711 6.82482 124.993 6.82482Z" fill="#4D4D4D"/>
<path fill-rule="evenodd" clip-rule="evenodd" d="M138.313 0H140.7L144 9H141.344L140.768 7.23742H138.232L137.669 9H135L138.313 0ZM140.351 5.58951L139.507 2.80078L138.622 5.58951H140.351Z" fill="#4D4D4D"/>
<path fill-rule="evenodd" clip-rule="evenodd" d="M73.3367 34V29.2592L71.7104 32.5924H70.2896L68.6646 29.2592V34H66V25H68.9105L71 29.2338L73.1038 25H76V34H73.3367Z" fill="#4D4D4D"/>
<path fill-rule="evenodd" clip-rule="evenodd" d="M82 34H85V25H82V34Z" fill="#4D4D4D"/>
<path fill-rule="evenodd" clip-rule="evenodd" d="M92 34V25H94.6398V31.8451H99V34H92Z" fill="#4D4D4D"/>
<path fill-rule="evenodd" clip-rule="evenodd" d="M105 34V25H107.641V31.8451H112V34H105Z" fill="#4D4D4D"/>
<path fill-rule="evenodd" clip-rule="evenodd" d="M124 31.8451V34H117V25H123.876V27.1549H119.698V28.4225H123.267V30.4254H119.698V31.8451H124Z" fill="#4D4D4D"/>
<path fill-rule="evenodd" clip-rule="evenodd" d="M130 34V25H134.254C134.707 25 135.124 25.0905 135.507 25.2728C135.89 25.4539 136.219 25.6905 136.492 25.9827C136.767 26.2736 136.982 26.608 137.139 26.9835C137.295 27.3602 137.374 27.738 137.374 28.1183C137.374 28.6423 137.256 29.13 137.021 29.5827C136.786 30.0342 136.46 30.4036 136.043 30.6909L138 34H135.129L133.497 31.2366H132.545V34H130ZM132.545 29.0815H134.15C134.306 29.0815 134.453 28.997 134.587 28.828C134.723 28.659 134.79 28.4224 134.79 28.1182C134.79 27.8055 134.712 27.5665 134.555 27.4023C134.398 27.2369 134.242 27.1548 134.085 27.1548H132.545V29.0815Z" fill="#4D4D4D"/>
<path fill-rule="evenodd" clip-rule="evenodd" d="M66 59V50H69.9299C70.3752 50 70.7861 50.0905 71.1629 50.2728C71.5396 50.4539 71.8637 50.6905 72.1328 50.9827C72.4031 51.2736 72.6147 51.608 72.7688 51.9835C72.9229 52.3602 73 52.738 73 53.1183C73 53.5155 72.9266 53.9018 72.7811 54.2785C72.6355 54.6539 72.4325 54.9883 72.1719 55.2793C71.9102 55.5714 71.5934 55.8032 71.2216 55.9771C70.8485 56.1497 70.44 56.2366 69.9948 56.2366H68.505V59H66ZM68.505 54.0815H69.8272C69.9813 54.0815 70.1257 54.0115 70.2578 53.8727C70.3911 53.7327 70.4571 53.4815 70.4571 53.1182C70.4571 52.7463 70.3801 52.4928 70.226 52.3576C70.0718 52.2224 69.9177 52.1548 69.7636 52.1548H68.505V54.0815Z" fill="#4D4D4D"/>
<path fill-rule="evenodd" clip-rule="evenodd" d="M88 50V59H85.5153V55.4761H82.4835V59H80V50H82.4835V53.3211H85.5153V50H88Z" fill="#4D4D4D"/>
<path fill-rule="evenodd" clip-rule="evenodd" d="M98.4816 59C97.8076 59 97.1954 58.8702 96.6461 58.6119C96.0969 58.3536 95.6274 58.0143 95.2363 57.594C94.8452 57.1726 94.5409 56.6917 94.3245 56.15C94.1082 55.6083 94 55.05 94 54.475C94 53.8917 94.1129 53.3286 94.3376 52.7869C94.5623 52.2452 94.8761 51.769 95.2803 51.356C95.6833 50.944 96.1623 50.6143 96.7151 50.369C97.2691 50.1226 97.8741 50 98.5315 50C99.2055 50 99.8165 50.1286 100.366 50.3869C100.915 50.6452 101.386 50.9869 101.777 51.4119C102.168 51.8369 102.47 52.3202 102.681 52.8619C102.894 53.4036 103 53.9583 103 54.525C103 55.1083 102.887 55.669 102.662 56.206C102.438 56.744 102.126 57.219 101.727 57.631C101.327 58.044 100.851 58.375 100.298 58.625C99.744 58.875 99.139 59 98.4816 59ZM96.4714 54.5002C96.4714 54.8002 96.513 55.0895 96.5962 55.3693C96.6794 55.6478 96.8042 55.8954 96.9706 56.1121C97.1371 56.3288 97.3475 56.5038 97.6019 56.6371C97.8551 56.7704 98.157 56.8371 98.5065 56.8371C98.856 56.8371 99.1591 56.7693 99.4171 56.6312C99.675 56.4943 99.8855 56.3145 100.048 56.0943C100.21 55.8728 100.331 55.6204 100.41 55.3371C100.489 55.0538 100.529 54.7669 100.529 54.4752C100.529 54.1752 100.487 53.8859 100.404 53.6062C100.321 53.3276 100.193 53.0812 100.023 52.8693C99.8522 52.6562 99.6406 52.4859 99.3862 52.3562C99.133 52.2276 98.8346 52.1621 98.4934 52.1621C98.1439 52.1621 97.8432 52.2288 97.5888 52.3621C97.3356 52.4954 97.1252 52.6728 96.9588 52.8943C96.7923 53.1145 96.6699 53.3645 96.5902 53.6443C96.5118 53.9228 96.4714 54.2085 96.4714 54.5002Z" fill="#4D4D4D"/>
<path fill-rule="evenodd" clip-rule="evenodd" d="M117 52.1549H114.298V59H111.716V52.1549H109V50H117V52.1549Z" fill="#4D4D4D"/>
<path fill-rule="evenodd" clip-rule="evenodd" d="M126.481 59C125.807 59 125.196 58.8702 124.646 58.6119C124.097 58.3536 123.626 58.0143 123.235 57.594C122.844 57.1726 122.541 56.6917 122.325 56.15C122.108 55.6083 122 55.05 122 54.475C122 53.8917 122.112 53.3286 122.336 52.7869C122.561 52.2452 122.875 51.769 123.279 51.356C123.682 50.944 124.161 50.6143 124.714 50.369C125.268 50.1226 125.873 50 126.531 50C127.205 50 127.817 50.1286 128.367 50.3869C128.916 50.6452 129.385 50.9869 129.777 51.4119C130.168 51.8369 130.47 52.3202 130.681 52.8619C130.894 53.4036 131 53.9583 131 54.525C131 55.1083 130.888 55.669 130.664 56.206C130.439 56.744 130.126 57.219 129.727 57.631C129.327 58.044 128.85 58.375 128.298 58.625C127.744 58.875 127.138 59 126.481 59ZM124.472 54.5002C124.472 54.8002 124.513 55.0895 124.597 55.3693C124.68 55.6478 124.805 55.8954 124.971 56.1121C125.138 56.3288 125.347 56.5038 125.601 56.6371C125.854 56.7704 126.156 56.8371 126.506 56.8371C126.855 56.8371 127.16 56.7693 127.418 56.6312C127.676 56.4943 127.885 56.3145 128.048 56.0943C128.21 55.8728 128.331 55.6204 128.409 55.3371C128.489 55.0538 128.528 54.7669 128.528 54.4752C128.528 54.1752 128.487 53.8859 128.403 53.6062C128.32 53.3276 128.193 53.0812 128.023 52.8693C127.852 52.6562 127.64 52.4859 127.386 52.3562C127.133 52.2276 126.835 52.1621 126.494 52.1621C126.145 52.1621 125.843 52.2288 125.588 52.3621C125.335 52.4954 125.124 52.6728 124.958 52.8943C124.792 53.1145 124.669 53.3645 124.589 53.6443C124.511 53.9228 124.472 54.2085 124.472 54.5002Z" fill="#4D4D4D"/>
<path fill-rule="evenodd" clip-rule="evenodd" d="M143.872 58.2C143.202 58.7333 142.432 59 141.56 59C140.952 59 140.37 58.8988 139.815 58.694C139.26 58.4905 138.776 58.1917 138.362 57.8C137.948 57.4083 137.617 56.9298 137.37 56.3631C137.123 55.7964 137 55.15 137 54.425C137 53.8 137.123 53.219 137.37 52.6821C137.617 52.144 137.957 51.6774 138.388 51.2821C138.82 50.8857 139.328 50.5738 139.915 50.344C140.5 50.1155 141.132 50 141.81 50C142.233 50 142.638 50.044 143.026 50.1321C143.414 50.219 143.774 50.3488 144.103 50.519C144.434 50.6905 144.731 50.894 144.996 51.1321C145.26 51.369 145.475 51.6381 145.643 51.9381L143.727 53.325C143.542 52.975 143.264 52.694 142.894 52.4821C142.524 52.269 142.132 52.1631 141.718 52.1631C141.41 52.1631 141.128 52.2214 140.873 52.3381C140.617 52.4548 140.397 52.6167 140.212 52.825C140.027 53.0333 139.881 53.2821 139.775 53.569C139.669 53.8571 139.617 54.1714 139.617 54.5131C139.617 54.8631 139.669 55.1798 139.775 55.4631C139.881 55.7464 140.029 55.9905 140.218 56.194C140.408 56.3988 140.635 56.5571 140.899 56.669C141.163 56.7821 141.458 56.8381 141.784 56.8381C142.533 56.8381 143.193 56.5464 143.766 55.9631H142.141V54.2131H146V58.9381H143.872V58.2Z" fill="#4D4D4D"/>
<path fill-rule="evenodd" clip-rule="evenodd" d="M153 59V50H157.255C157.707 50 158.125 50.0905 158.508 50.2728C158.891 50.4539 159.219 50.6905 159.493 50.9827C159.767 51.2736 159.982 51.608 160.139 51.9835C160.295 52.3602 160.374 52.738 160.374 53.1183C160.374 53.6423 160.257 54.13 160.022 54.5827C159.787 55.0342 159.46 55.4036 159.042 55.6909L161 59H158.129L156.498 56.2366H155.544V59H153ZM155.544 54.0815H157.15C157.307 54.0815 157.452 53.997 157.588 53.828C157.722 53.659 157.789 53.4224 157.789 53.1182C157.789 52.8055 157.711 52.5665 157.554 52.4023C157.398 52.2369 157.241 52.1548 157.085 52.1548H155.544V54.0815Z" fill="#4D4D4D"/>
<path fill-rule="evenodd" clip-rule="evenodd" d="M169.313 50H171.7L175 59H172.344L171.768 57.2374H169.232L168.669 59H166L169.313 50ZM171.351 55.5895L170.507 52.8008L169.622 55.5895H171.351Z" fill="#4D4D4D"/>
<path fill-rule="evenodd" clip-rule="evenodd" d="M181 59V50H184.931C185.376 50 185.787 50.0905 186.164 50.2728C186.541 50.4539 186.864 50.6905 187.133 50.9827C187.403 51.2736 187.615 51.608 187.769 51.9835C187.923 52.3602 188 52.738 188 53.1183C188 53.5155 187.928 53.9018 187.782 54.2785C187.637 54.6539 187.432 54.9883 187.172 55.2793C186.91 55.5714 186.593 55.8032 186.221 55.9771C185.848 56.1497 185.44 56.2366 184.994 56.2366H183.504V59H181ZM183.504 54.0815H184.828C184.982 54.0815 185.125 54.0115 185.257 53.8727C185.391 53.7327 185.457 53.4815 185.457 53.1182C185.457 52.7463 185.38 52.4928 185.225 52.3576C185.071 52.2224 184.917 52.1548 184.763 52.1548H183.504V54.0815Z" fill="#4D4D4D"/>
<path fill-rule="evenodd" clip-rule="evenodd" d="M202 50V59H199.517V55.4761H196.485V59H194V50H196.485V53.3211H199.517V50H202Z" fill="#4D4D4D"/>
<path fill-rule="evenodd" clip-rule="evenodd" d="M210.793 50L212.474 53.8909L214.194 50H217L213.758 56.0205V59H211.19V55.9952L208 50H210.793Z" fill="#4D4D4D"/>
<path fill-rule="evenodd" clip-rule="evenodd" d="M65 19H143V16H65V19Z" fill="#4D4D4D"/>
<path fill-rule="evenodd" clip-rule="evenodd" d="M65 44H140V41H65V44Z" fill="#4D4D4D"/>
<path fill-rule="evenodd" clip-rule="evenodd" d="M65 69H218V66H65V69Z" fill="#4D4D4D"/>
<path fill-rule="evenodd" clip-rule="evenodd" d="M0 28H56V25H0V28Z" fill="#4D4D4D"/>
<path fill-rule="evenodd" clip-rule="evenodd" d="M0 35H56V32H0V35Z" fill="#4D4D4D"/>
<path fill-rule="evenodd" clip-rule="evenodd" d="M0 41.1H52.8889V69H56V38H0V41.1Z" fill="#4D4D4D"/>
<path fill-rule="evenodd" clip-rule="evenodd" d="M46.1191 14.9849L43.5556 13.6234L40.992 14.9849L41.4823 12.101L39.4078 10.0594L42.2738 9.63831L43.5556 7.01465L44.8373 9.63831L47.7033 10.0594L45.6301 12.101L46.1191 14.9849ZM31.1111 0H0V3.14286H31.1111V6.28571H0V9.42857H31.1111V12.5714H0V15.7143H31.1111V18.8571H0V22H56V0H31.1111Z" fill="#4D4D4D"/>
</svg>
