<svg width="145" height="145" viewBox="0 0 145 145" fill="none" xmlns="http://www.w3.org/2000/svg">
<path fill-rule="evenodd" clip-rule="evenodd" d="M145 72.5C145 112.541 112.541 145 72.5 145C32.459 145 0 112.541 0 72.5C0 32.459 32.459 0 72.5 0C112.541 0 145 32.459 145 72.5Z" fill="#4D4D4D"/>
<path fill-rule="evenodd" clip-rule="evenodd" d="M49.25 69.8841L40.142 50.2601V69.8841H35.386V37.4561H39.383L48.491 57.0801V37.4561H53.298V69.8841H49.25Z" fill="#FFFFFE"/>
<path fill-rule="evenodd" clip-rule="evenodd" d="M71.0871 37.5V41.636H60.4111V51.624H71.0871V55.76H60.4111V65.792H71.0871V69.928H55.6541V37.5H71.0871Z" fill="#FFFFFE"/>
<path fill-rule="evenodd" clip-rule="evenodd" d="M97.731 58.18L102.994 37.5H107.902L99.654 69.928H95.808L90.597 49.204L85.334 69.928H81.489L73.241 37.5H78.149L83.411 58.18L88.674 37.5H92.519L97.731 58.18Z" fill="#FFFFFE"/>
<path fill-rule="evenodd" clip-rule="evenodd" d="M40.952 86.8678L48.542 74.9878H54.007L43.33 91.7078V107.416H38.574V91.7078L27.948 74.9878H33.412L40.952 86.8678Z" fill="#FFFFFE"/>
<path fill-rule="evenodd" clip-rule="evenodd" d="M53.833 84.1838C53.833 81.3238 54.541 79.0798 55.958 77.4958C56.514 76.9238 57.273 76.3078 58.387 75.7798C59.5 75.2958 60.866 74.9438 62.688 74.9438C66.331 74.9438 68.355 76.3078 69.417 77.4958C70.834 79.0798 71.543 81.3238 71.543 84.1838V98.1318C71.543 100.992 70.834 103.236 69.417 104.82C68.355 106.008 66.331 107.372 62.688 107.372C59.095 107.372 57.02 106.008 55.958 104.82C54.541 103.236 53.833 100.992 53.833 98.1318V84.1838ZM58.589 98.132C58.589 100.728 59.247 101.96 60.107 102.576C60.967 103.192 61.929 103.236 62.688 103.236C63.345 103.236 64.408 103.192 65.268 102.576C66.128 101.96 66.786 100.728 66.786 98.132V84.184C66.786 81.676 66.128 80.356 65.268 79.74C64.408 79.124 63.345 79.124 62.688 79.124C61.929 79.124 60.967 79.124 60.107 79.74C59.247 80.356 58.589 81.676 58.589 84.184V98.132Z" fill="#FFFFFE"/>
<path fill-rule="evenodd" clip-rule="evenodd" d="M90.394 107.372H85.587V97.7798C85.587 94.9198 84.019 93.5118 80.831 93.5118H77.845V107.372H73.089V74.9438H80.831C87.257 74.9438 90.293 78.1558 90.293 84.1838C90.293 87.1758 89.534 89.4638 88.067 91.0038C88.016 91.0478 87.915 91.1358 87.864 91.2238C87.763 91.3118 87.662 91.3998 87.561 91.4438C89.382 92.9838 90.394 95.0958 90.394 97.7798V107.372ZM77.845 89.332H80.831C82.096 89.332 83.007 89.2 83.513 88.936C83.968 88.672 84.272 88.452 84.423 88.32C85.182 87.484 85.537 86.12 85.537 84.184C85.537 82.028 85.132 80.752 84.373 80.004C83.563 79.3 82.399 79.124 80.831 79.124H77.845V89.332Z" fill="#FFFFFE"/>
<path fill-rule="evenodd" clip-rule="evenodd" d="M102.718 90.1238L113.699 107.372H108.234L99.733 94.0838L97.76 96.7678V107.372H93.003V95.6238H92.953L93.003 95.5358V74.9438H97.76V89.1118L108.335 74.9438H114.053L102.718 90.1238Z" fill="#FFFFFE"/>
<path fill-rule="evenodd" clip-rule="evenodd" d="M41.7531 23.3602H42.5101V23.6892C42.5101 23.9902 42.5741 24.2072 42.6951 24.3402C42.7191 24.3752 42.7671 24.4032 42.8401 24.4382C42.9121 24.4732 43.0171 24.4942 43.1701 24.4942C43.4591 24.4942 43.6201 24.3682 43.7171 24.2142C43.8061 24.0602 43.8221 23.8642 43.8221 23.7242C43.8221 23.4792 43.7251 23.3182 43.5881 23.1992C43.4511 23.0872 43.2661 23.0102 43.0971 22.9472L42.9521 22.8912C42.7831 22.8282 42.4931 22.7232 42.2361 22.5062C41.9141 22.2332 41.7531 21.8902 41.7531 21.4702C41.7531 21.0292 41.8901 20.6582 42.1471 20.3992C42.3971 20.1472 42.7511 19.9932 43.1701 19.9932C43.7491 19.9932 44.0711 20.2102 44.2401 20.3992C44.4741 20.6582 44.5861 21.0152 44.5861 21.4702V21.7992H43.8221V21.4702C43.8221 21.0712 43.7171 20.8542 43.5801 20.7562C43.4431 20.6582 43.2741 20.6582 43.1701 20.6582C42.8561 20.6582 42.7031 20.8052 42.6141 20.9872C42.5181 21.1692 42.5101 21.3792 42.5101 21.4702C42.5101 21.7152 42.6061 21.8762 42.7431 22.0022C42.8801 22.1282 43.0651 22.2192 43.2581 22.2822L43.3871 22.3312C43.5401 22.3872 43.8301 22.4782 44.0871 22.6952C44.4171 22.9612 44.5861 23.3042 44.5861 23.7242C44.5861 24.5152 44.0791 25.1522 43.1701 25.1522C42.2281 25.1522 41.7531 24.6132 41.7531 23.6892V23.3602Z" fill="#FFFFFE"/>
<path fill-rule="evenodd" clip-rule="evenodd" d="M46.5229 21.4632C46.5229 21.0082 46.6349 20.6512 46.8609 20.3992C46.9489 20.3082 47.0699 20.2102 47.2469 20.1262C47.4239 20.0492 47.6409 19.9932 47.9309 19.9932C48.5109 19.9932 48.8329 20.2102 49.0019 20.3992C49.2269 20.6512 49.3399 21.0082 49.3399 21.4632V23.6822C49.3399 24.1372 49.2269 24.4942 49.0019 24.7462C48.8329 24.9352 48.5109 25.1522 47.9309 25.1522C47.3599 25.1522 47.0299 24.9352 46.8609 24.7462C46.6349 24.4942 46.5229 24.1372 46.5229 23.6822V21.4632ZM47.2791 23.6822C47.2791 24.0952 47.3841 24.2912 47.5211 24.3892C47.6581 24.4872 47.8111 24.4942 47.9311 24.4942C48.0361 24.4942 48.2051 24.4872 48.3421 24.3892C48.4791 24.2912 48.5831 24.0952 48.5831 23.6822V21.4632C48.5831 21.0642 48.4791 20.8542 48.3421 20.7562C48.2051 20.6582 48.0361 20.6582 47.9311 20.6582C47.8111 20.6582 47.6581 20.6582 47.5211 20.7562C47.3841 20.8542 47.2791 21.0642 47.2791 21.4632V23.6822Z" fill="#FFFFFE"/>
<path fill-rule="evenodd" clip-rule="evenodd" d="M51.3571 21.4632C51.3571 21.0082 51.4691 20.6512 51.6951 20.3992C51.7831 20.3082 51.9041 20.2102 52.0811 20.1262C52.2581 20.0492 52.4751 19.9932 52.7651 19.9932C53.3451 19.9932 53.6671 20.2102 53.8361 20.3992C54.0611 20.6512 54.1741 21.0082 54.1741 21.4632V23.6822C54.1741 24.1372 54.0611 24.4942 53.8361 24.7462C53.6671 24.9352 53.3451 25.1522 52.7651 25.1522C52.1941 25.1522 51.8641 24.9352 51.6951 24.7462C51.4691 24.4942 51.3571 24.1372 51.3571 23.6822V21.4632ZM52.113 23.6822C52.113 24.0952 52.218 24.2912 52.355 24.3892C52.492 24.4872 52.645 24.4942 52.765 24.4942C52.87 24.4942 53.039 24.4872 53.176 24.3892C53.313 24.2912 53.417 24.0952 53.417 23.6822V21.4632C53.417 21.0642 53.313 20.8542 53.176 20.7562C53.039 20.6582 52.87 20.6582 52.765 20.6582C52.645 20.6582 52.492 20.6582 52.355 20.7562C52.218 20.8542 52.113 21.0642 52.113 21.4632V23.6822Z" fill="#FFFFFE"/>
<path fill-rule="evenodd" clip-rule="evenodd" d="M56.191 21.4632C56.191 21.0082 56.303 20.6512 56.529 20.3992C56.617 20.3082 56.738 20.2102 56.915 20.1262C57.092 20.0492 57.31 19.9932 57.599 19.9932C58.179 19.9932 58.501 20.2102 58.67 20.3992C58.895 20.6512 59.008 21.0082 59.008 21.4632V23.6822C59.008 24.1372 58.895 24.4942 58.67 24.7462C58.501 24.9352 58.179 25.1522 57.599 25.1522C57.028 25.1522 56.698 24.9352 56.529 24.7462C56.303 24.4942 56.191 24.1372 56.191 23.6822V21.4632ZM56.947 23.6822C56.947 24.0952 57.052 24.2912 57.189 24.3892C57.326 24.4872 57.479 24.4942 57.599 24.4942C57.704 24.4942 57.873 24.4872 58.01 24.3892C58.147 24.2912 58.251 24.0952 58.251 23.6822V21.4632C58.251 21.0642 58.147 20.8542 58.01 20.7562C57.873 20.6582 57.704 20.6582 57.599 20.6582C57.479 20.6582 57.326 20.6582 57.189 20.7562C57.052 20.8542 56.947 21.0642 56.947 21.4632V23.6822Z" fill="#FFFFFE"/>
<path fill-rule="evenodd" clip-rule="evenodd" d="M65.2581 25.159V20H66.4411C67.4641 20 67.9471 20.546 67.9471 21.491V23.661C67.9471 24.606 67.4641 25.159 66.4411 25.159H65.2581ZM66.015 20.6582V24.5012H66.441C66.634 24.5012 66.82 24.4802 66.956 24.3682C67.085 24.2562 67.182 24.0462 67.182 23.6612V21.4912C67.182 21.1062 67.085 20.8962 66.956 20.7842C66.82 20.6722 66.634 20.6582 66.441 20.6582H66.015Z" fill="#FFFFFE"/>
<path fill-rule="evenodd" clip-rule="evenodd" d="M72.4431 20V20.658H70.7441V22.247H72.4431V22.905H70.7441V24.501H72.4431V25.159H69.9871V20H72.4431Z" fill="#FFFFFE"/>
<path fill-rule="evenodd" clip-rule="evenodd" d="M77.14 25.1522H74.556V19.9932H75.312V24.4942H77.14V25.1522Z" fill="#FFFFFE"/>
<path fill-rule="evenodd" clip-rule="evenodd" d="M79.237 25.159H79.993V20H79.237V25.159Z" fill="#FFFFFE"/>
<path fill-rule="evenodd" clip-rule="evenodd" d="M82.1949 21.47C82.1949 21.015 82.3079 20.658 82.5329 20.406C82.7019 20.217 83.0239 20 83.6039 20C84.1829 20 84.4969 20.217 84.6659 20.406C84.8999 20.665 85.0129 21.015 85.0129 21.47V21.799H84.2479V21.47C84.2479 21.071 84.1429 20.854 84.0139 20.756C83.8779 20.658 83.7089 20.658 83.6039 20.658C83.4829 20.658 83.3299 20.658 83.1929 20.756C83.0559 20.854 82.9519 21.071 82.9519 21.47V23.682C82.9519 23.983 83.0159 24.207 83.1369 24.34C83.1609 24.375 83.2089 24.41 83.2819 24.445C83.3539 24.48 83.4589 24.501 83.6039 24.501C83.8939 24.501 84.0059 24.403 84.0709 24.34C84.1919 24.2 84.2479 23.983 84.2479 23.682V23.353H85.0129V23.682C85.0129 24.137 84.8999 24.487 84.6659 24.746C84.4969 24.935 84.1829 25.159 83.6039 25.159C83.3139 25.159 83.0969 25.103 82.9199 25.019C82.7429 24.942 82.6219 24.837 82.5329 24.746C82.3079 24.494 82.1949 24.137 82.1949 23.682V21.47Z" fill="#FFFFFE"/>
<path fill-rule="evenodd" clip-rule="evenodd" d="M87.134 25.159H87.89V20H87.134V25.159Z" fill="#FFFFFE"/>
<path fill-rule="evenodd" clip-rule="evenodd" d="M90.092 21.4632C90.092 21.0082 90.205 20.6512 90.43 20.3992C90.519 20.3082 90.64 20.2102 90.817 20.1262C90.994 20.0492 91.211 19.9932 91.501 19.9932C92.08 19.9932 92.402 20.2102 92.572 20.3992C92.797 20.6512 92.91 21.0082 92.91 21.4632V23.6822C92.91 24.1372 92.797 24.4942 92.572 24.7462C92.402 24.9352 92.08 25.1522 91.501 25.1522C90.929 25.1522 90.599 24.9352 90.43 24.7462C90.205 24.4942 90.092 24.1372 90.092 23.6822V21.4632ZM90.849 23.6822C90.849 24.0952 90.953 24.2912 91.09 24.3892C91.227 24.4872 91.38 24.4942 91.501 24.4942C91.606 24.4942 91.775 24.4872 91.911 24.3892C92.048 24.2912 92.153 24.0952 92.153 23.6822V21.4632C92.153 21.0642 92.048 20.8542 91.911 20.7562C91.775 20.6582 91.606 20.6582 91.501 20.6582C91.38 20.6582 91.227 20.6582 91.09 20.7562C90.953 20.8542 90.849 21.0642 90.849 21.4632V23.6822Z" fill="#FFFFFE"/>
<path fill-rule="evenodd" clip-rule="evenodd" d="M94.926 19.9932H95.683V23.7802C95.683 24.1372 95.771 24.3192 95.892 24.4032C96.013 24.4942 96.15 24.4942 96.254 24.4942C96.359 24.4942 96.496 24.4942 96.617 24.4032C96.737 24.3192 96.826 24.1372 96.826 23.7802V19.9932H97.583V23.7802C97.583 24.2072 97.478 24.5362 97.261 24.7672C97.1 24.9562 96.794 25.1522 96.254 25.1522C95.715 25.1522 95.409 24.9562 95.248 24.7672C95.031 24.5362 94.926 24.2072 94.926 23.7802V19.9932Z" fill="#FFFFFE"/>
<path fill-rule="evenodd" clip-rule="evenodd" d="M99.76 23.3602H100.517V23.6892C100.517 23.9902 100.581 24.2072 100.702 24.3402C100.726 24.3752 100.775 24.4032 100.847 24.4382C100.919 24.4732 101.024 24.4942 101.177 24.4942C101.467 24.4942 101.628 24.3682 101.724 24.2142C101.813 24.0602 101.829 23.8642 101.829 23.7242C101.829 23.4792 101.732 23.3182 101.596 23.1992C101.459 23.0872 101.274 23.0102 101.105 22.9472L100.96 22.8912C100.791 22.8282 100.501 22.7232 100.243 22.5062C99.921 22.2332 99.76 21.8902 99.76 21.4702C99.76 21.0292 99.897 20.6582 100.155 20.3992C100.404 20.1472 100.758 19.9932 101.177 19.9932C101.757 19.9932 102.079 20.2102 102.248 20.3992C102.481 20.6582 102.594 21.0152 102.594 21.4702V21.7992H101.829V21.4702C101.829 21.0712 101.724 20.8542 101.588 20.7562C101.451 20.6582 101.282 20.6582 101.177 20.6582C100.863 20.6582 100.71 20.8052 100.622 20.9872C100.525 21.1692 100.517 21.3792 100.517 21.4702C100.517 21.7152 100.614 21.8762 100.75 22.0022C100.887 22.1282 101.072 22.2192 101.266 22.2822L101.394 22.3312C101.547 22.3872 101.837 22.4782 102.095 22.6952C102.425 22.9612 102.594 23.3042 102.594 23.7242C102.594 24.5152 102.087 25.1522 101.177 25.1522C100.235 25.1522 99.76 24.6132 99.76 23.6892V23.3602Z" fill="#FFFFFE"/>
<path fill-rule="evenodd" clip-rule="evenodd" d="M44.884 120.002V120.66H43.186V122.249H44.884V122.907H43.186V125.161H42.429V120.002H44.884Z" fill="#FFFFFE"/>
<path fill-rule="evenodd" clip-rule="evenodd" d="M49.7509 125.154H48.9859V123.628C48.9859 123.173 48.7359 122.949 48.2289 122.949H47.7539V125.154H46.9969V119.995H48.2289C49.2509 119.995 49.7339 120.506 49.7339 121.465C49.7339 121.941 49.6139 122.305 49.3799 122.55C49.3719 122.557 49.3559 122.571 49.3479 122.585C49.3319 122.599 49.3159 122.613 49.2999 122.62C49.5899 122.865 49.7509 123.201 49.7509 123.628V125.154ZM47.754 122.284H48.229C48.43 122.284 48.575 122.263 48.656 122.221C48.728 122.179 48.777 122.144 48.801 122.123C48.921 121.99 48.978 121.773 48.978 121.465C48.978 121.122 48.913 120.919 48.793 120.8C48.664 120.688 48.479 120.66 48.229 120.66H47.754V122.284Z" fill="#FFFFFE"/>
<path fill-rule="evenodd" clip-rule="evenodd" d="M54.383 120.002V120.66H52.685V122.249H54.383V122.907H52.685V124.503H54.383V125.161H51.928V120.002H54.383Z" fill="#FFFFFE"/>
<path fill-rule="evenodd" clip-rule="evenodd" d="M56.496 123.362H57.253V123.691C57.253 123.992 57.318 124.209 57.438 124.342C57.462 124.377 57.511 124.405 57.583 124.44C57.656 124.475 57.76 124.496 57.913 124.496C58.203 124.496 58.364 124.37 58.461 124.216C58.549 124.062 58.565 123.866 58.565 123.726C58.565 123.481 58.469 123.32 58.332 123.201C58.195 123.089 58.01 123.012 57.841 122.949L57.696 122.893C57.527 122.83 57.237 122.725 56.979 122.508C56.657 122.235 56.496 121.892 56.496 121.472C56.496 121.031 56.633 120.66 56.891 120.401C57.14 120.149 57.495 119.995 57.913 119.995C58.493 119.995 58.815 120.212 58.984 120.401C59.217 120.66 59.33 121.017 59.33 121.472V121.801H58.565V121.472C58.565 121.073 58.461 120.856 58.324 120.758C58.187 120.66 58.018 120.66 57.913 120.66C57.599 120.66 57.446 120.807 57.358 120.989C57.261 121.171 57.253 121.381 57.253 121.472C57.253 121.717 57.35 121.878 57.487 122.004C57.623 122.13 57.809 122.221 58.002 122.284L58.131 122.333C58.284 122.389 58.573 122.48 58.831 122.697C59.161 122.963 59.33 123.306 59.33 123.726C59.33 124.517 58.823 125.154 57.913 125.154C56.971 125.154 56.496 124.615 56.496 123.691V123.362Z" fill="#FFFFFE"/>
<path fill-rule="evenodd" clip-rule="evenodd" d="M63.166 122.249V120.002H63.931V125.161H63.166V122.914H62.023V125.161H61.266V120.002H62.023V122.249H63.166Z" fill="#FFFFFE"/>
<path fill-rule="evenodd" clip-rule="evenodd" d="M70.4041 125.161V120.002H71.5471C72.0541 120.002 72.4251 120.135 72.6581 120.394C72.8921 120.625 73.0041 120.982 73.0041 121.451C73.0041 121.92 72.8921 122.27 72.6581 122.515C72.6501 122.529 72.6261 122.55 72.5941 122.578C72.6261 122.606 72.6501 122.627 72.6581 122.648C72.8921 122.893 73.0041 123.243 73.0041 123.712C73.0041 124.181 72.8921 124.538 72.6581 124.769C72.4171 125.028 72.0461 125.161 71.5471 125.161H70.4041ZM71.161 120.66V122.249H71.547C71.716 122.249 71.845 122.228 71.917 122.193C71.99 122.158 72.046 122.13 72.07 122.095C72.183 121.976 72.239 121.766 72.239 121.451C72.239 121.087 72.167 120.891 72.046 120.779C71.917 120.674 71.74 120.66 71.547 120.66H71.161ZM71.161 122.907V124.503H71.547C71.74 124.503 71.917 124.489 72.046 124.377C72.167 124.272 72.239 124.076 72.239 123.712C72.239 123.341 72.159 123.138 72.038 123.026C71.909 122.921 71.74 122.907 71.547 122.907H71.161Z" fill="#FFFFFE"/>
<path fill-rule="evenodd" clip-rule="evenodd" d="M75.005 119.995H75.761V123.782C75.761 124.139 75.85 124.321 75.971 124.405C76.091 124.496 76.228 124.496 76.333 124.496C76.438 124.496 76.574 124.496 76.695 124.405C76.816 124.321 76.904 124.139 76.904 123.782V119.995H77.661V123.782C77.661 124.209 77.557 124.538 77.339 124.769C77.178 124.958 76.872 125.154 76.333 125.154C75.794 125.154 75.488 124.958 75.327 124.769C75.109 124.538 75.005 124.209 75.005 123.782V119.995Z" fill="#FFFFFE"/>
<path fill-rule="evenodd" clip-rule="evenodd" d="M82.592 125.154H81.827V123.628C81.827 123.173 81.578 122.949 81.07 122.949H80.595V125.154H79.839V119.995H81.07C82.093 119.995 82.576 120.506 82.576 121.465C82.576 121.941 82.455 122.305 82.222 122.55C82.213 122.557 82.197 122.571 82.189 122.585C82.173 122.599 82.157 122.613 82.141 122.62C82.431 122.865 82.592 123.201 82.592 123.628V125.154ZM80.595 122.284H81.07C81.272 122.284 81.417 122.263 81.497 122.221C81.569 122.179 81.618 122.144 81.642 122.123C81.763 121.99 81.819 121.773 81.819 121.465C81.819 121.122 81.755 120.919 81.634 120.8C81.505 120.688 81.32 120.66 81.07 120.66H80.595V122.284Z" fill="#FFFFFE"/>
<path fill-rule="evenodd" clip-rule="evenodd" d="M84.769 121.465C84.769 120.541 85.244 120.002 86.178 120.002C87.12 120.002 87.595 120.541 87.595 121.465V121.794H86.83V121.465C86.83 121.094 86.75 120.891 86.629 120.779C86.5 120.674 86.339 120.66 86.178 120.66C86.017 120.66 85.856 120.674 85.735 120.779C85.607 120.891 85.526 121.094 85.526 121.465V123.691C85.526 124.104 85.631 124.3 85.768 124.398C85.904 124.496 86.057 124.503 86.178 124.503C86.299 124.503 86.46 124.496 86.597 124.398C86.725 124.3 86.83 124.104 86.83 123.691V123.299H85.912V122.634H87.595V123.691C87.595 124.153 87.482 124.51 87.249 124.755C87.08 124.944 86.758 125.161 86.178 125.161C85.607 125.161 85.285 124.944 85.115 124.755C84.882 124.51 84.769 124.153 84.769 123.691V121.465Z" fill="#FFFFFE"/>
<path fill-rule="evenodd" clip-rule="evenodd" d="M92.123 120.002V120.66H90.424V122.249H92.123V122.907H90.424V124.503H92.123V125.161H89.668V120.002H92.123Z" fill="#FFFFFE"/>
<path fill-rule="evenodd" clip-rule="evenodd" d="M96.989 125.154H96.224V123.628C96.224 123.173 95.975 122.949 95.468 122.949H94.993V125.154H94.236V119.995H95.468C96.49 119.995 96.973 120.506 96.973 121.465C96.973 121.941 96.852 122.305 96.619 122.55C96.611 122.557 96.595 122.571 96.587 122.585C96.571 122.599 96.555 122.613 96.538 122.62C96.828 122.865 96.989 123.201 96.989 123.628V125.154ZM94.993 122.284H95.468C95.669 122.284 95.814 122.263 95.894 122.221C95.967 122.179 96.015 122.144 96.039 122.123C96.16 121.99 96.216 121.773 96.216 121.465C96.216 121.122 96.152 120.919 96.031 120.8C95.902 120.688 95.717 120.66 95.468 120.66H94.993V122.284Z" fill="#FFFFFE"/>
<path fill-rule="evenodd" clip-rule="evenodd" d="M99.167 123.362H99.923V123.691C99.923 123.992 99.988 124.209 100.109 124.342C100.133 124.377 100.181 124.405 100.253 124.44C100.326 124.475 100.431 124.496 100.584 124.496C100.873 124.496 101.034 124.37 101.131 124.216C101.219 124.062 101.236 123.866 101.236 123.726C101.236 123.481 101.139 123.32 101.002 123.201C100.865 123.089 100.68 123.012 100.511 122.949L100.366 122.893C100.197 122.83 99.907 122.725 99.65 122.508C99.328 122.235 99.167 121.892 99.167 121.472C99.167 121.031 99.304 120.66 99.561 120.401C99.811 120.149 100.165 119.995 100.584 119.995C101.163 119.995 101.485 120.212 101.654 120.401C101.888 120.66 102 121.017 102 121.472V121.801H101.236V121.472C101.236 121.073 101.131 120.856 100.994 120.758C100.857 120.66 100.688 120.66 100.584 120.66C100.27 120.66 100.117 120.807 100.028 120.989C99.931 121.171 99.923 121.381 99.923 121.472C99.923 121.717 100.02 121.878 100.157 122.004C100.294 122.13 100.479 122.221 100.672 122.284L100.801 122.333C100.954 122.389 101.244 122.48 101.501 122.697C101.831 122.963 102 123.306 102 123.726C102 124.517 101.493 125.154 100.584 125.154C99.642 125.154 99.167 124.615 99.167 123.691V123.362Z" fill="#FFFFFE"/>
</svg>
