<svg width="259" height="165" viewBox="0 0 259 165" fill="none" xmlns="http://www.w3.org/2000/svg">
<path fill-rule="evenodd" clip-rule="evenodd" d="M1 124.369H6.60795V127.239C6.60795 129.864 7.08523 131.757 7.98011 132.917C8.15909 133.223 8.51705 133.467 9.05398 133.772C9.59091 134.077 10.3665 134.261 11.5 134.261C13.6477 134.261 14.8409 133.161 15.5568 131.818C16.2131 130.475 16.3324 128.765 16.3324 127.544C16.3324 125.407 15.6165 124.003 14.6023 122.965C13.5881 121.988 12.2159 121.316 10.9631 120.767L9.8892 120.278C8.63636 119.729 6.48864 118.813 4.57955 116.92C2.19318 114.539 1 111.547 1 107.883C1 104.037 2.0142 100.801 3.9233 98.5414C5.77273 96.3433 8.39773 95 11.5 95C15.7955 95 18.1818 96.8928 19.4347 98.5414C21.1648 100.801 22 103.915 22 107.883V110.753H16.3324V107.883C16.3324 104.403 15.5568 102.51 14.5426 101.655C13.5284 100.801 12.2756 100.801 11.5 100.801C9.1733 100.801 8.03977 102.083 7.38352 103.67C6.66761 105.258 6.60795 107.09 6.60795 107.883C6.60795 110.02 7.32386 111.425 8.33807 112.524C9.35227 113.623 10.7244 114.417 12.1562 114.966L13.1108 115.393C14.2443 115.882 16.392 116.676 18.3011 118.569C20.7472 120.889 22 123.881 22 127.544C22 134.444 18.2415 140 11.5 140C4.51989 140 1 135.299 1 127.239V124.369Z" fill="#4D4D4D"/>
<path fill-rule="evenodd" clip-rule="evenodd" d="M41.307 127.422H33.6331L30.8153 140H25L35.1918 95H39.6882L50 140H44.1247L41.307 127.422ZM34.952 121.682H39.988L37.47 110.631L34.952 121.682Z" fill="#4D4D4D"/>
<path fill-rule="evenodd" clip-rule="evenodd" d="M52 107.822C52 103.853 52.84 100.739 54.52 98.5414C55.78 96.8928 58.18 95 62.5 95C66.82 95 69.16 96.8928 70.42 98.5414C72.16 100.801 73 103.853 73 107.822V110.692H67.3V107.822C67.3 104.342 66.52 102.449 65.56 101.594C64.54 100.739 63.28 100.739 62.5 100.739C61.6 100.739 60.46 100.739 59.44 101.594C58.42 102.449 57.64 104.342 57.64 107.822V127.117C57.64 129.742 58.12 131.696 59.02 132.856C59.2 133.161 59.56 133.467 60.1 133.772C60.64 134.077 61.42 134.261 62.5 134.261C64.66 134.261 65.5 133.406 65.98 132.856C66.88 131.635 67.3 129.742 67.3 127.117V124.247H73V127.117C73 131.085 72.16 134.138 70.42 136.398C69.16 138.046 66.82 140 62.5 140C60.34 140 58.72 139.512 57.4 138.779C56.08 138.107 55.18 137.191 54.52 136.398C52.84 134.199 52 131.085 52 127.117V107.822Z" fill="#4D4D4D"/>
<path fill-rule="evenodd" clip-rule="evenodd" d="M96 140H90.1667V126.689C90.1667 122.72 88.2632 120.767 84.3947 120.767H80.7719V140H75V95H84.3947C92.193 95 95.8772 99.4573 95.8772 107.822C95.8772 111.974 94.9561 115.149 93.1754 117.286C93.114 117.347 92.9912 117.469 92.9298 117.592C92.807 117.714 92.6842 117.836 92.5614 117.897C94.7719 120.034 96 122.965 96 126.689V140ZM80.772 114.966H84.3948C85.9299 114.966 87.0351 114.783 87.6492 114.417C88.2018 114.05 88.5702 113.745 88.7544 113.562C89.6755 112.402 90.1053 110.509 90.1053 107.822C90.1053 104.831 89.6141 103.06 88.693 102.022C87.7106 101.045 86.2983 100.801 84.3948 100.801H80.772V114.966Z" fill="#4D4D4D"/>
<path fill-rule="evenodd" clip-rule="evenodd" d="M117.307 127.422H109.633L106.815 140H101L111.192 95H115.688L126 140H120.125L117.307 127.422ZM110.952 121.682H115.988L113.47 110.631L110.952 121.682Z" fill="#4D4D4D"/>
<path fill-rule="evenodd" clip-rule="evenodd" d="M139.853 140L133.685 118.446V140H128V95H133.019L142.03 126.689L150.981 95H156V140H150.315V118.446L144.147 140H139.853Z" fill="#4D4D4D"/>
<path fill-rule="evenodd" clip-rule="evenodd" d="M179 95V100.739H165.856V114.6H179V120.339H165.856V134.261H179V140H160V95H179Z" fill="#4D4D4D"/>
<path fill-rule="evenodd" clip-rule="evenodd" d="M200.028 140L188.842 112.768V140H183V95H187.91L199.096 122.232V95H205V140H200.028Z" fill="#4D4D4D"/>
<path fill-rule="evenodd" clip-rule="evenodd" d="M209 95H234V100.801H224.348V140H218.652V100.801H209V95Z" fill="#4D4D4D"/>
<path fill-rule="evenodd" clip-rule="evenodd" d="M237 107.822C237 103.853 237.84 100.739 239.52 98.5414C240.18 97.7476 241.08 96.8928 242.4 96.1601C243.72 95.4885 245.34 95 247.5 95C251.82 95 254.22 96.8928 255.48 98.5414C257.16 100.739 258 103.853 258 107.822V127.178C258 131.147 257.16 134.261 255.48 136.459C254.22 138.107 251.82 140 247.5 140C243.24 140 240.78 138.107 239.52 136.459C237.84 134.261 237 131.147 237 127.178V107.822ZM242.64 127.178C242.64 130.78 243.42 132.49 244.44 133.345C245.46 134.2 246.6 134.261 247.5 134.261C248.28 134.261 249.54 134.2 250.56 133.345C251.58 132.49 252.36 130.78 252.36 127.178V107.822C252.36 104.342 251.58 102.51 250.56 101.656C249.54 100.801 248.28 100.801 247.5 100.801C246.6 100.801 245.46 100.801 244.44 101.656C243.42 102.51 242.64 104.342 242.64 107.822V127.178Z" fill="#4D4D4D"/>
<path fill-rule="evenodd" clip-rule="evenodd" d="M6 165H0V151H1.75716V163.214H6V165Z" fill="#4D4D4D"/>
<path fill-rule="evenodd" clip-rule="evenodd" d="M27 154.989C27 153.755 27.2803 152.786 27.8394 152.102C28.0599 151.856 28.3606 151.589 28.8 151.361C29.2394 151.153 29.7796 151 30.4993 151C31.9401 151 32.7401 151.589 33.1606 152.102C33.7197 152.786 34 153.755 34 154.989V161.011C34 162.246 33.7197 163.214 33.1606 163.898C32.7401 164.411 31.9401 165 30.4993 165C29.0803 165 28.2599 164.411 27.8394 163.898C27.2803 163.214 27 162.246 27 161.011V154.989ZM28.8802 161.011C28.8802 162.131 29.1401 162.664 29.4802 162.93C29.8204 163.196 30.2 163.214 30.4992 163.214C30.7605 163.214 31.1795 163.196 31.5197 162.93C31.8598 162.664 32.1197 162.131 32.1197 161.011V154.989C32.1197 153.906 31.8598 153.336 31.5197 153.07C31.1795 152.805 30.7605 152.805 30.4992 152.805C30.2 152.805 29.8204 152.805 29.4802 153.07C29.1401 153.336 28.8802 153.906 28.8802 154.989V161.011Z" fill="#4D4D4D"/>
<path fill-rule="evenodd" clip-rule="evenodd" d="M60.4181 165L56.859 156.528V165H55V151H56.5631L60.1223 159.472V151H62V165H60.4181Z" fill="#4D4D4D"/>
<path fill-rule="evenodd" clip-rule="evenodd" d="M83 154.97C83 152.463 84.1764 151 86.4898 151C88.8236 151 90 152.463 90 154.97V155.863H88.1059V154.97C88.1059 153.963 87.9064 153.413 87.6065 153.109C87.2876 152.823 86.8887 152.786 86.4898 152.786C86.0909 152.786 85.692 152.823 85.3935 153.109C85.0732 153.413 84.8738 153.963 84.8738 154.97V161.011C84.8738 162.131 85.1329 162.664 85.4721 162.928C85.8114 163.195 86.1913 163.214 86.4898 163.214C86.7897 163.214 87.1886 163.195 87.5264 162.928C87.8467 162.664 88.1059 162.131 88.1059 161.011V159.947H85.8317V158.142H90V161.011C90 162.264 89.7205 163.234 89.1425 163.898C88.7232 164.411 87.9253 165 86.4898 165C85.0732 165 84.2754 164.411 83.8575 163.898C83.2781 163.234 83 162.264 83 161.011V154.97Z" fill="#4D4D4D"/>
<path fill-rule="evenodd" clip-rule="evenodd" d="M112 165V151H114.638C115.808 151 116.662 151.361 117.2 152.063C117.74 152.69 118 153.659 118 154.932C118 156.205 117.74 157.155 117.2 157.819C117.183 157.858 117.127 157.915 117.052 157.99C117.127 158.066 117.183 158.123 117.2 158.18C117.74 158.845 118 159.795 118 161.068C118 162.341 117.74 163.308 117.2 163.937C116.643 164.638 115.789 165 114.638 165H112ZM113.746 152.786V157.098H114.638C115.029 157.098 115.325 157.04 115.492 156.945C115.659 156.85 115.789 156.775 115.845 156.679C116.105 156.356 116.235 155.786 116.235 154.932C116.235 153.943 116.068 153.412 115.789 153.109C115.492 152.823 115.084 152.786 114.638 152.786H113.746ZM113.746 158.882V163.214H114.638C115.084 163.214 115.492 163.176 115.789 162.871C116.068 162.587 116.235 162.055 116.235 161.068C116.235 160.061 116.049 159.509 115.771 159.205C115.473 158.921 115.084 158.882 114.638 158.882H113.746Z" fill="#4D4D4D"/>
<path fill-rule="evenodd" clip-rule="evenodd" d="M139 154.989C139 153.755 139.28 152.786 139.841 152.102C140.061 151.856 140.361 151.589 140.8 151.361C141.241 151.153 141.781 151 142.501 151C143.94 151 144.74 151.589 145.161 152.102C145.721 152.786 146 153.755 146 154.989V161.011C146 162.246 145.721 163.214 145.161 163.898C144.74 164.411 143.94 165 142.501 165C141.08 165 140.261 164.411 139.841 163.898C139.28 163.214 139 162.246 139 161.011V154.989ZM140.88 161.011C140.88 162.131 141.14 162.664 141.48 162.93C141.82 163.196 142.2 163.214 142.501 163.214C142.761 163.214 143.181 163.196 143.521 162.93C143.861 162.664 144.121 162.131 144.121 161.011V154.989C144.121 153.906 143.861 153.336 143.521 153.07C143.181 152.805 142.761 152.805 142.501 152.805C142.2 152.805 141.82 152.805 141.48 153.07C141.14 153.336 140.88 153.906 140.88 154.989V161.011Z" fill="#4D4D4D"/>
<path fill-rule="evenodd" clip-rule="evenodd" d="M172.218 161.087H169.763L168.861 165H167L170.261 151H171.699L175 165H173.119L172.218 161.087ZM170.184 159.301H171.796L170.99 155.863L170.184 159.301Z" fill="#4D4D4D"/>
<path fill-rule="evenodd" clip-rule="evenodd" d="M202 165H200.333V160.858C200.333 159.624 199.79 159.017 198.685 159.017H197.649V165H196V151H198.685C200.912 151 201.964 152.387 201.964 154.989C201.964 156.281 201.702 157.269 201.193 157.934C201.175 157.952 201.141 157.991 201.123 158.028C201.087 158.067 201.052 158.105 201.018 158.124C201.649 158.788 202 159.701 202 160.858V165ZM197.649 157.212H198.685C199.123 157.212 199.439 157.155 199.615 157.041C199.772 156.927 199.877 156.832 199.93 156.775C200.193 156.414 200.316 155.825 200.316 154.989C200.316 154.059 200.175 153.508 199.913 153.185C199.631 152.88 199.228 152.805 198.685 152.805H197.649V157.212Z" fill="#4D4D4D"/>
<path fill-rule="evenodd" clip-rule="evenodd" d="M224 165V151H226.641C228.922 151 230 152.481 230 155.046V160.935C230 163.498 228.922 165 226.641 165H224ZM225.689 152.786V163.214H226.641C227.072 163.214 227.485 163.157 227.791 162.853C228.078 162.548 228.293 161.978 228.293 160.934V155.046C228.293 154 228.078 153.43 227.791 153.127C227.485 152.823 227.072 152.786 226.641 152.786H225.689Z" fill="#4D4D4D"/>
<path fill-rule="evenodd" clip-rule="evenodd" d="M252 160.137H253.869V161.03C253.869 161.847 254.029 162.436 254.327 162.797C254.386 162.891 254.507 162.967 254.685 163.063C254.864 163.157 255.122 163.214 255.501 163.214C256.216 163.214 256.614 162.873 256.852 162.454C257.071 162.037 257.11 161.505 257.11 161.125C257.11 160.46 256.872 160.024 256.534 159.701C256.196 159.397 255.739 159.188 255.321 159.017L254.964 158.865C254.546 158.694 253.83 158.408 253.193 157.819C252.398 157.079 252 156.148 252 155.009C252 153.812 252.338 152.805 252.975 152.102C253.591 151.419 254.466 151 255.501 151C256.932 151 257.727 151.589 258.145 152.102C258.721 152.805 259 153.773 259 155.009V155.901H257.11V155.009C257.11 153.926 256.852 153.336 256.514 153.07C256.176 152.805 255.759 152.805 255.501 152.805C254.724 152.805 254.347 153.203 254.128 153.698C253.89 154.192 253.869 154.762 253.869 155.009C253.869 155.673 254.109 156.109 254.446 156.452C254.784 156.794 255.241 157.041 255.718 157.212L256.036 157.345C256.415 157.497 257.131 157.744 257.766 158.332C258.582 159.054 259 159.985 259 161.125C259 163.271 257.747 165 255.501 165C253.174 165 252 163.537 252 161.03V160.137Z" fill="#4D4D4D"/>
<mask id="mask0" mask-type="alpha" maskUnits="userSpaceOnUse" x="128" y="0" width="47" height="70">
<path fill-rule="evenodd" clip-rule="evenodd" d="M128.505 23.5546V69.447C128.505 69.447 174.533 57.7835 174.533 23.5546C174.533 11.5347 169.594 0.37793 151.518 0.37793C133.444 0.37793 128.505 11.5347 128.505 23.5546Z" fill="white"/>
</mask>
<g mask="url(#mask0)">
<path d="M91.4175 5.13536H211.587V-0.269639H91.4175V5.13536ZM91.4175 26.3492H211.587V20.9442H91.4175V26.3492ZM91.4175 69.0621H211.587V63.6571H91.4175V69.0621ZM109.904 47.7062H211.587V42.3012H109.904V47.7062Z" fill="#4D4D4D"/>
</g>
<path fill-rule="evenodd" clip-rule="evenodd" d="M112.583 17.3293L113.237 21.1679L109.812 19.3555L106.389 21.1679L107.043 17.3293L104.271 14.6101L108.102 14.0518L109.812 10.5576L111.525 14.0518L115.352 14.6101L112.583 17.3293ZM112.583 35.404L113.237 39.2426L109.812 37.4302L106.389 39.2426L107.043 35.404L104.271 32.6862L108.102 32.1251L109.812 28.6323L111.525 32.1251L115.352 32.6862L112.583 35.404ZM113.237 57.023L109.812 55.212L106.389 57.023L107.043 53.1872L104.271 50.4666L108.102 49.9069L109.812 46.4155L111.525 49.9069L115.352 50.4666L112.583 53.1872L113.237 57.023ZM94.9178 17.0345L95.5718 20.8731L92.1491 19.0607L88.725 20.8731L89.3775 17.0345L86.6088 14.3181L90.437 13.757L92.1491 10.2656L93.8611 13.757L97.6894 14.3181L94.9178 17.0345ZM95.5718 39.2426L92.1491 37.4302L88.725 39.2426L89.3775 35.404L86.6088 32.6862L90.437 32.1251L92.1491 28.6323L93.8611 32.1251L97.6894 32.6862L94.9178 35.404L95.5718 39.2426ZM99.0014 0C82.1501 0 76 11.1463 76 23.1537C76 58.4925 122 69 122 69V23.1537C122 11.1463 115.854 0 99.0014 0Z" fill="#4D4D4D"/>
</svg>
