<svg width="304" height="157" viewBox="0 0 304 157" fill="none" xmlns="http://www.w3.org/2000/svg">
<mask id="mask0" mask-type="alpha" maskUnits="userSpaceOnUse" x="90" y="0" width="116" height="72">
<path fill-rule="evenodd" clip-rule="evenodd" d="M99.5364 0.121114L99.5563 0.293659L99.6411 0.466205V0.535886L99.779 0.726682L99.9519 0.809636L99.9186 0.983841L99.9353 1.15639L99.902 1.32893L99.7275 1.241L99.8139 1.41355L99.7608 1.60434L99.573 1.50148L99.45 1.46664V1.65411L99.6228 1.63752L99.6777 1.81173L99.8306 2.0357L99.779 2.19L99.7973 2.25968L99.7608 2.62136L99.8655 2.79557L99.8821 2.9847L99.6943 3.15725L99.4865 3.39948L99.5032 3.57036L99.332 3.68982L99.45 3.88061L99.2954 4.05482L99.332 4.43309L99.1575 4.6073L98.8118 4.74334L98.7087 4.86445L98.5342 5.00382L98.3614 5.02041L98.2583 4.83127L98.0705 4.91589L98.034 5.10668L97.9293 4.96566L97.9475 4.81302L97.7747 4.75993L97.9475 4.74334L98.0872 4.57245L98.4495 4.31198L98.4129 4.50277L98.3281 4.67532L98.3448 4.84786L98.4129 4.77984L98.4495 4.5907L98.5691 4.4165L98.742 4.38332L98.5874 4.57245L98.7752 4.69191L99.071 4.03823L98.983 3.86402L98.8118 3.8972V3.70973L98.983 3.76116L98.9996 3.58861L98.9663 3.39948L99.1575 3.43266L99.2954 3.3298L99.312 3.14066L99.2273 2.96811L98.8118 3.34805L98.6572 3.53718L98.2932 3.64005L97.9293 3.98514L97.9642 4.17593L98.137 4.13943L98.3281 4.15934L97.9642 4.2257L97.8096 4.07141L97.9293 3.8972L98.2766 3.58861L98.4495 3.48243L98.7752 3.08757L98.7254 3.26011V3.43266L98.8118 3.26011L98.9996 3.08757L99.071 2.86359L98.9663 2.41398L99.0195 2.2265L98.8284 2.3642L98.8118 2.555L98.6921 2.27627L98.501 2.34761L98.4844 2.15682L98.4328 1.98261L98.2583 2.0357L98.0705 2.0523L97.8628 1.91625L97.4972 1.82832L97.3077 1.70886L96.9603 1.60434L96.7027 1.44839L96.5847 1.2775L96.3936 1.17298L96.2025 1.01702L95.8734 0.690182L95.6823 0.585659L95.7355 0.826227L95.6823 0.864386L95.6324 1.05186L95.5111 1.241L95.5277 1.41355L95.4745 1.58775V1.77689L95.5111 1.94943L95.649 2.15682L95.7355 2.5185L95.7537 2.70764L95.6657 3.43266L95.7355 3.88061L95.6823 4.4165L95.6158 4.6073L95.6823 4.65707L95.7355 4.48452L95.9083 4.6073L96.0812 4.79643L96.2557 4.86445L95.9615 4.8993L95.6823 5.037L95.649 4.84786L95.5809 5.2112L95.6324 5.40034L95.6657 5.38043L96.0313 5.50155L96.0978 5.67575H96.0479L95.8568 5.57123L95.7355 5.74543L95.787 5.91632L95.649 6.10711L95.7704 6.27966L95.7537 6.34768L95.649 6.19173L95.4745 6.21164L95.546 5.86655L95.5111 5.67575L95.2867 6.58991L95.4579 6.57166L95.5992 6.7608L95.9781 6.67618L96.0812 6.84873L96.2557 6.88357L96.3055 6.90016L96.3936 6.95159L96.4451 6.96818L96.4966 7.14239L96.6678 7.31327L96.8423 7.29668L96.6678 7.38295L96.4784 7.29668L96.4617 7.28009L96.357 7.1258L96.1859 6.98477L95.9947 7.03952L95.8235 7.02127L95.7704 6.935L95.6324 6.91841L95.6158 6.96818L95.6823 7.0727L95.6324 7.05611L95.6158 7.00136L95.4413 6.84873L95.3748 7.03952L95.3034 7.39955L95.1488 7.57375L95.1671 7.60693L95.1322 7.77948L95.0441 7.95202L95.0607 8.14282L95.1322 8.26393L94.9759 8.43482L94.8879 8.62561L95.0108 8.7965L94.8363 8.74673L94.8197 8.88443L94.7333 9.05698L94.7167 9.24445L94.6286 9.43525L94.5954 9.62605L94.4042 9.90145L94.3544 10.0906L94.0752 10.6082L94.0087 10.9533L93.8508 11.315L93.8874 11.5058L93.8707 11.5755L93.7477 11.6617L93.643 11.8343L93.5417 12.196L93.1777 13.1101L93.0763 13.3009L93.0215 13.4718L93.2126 13.4038L93.2292 13.4901H93.0397L92.8852 13.646L92.6774 13.9895L92.6076 14.1803L92.6774 14.1968L92.5063 14.3014L92.4365 14.4922L92.365 14.318L92.021 15.0413L91.6753 15.4909V15.851L91.7617 16.216L91.7102 16.4051L91.5706 16.5942L91.5357 16.7668L91.4343 16.9907L91.4692 17.6992L91.6404 18.0609L91.519 18.4408L91.416 18.6133L91.5357 18.8191L91.519 18.9933L91.5539 19.3533L91.519 19.3915L91.4692 19.7349L91.0371 20.5097L91.0703 20.6839L91.0005 20.8747L90.8792 21.0456L90.7944 21.2347L90.8459 21.2878L90.6714 21.4072L90.4836 21.4935L90.3789 21.6677L90.2061 21.8552L90.0515 22.2169V22.5122L90 22.703L90.3789 23.2356V23.4081L90.5003 23.5807L90.6714 24.1331L90.6548 24.3057L90.6914 24.4948L90.6548 24.6674V24.8913L90.5335 25.0639L90.3789 25.409L90.4138 26.134L90.3789 26.4111L90.2244 26.582L90.3789 26.9453L90.5867 27.307L90.7761 27.8429L90.8958 28.0337L91.0537 28.2029L91.1401 28.3754L91.1734 28.5662L91.1567 28.7388L91.19 28.6707L91.2083 28.6873L91.3628 29.0474L91.416 29.4124L91.2947 29.0474L91.2614 29.2382L91.1401 29.429L91.0703 29.6181L91.2614 29.5003L91.4509 29.7044L91.5024 29.8786L91.6919 29.998L91.7949 30.1872L91.9694 30.3614L92.124 30.2568L92.0392 30.066L92.1772 29.9466L92.1406 29.7575L92.2287 29.5667L92.4182 29.5003L92.5894 29.6529L92.7306 29.8421L92.9018 29.9466L93.0564 29.8587L93.2292 29.8786L93.3854 30.0495L93.7311 30.066L93.9056 29.93L93.8508 30.0495L93.6796 30.1706H93.8508L94.0419 30.086L94.0585 30.1025L93.6979 30.2386L93.1611 29.9814L92.8852 29.998L92.714 29.8587L92.5561 29.93H92.3849L92.2802 30.1191L92.4015 30.2933L92.3484 30.4642L92.4182 30.6517L92.5229 30.723L92.5727 31.0665V31.4116L92.714 31.6024L92.5395 31.5692L92.365 31.3618L92.2619 31.171L92.0908 31.0499L92.1074 30.8757L92.2104 30.7065L92.1938 30.5157L92.1572 30.446H91.9694L91.883 30.6019L91.8664 30.7745L91.7268 31.1378L91.8315 31.3087L91.8481 31.6704L91.7949 31.8446L91.7268 31.9657V32.1349L91.7949 32.3091L92.0908 32.845L92.2802 32.9993L92.6259 33.0358L92.7306 33.3975V33.7758L92.6442 33.7409L92.5727 33.9135L92.2104 34.0877V34.466L92.1572 34.8276L92.2453 35.0168L92.5395 35.3801L92.6259 35.7418L92.7805 35.8795L92.8154 36.2611L93.0048 36.6045L93.0215 36.7953L93.0929 36.9679L93.3173 37.157L93.4187 37.5203L93.7477 37.8638L93.7826 38.0546L93.643 38.1757L93.6098 38.3648L93.7477 38.5374L93.9389 38.607L94.0752 38.7962L94.0585 38.9687L93.9056 39.2275V39.5892L93.8009 39.7634L93.8342 39.9492L93.7145 40.14L93.6979 40.3308L93.8175 40.3657L93.9389 40.5532L94.0934 40.7274L94.6286 40.8153L94.8031 40.8817L94.9926 40.9182L95.3383 41.1587L95.5111 41.2301L95.8734 41.2632L96.1692 41.4872L96.3055 41.6598L96.4784 41.8157L96.5299 42.1758L96.9271 42.5059L97.2894 42.7299L97.9991 42.8493L98.034 42.8842L98.1719 43.2459L98.1885 43.4184L98.137 43.591L98.1553 43.7635L98.3448 43.8846L98.4328 43.7469L98.604 43.7817L98.7952 43.8846L98.9663 44.1766L99.1076 44.3508L99.2954 44.5051L99.8821 45.2633L100.057 45.6267L100.176 46.0414L100.211 46.4031L100.176 46.7648L100.091 47.1099V47.3007L100.143 47.163L100.332 47.2824L100.264 47.455L100.176 47.2658L100.244 47.455L100.298 47.7121L100.384 47.732L105.93 48.3011L105.672 48.6628L105.601 48.8536L106.154 49.1788L110.805 51.8532L113.846 53.5621L117.388 54.0615L118.561 54.2008L120.394 54.4248L120.569 54.3551L120.67 53.4244L120.776 53.2004L124.594 53.6152H124.611V53.5438L124.509 53.4078L124.404 53.0627V52.9764V53.0627L124.509 53.4078L124.611 53.5438V53.6152L124.767 53.6981L124.783 53.7164L124.871 53.733L125.043 53.8723L125.146 54.0449L125.181 54.2174L125.337 54.5625L125.51 54.7002L125.855 54.891L126.028 55.0619L126.374 55.5281L126.72 55.8732L126.806 56.064L127.117 56.424L127.308 56.5617L127.481 56.6314L127.843 56.9599L128.014 57.0478L128.051 57.2187L128.189 57.305L128.257 57.4775L128.308 57.8376L128.397 57.9089L128.551 58.2706L128.654 58.4431V58.6157L128.603 58.8048L128.621 59.1516L129.001 60.0475L129.242 60.288L129.417 60.3594L129.588 60.4788L129.708 60.6514L130.123 61.0313L130.296 61.0993L130.658 61.1873L130.745 61.3764L131.229 61.602L131.401 61.7895L131.576 61.9289L131.747 61.9455L131.764 62.0135L131.938 62.05H132.231L132.284 61.8924L132.473 61.7713L132.576 61.602L132.751 61.5307L132.817 61.3565L132.856 61.1707L132.959 61.0993L133.251 60.376L133.407 60.152L133.495 60.0641L133.667 60.0475L133.854 59.9612L134.029 59.9778L134.2 59.928L134.307 59.7538H134.478L134.79 59.928L134.961 59.9778L135.152 59.9446L135.324 59.9778H135.515L135.998 60.1172L136.19 59.9977L136.362 60.0641L136.534 60.2051L136.605 60.376L136.741 60.5303L136.776 60.668L136.949 60.6348L137.019 60.8073L137.208 60.9633L137.379 61.0496L137.399 61.2039L137.916 61.602L138.124 61.9621L138.262 62.1346L138.365 62.6025L138.573 62.9808L138.644 63.1516V63.223L138.764 63.3756L138.852 63.5498L139.007 63.7406L138.953 63.7904L139.04 64.1537L139.211 64.5154L139.402 64.6714L139.577 64.7394L139.731 64.9999L139.781 65.1708L139.939 65.2919L140.077 65.4827L140.113 65.6535L140.456 66.138L140.752 66.2226L140.924 66.3603L140.976 66.4466L140.959 66.6208L141.026 66.7917L141.009 66.9825L140.924 67.1733L141.114 67.3093V67.4985L141.079 67.6727L141.097 67.8435L141.234 68.0178L141.425 68.3628L141.563 68.552L141.701 68.9303L141.754 69.3102L141.945 69.4844L141.908 69.6553L142.013 69.7084L142.375 69.7415L142.548 69.8295L142.651 69.8112L142.824 69.9323L142.944 70.1032L143.048 70.1729L143.24 70.1397L143.414 70.2243L143.602 70.2442L143.948 70.5711L144.102 70.6391L144.83 70.7088L145.246 70.6922L145.417 70.7768L145.588 70.8117L145.935 71.1568H145.969L146.158 71.2961L146.333 71.2779V71.1053L146.781 70.9842L146.869 70.9676L146.833 70.7602L146.627 70.9328L146.678 70.7436L146.54 70.9328L146.402 70.6922H146.59L146.47 70.518L146.419 70.1563L146.125 69.5508L146.141 69.3616L146.003 68.7411L145.829 68.5702V68.396L146.003 68.4657L145.812 68.2417L145.829 68.0675H146.003L146.02 67.88L146.108 67.7058V67.5167L146.158 67.3442L145.812 67.4304L145.453 67.3276L145.487 67.1368L145.382 67.0356L145.295 66.8448L145.47 66.9825L145.606 67.1567L145.779 67.1368L145.9 67.0853L146.075 67.1368L145.9 67.2761L146.158 67.1899L146.524 66.2923L146.47 66.1198L146.382 66.0683L146.246 65.8974V65.7581L146.075 65.8095L145.969 65.7415L146.158 65.69L146.54 65.6535L146.711 65.8261L147.057 65.345L147.162 65.1542V64.9999L146.989 65.121L146.903 65.2919L146.731 65.1376L146.833 64.9634L146.781 64.8771L146.972 64.897L147.145 64.8091L147.197 64.9468L147.37 64.7726L147.421 64.6017L147.438 64.7726L147.37 64.9468L147.542 64.8605L147.75 64.6183V64.4275L147.662 64.2582L147.75 64.0675L147.715 63.9978L147.956 64.3429L148.131 64.4109L148.666 64.1189L148.699 64.0509L148.526 63.9463L148.339 63.9978L148.442 63.8252L148.267 63.7041L148.076 63.3424L148.267 63.3258L148.302 63.447L148.58 63.6709L148.751 63.5996L148.596 63.2562L148.629 63.2396L148.734 63.4304L148.907 63.5166L149.096 63.3939L149.166 63.5664L149.341 63.5498L149.236 63.6709L149.6 63.5166L149.545 63.6875L149.184 63.8949L149.166 63.9463L149.703 63.6543L150.065 63.5166L150.273 63.3756L150.082 63.4121L149.907 63.5332L149.874 63.359L150.24 63.2396L150.582 63.2047L150.928 62.9608L151.189 62.843L151.36 62.7037L151.707 62.3752L151.739 62.0666L152.035 61.8592L152.154 61.6883L152.329 61.602L152.414 61.3764L152.224 61.3067V61.0496L152.053 60.9085L152.071 60.7377L151.983 60.5502L152.071 60.4788L152.329 60.6348L152.43 60.4457L152.605 60.3046L152.778 60.3428V60.6348L152.638 60.9965L153.02 60.892H153.366L153.333 60.945L153.142 60.9799L152.743 61.2553L152.638 61.4444H152.691C153.128 61.0015 153.798 60.8488 154.333 60.5502L154.868 60.4954L154.609 60.1172L154.819 59.7538C154.89 59.6875 154.942 59.641 154.996 59.5912L154.99 59.5995L154.973 59.6161H154.99L155.06 59.8069L154.99 59.9977L154.819 60.0807L154.782 60.2715L154.973 60.4108L155.144 60.288L155.992 60.2018L156.06 60.0989L155.887 59.9778L156.06 59.8401L156.095 59.3921L156.251 59.5663L156.321 59.7372V59.9098L156.146 59.9977L156.095 60.0807L156.268 60.152L156.459 60.1686L156.821 60.2549L157.187 60.3926L157.375 60.4954L157.687 60.6L158.585 60.7377L158.756 60.7194L159.015 60.5834H159.188L159.068 60.3046L158.895 60.1686L159.085 60.152L159.155 60.0807L159.344 59.9977L159.706 59.8766L159.673 60.0641L159.69 60.1686L159.864 60.1172L160.225 60.0807L160.28 60.2715L160.449 60.3594L160.521 60.6165H160.71L161.054 60.7377L161.159 60.5668L161.212 60.5502V60.4108L161.245 60.5834L161.212 60.6L161.192 60.7907L161.315 60.9633L161.503 61.0827L161.591 61.2735L161.541 61.4444L161.678 61.5307L161.865 61.461L162.214 61.6883L162.402 61.602H162.455L162.645 61.7049L162.784 61.6186V61.3764L162.836 61.1873L163.025 61.1707L163.198 61.0993L163.285 61.0662L163.351 61.2553L163.526 61.1873L163.717 61.237L163.7 61.5141L163.785 61.6883L163.941 61.6186L164.114 61.4776L164.2 61.3067L164.079 61.1325L164.252 61.0827L164.2 60.7377L163.838 60.5303L163.805 60.3594L163.821 60.3428L164.46 60.6L164.633 60.6348L164.804 60.7194L164.892 60.7907L164.77 60.9799H164.958L165.133 60.9268L165.254 61.1159L165.462 61.1524L165.636 61.0993L165.686 61.2735L165.806 61.461L165.979 61.4975L165.997 61.2735L166.085 61.461L165.962 61.6352L165.824 61.9969L165.997 61.826L166.067 61.6518L166.203 61.461L166.447 61.7547L166.482 61.5855L166.569 61.3947L166.549 61.2901L166.723 61.237L166.707 61.1873L166.532 61.1325L166.447 60.9633L166.291 60.8588L165.945 60.8073L165.756 60.7028L165.532 60.7194L165.445 60.5303L165.254 60.4457L165.046 60.3926L164.978 60.2018L165.149 60.1354L165.1 60.0143L165.291 59.9977L165.462 60.0641L165.341 59.928L165.254 59.7538L165.445 59.5829L165.616 59.6161L165.67 59.6692L165.721 59.4784V59.3042L165.565 59.2196L165.548 59.0122L165.497 58.8397L165.221 59.0288L165.203 59.2196L165.133 59.3921H164.958L164.875 59.2196L164.701 59.2544L164.563 59.1333L164.546 59.0802L164.925 58.8563L165.011 58.6671L164.978 58.6505L164.787 58.7716L164.77 58.5991L164.649 58.7716L164.476 58.6671L164.322 58.8397L164.147 58.9093L163.63 58.9624H163.351L163.127 58.8563L163.11 58.6837L163.268 58.5145L163.509 58.1329L163.682 58.0831L163.923 58.1163L164.114 58.2357L164.287 58.3934H164.46L164.579 58.4597L164.649 58.41L164.822 58.5643L165.011 58.5808L165.063 58.5477L165.083 58.5991L165.291 58.5145L165.462 58.4946L165.532 58.3237L165.721 58.1661L165.773 58.0831L165.738 58.0649L165.894 58.0284L165.861 58.0649L166.032 58.045L166.394 57.8923L166.757 57.821L166.843 57.7712L166.585 57.7546L166.878 57.7198L167.067 57.8575L167.242 57.9089L167.415 57.8376L167.465 57.7712L167.828 57.9089L167.935 57.7198L168.106 57.6849L168.45 57.7546H168.625L168.658 57.1159L168.693 56.9267L168.763 56.7691L168.746 56.6862L168.849 56.8222L168.934 56.8388L169.038 57.0113L169.073 57.1839L169.003 57.3564L169.09 57.5306L169.279 57.6318L169.333 57.597L169.454 57.7878L169.419 57.9603L169.23 58.0284L169.057 58.0118L168.934 58.0997L169.643 57.9786L169.833 57.9089L169.886 57.7364L169.849 57.6849L170.041 57.7198L170.215 57.5638L170.265 57.2353L170.439 57.305L170.456 57.3913L170.283 57.5638L170.195 57.7364L170.301 57.7546L170.489 57.6849L170.664 57.5804L170.818 57.3398L170.905 57.1507L170.872 57.081L170.853 57.0644L170.956 56.9599L171.043 57.2005L171.147 57.0279L171.217 56.8222L171.25 56.9948L171.442 57.1673L171.302 57.3398L171.026 57.4079L170.973 57.4427L171.162 57.4261L171.717 57.2884L172.183 57.2353L172.271 57.2187L172.633 56.8919L172.686 57.0478L172.858 56.9599L173.049 56.9101L173.358 57.0478L173.444 57.2005L173.29 57.1673L173.1 57.081L172.927 57.1159L172.893 57.2187L172.529 57.2005L172.703 57.2552H172.876L173.599 57.4079L174.049 57.5638L174.413 57.7712L174.378 57.597L174.205 57.4958L174.119 57.3564L174.29 57.3216L174.465 57.4079L174.741 57.2005L174.706 57.373L174.568 57.4261L174.481 57.5804L174.741 57.7546L174.932 57.7198L175.035 57.9089L175.226 57.8923L175.121 58.0118L174.932 57.8923L174.568 57.7546L174.741 57.9255L174.913 58.0118L174.982 58.0831H174.913L175.101 58.186L175.276 58.2357L175.45 58.41L175.555 58.5991L175.588 58.7716L175.417 58.8231L175.347 58.6339L175.329 58.4597L175.311 58.6505L175.38 58.8231L175.555 58.8911L175.743 58.8745L175.813 58.8231L176.175 58.7219L176.349 58.7036L176.384 58.6157L176.575 58.4597L176.609 58.5477L176.78 58.5311L177.315 58.0831L177.506 58.0284L177.627 57.9786L177.819 58.0284L177.747 57.8575L177.523 57.7546L177.765 57.821L177.696 57.7364L177.782 57.5638L177.955 57.4261L178.302 57.3913L178.49 57.3398L178.593 57.3564L178.992 57.5638L179.165 57.5804L179.527 57.8044L179.786 58.1661L180.167 58.3403L180.253 58.5311L180.27 58.7036L180.79 59.047L180.945 59.2544L181.119 59.3241L181.221 59.495L181.395 59.5481L181.757 59.5132L182.032 59.7737V59.9446L182.173 60.1172L182.364 60.2051L182.381 60.3926L182.414 60.4788L182.447 61.0131L182.5 61.1873L182.482 61.3947L182.293 62.3072L182.346 62.4631V62.8248L182.259 63.1185L182.381 63.3092L182.569 63.4801L182.381 63.223L182.723 63.447L182.741 63.5166L182.863 63.3424L182.947 62.9808H182.778L182.723 62.9442V62.7734L182.605 62.6357V62.6025L182.984 62.79L183.036 62.9608L183.208 62.79L183.363 62.9608L183.398 63.1185L183.087 63.6543L183.036 63.9463L182.863 64.0144V64.1355L182.69 63.9978L182.811 64.1703L183.155 64.3429L183.26 64.5154L183.227 64.5851L183.622 65.2404L183.742 65.4113L184.021 65.7066L184.196 65.7581L184.365 65.7415L184.437 65.7747L184.383 65.6021L184.28 65.4296L184.107 65.3085L184.297 65.3284L184.383 65.4462L184.712 65.2753L184.746 65.3085L184.556 65.4296L184.678 65.6021L184.661 65.9655L184.694 66.1546L184.779 66.3271L184.762 66.4466L184.937 66.43L185.108 66.2392L185.145 66.0683L185.386 65.8775L185.178 66.138L185.161 66.3271L185.025 66.4997L185.042 66.6009L185.211 66.654L185.386 66.8083L185.577 67.4819L185.871 67.8435H186.007L185.834 67.9132L186.007 68.0178L186.197 67.9663L186.388 67.9846L186.492 68.0012L186.838 68.1372L186.89 68.3114L187.062 68.4491L187.289 68.7594L187.373 68.9485L187.682 69.2936L187.839 69.345H188.03L188.203 69.4844L188.098 69.6553L187.874 69.5508L187.702 69.4147L187.563 69.5872L187.633 69.7581L187.805 69.9489L188.168 69.8295L188.392 69.6918L188.567 69.725H188.758L188.927 69.6387L189.065 69.4844L189.24 69.3616L189.429 69.4661L189.324 69.3799L189.552 69.4661L189.481 69.2936L189.552 69.1045L189.67 68.9303L189.552 68.5868L189.602 68.4823L189.569 68.3114L189.653 68.1206L189.67 67.9497L189.81 67.7938L189.793 67.6212L189.845 67.4304L189.911 67.6212L189.929 67.4487L189.878 67.2247L189.845 66.8614V66.3271L189.81 66.138L189.776 65.3085L189.569 64.6349L189.481 64.5851L189.447 64.3611L189.153 63.9978L188.982 63.9115L188.927 63.9463L188.962 63.8783V63.7041L188.738 63.359L188.445 62.7385L187.754 61.7547L187.217 60.892L187.114 60.7194L186.89 60.1852L186.768 59.8235H186.838L187.009 59.928L186.976 60.0989L187.167 60.2715L187.338 60.2051L187.496 60.3229L187.529 60.5137L187.496 60.8754L187.614 61.4113L187.978 61.9787L188.168 62.1695L187.789 61.6352L187.702 61.461L187.598 61.1325L187.546 60.7725L187.682 60.6L187.598 60.4108L187.476 60.2383L187.131 59.8766L186.128 58.6157L185.558 57.6683L185.283 57.1325L185.007 56.4788L184.953 56.288L184.762 55.9246L184.712 55.5978L184.626 55.4269L184.453 55.2527L184.348 55.0619L184.453 55.183L184.488 54.8213L184.28 54.75L184.297 54.5625L184.176 54.39L184.212 54.2174L184.297 54.0449H184.176L184.28 53.8723L184.107 53.7164L184.28 53.8209L184.365 53.6318L184.124 53.6152L184.196 53.441L184.365 53.5438L184.521 53.2668L184.573 53.0959L184.383 53.0262H184.212L184.038 52.9416L184.091 52.9233L184.262 52.9764H184.437V52.7856L184.538 52.8022L184.661 52.4571L184.488 52.5102L184.402 52.424L184.573 52.2663L184.488 52.0955L184.678 52.2166L184.746 52.0258L184.729 51.9412L184.556 52.0092L184.521 51.8366L184.712 51.8035L184.85 51.5961L184.678 51.475V51.2842L184.85 51.3721L185.025 51.3555L185.007 51.1813L185.178 51.0602L185.266 50.8893L185.128 50.8694L185.211 50.5094L185.283 50.3368V50.5094L185.402 50.4911L185.523 50.3202L185.352 50.1809L185.266 50.0597L185.211 49.8889L185.042 49.5438L185.178 49.6815L185.266 49.8557L185.437 50.0083L185.457 49.6483L185.577 49.9735L185.75 50.0797L185.939 49.9386L186.024 49.6483L185.853 49.8175L185.974 49.6483L185.906 49.5604H185.715L185.54 49.4741L185.402 49.4907L185.75 49.3364L185.974 49.3862L186.147 49.2999L186.32 49.2833L186.492 49.1107L186.369 49.0261L186.544 49.1107L186.717 48.9714L186.923 48.9216L186.906 48.8171L187.081 48.7308L187.167 48.5417L186.993 48.472L186.923 48.2148H187.081L187.147 48.3857L187.322 48.3509L187.476 48.18L187.581 48.0075L187.702 47.9195L187.633 47.732L187.754 47.5578L187.927 47.6109L188.098 47.5578L188.168 47.387L188.304 47.1978L188.168 47.1265L188.342 47.1796L188.495 47.007L188.359 46.8345L188.184 46.7134L188.203 46.506L188.304 46.3152L188.359 46.282L188.237 46.6437L188.409 46.7134L188.478 46.8859L188.495 46.2986L188.583 46.1078L188.962 45.4027L189.361 44.9896L189.532 44.885V44.7822L189.637 44.7656L189.999 44.608L190.343 44.5217H190.656L190.83 44.4006L190.863 44.0389L190.742 43.6789H190.777L190.863 43.8481L190.985 44.2811V43.7469L191.038 43.5561L191.191 43.1944L191.435 42.8327L191.812 42.5059L191.709 42.3317L191.812 42.1592L191.729 42.0397L191.9 42.1077L191.779 42.2803L191.967 42.3483L192.02 42.3151L192.141 42.1426L192.316 41.7958L192.507 41.8672L192.938 41.6415H193.11L193.127 41.5552L193.265 41.3827L193.353 41.5735L193.42 41.3827L193.611 41.5038L193.68 41.4872L193.835 41.1421L193.993 40.9679L194.059 40.7805L193.993 40.6411L193.923 40.6577L193.835 40.8485L193.661 40.8817L193.715 40.7108L193.627 40.5366L193.577 40.7108L193.594 40.7274L193.456 40.7605L193.508 40.9347L193.335 40.8485L192.971 41.0725L192.608 41.0393L192.316 40.7605L192.175 40.5897L192.333 40.6942L192.524 40.7605L192.73 40.9182L192.919 40.9347L193.041 40.8485L193.318 40.5034V40.3308L193.145 40.3657L193.195 40.228L193.386 40.1948L193.456 40.004L193.077 39.8663H192.903L192.108 39.6589L192.055 39.5892L192.075 39.556L192.454 39.6589L192.798 39.6755L192.971 39.6058L193.094 39.6423L193.022 39.4681L193.006 39.2939L193.179 39.2773L193.077 39.3984L193.248 39.556L193.436 39.6058L193.456 39.4183L193.561 39.5892L193.732 39.6257L194.131 39.6423L194.284 39.4681L194.526 38.9156V38.7448L194.698 38.7962L194.855 38.6236L194.804 38.4677L194.769 38.106L194.648 37.9351L194.457 37.7609L194.475 37.8638L194.44 37.9849L194.181 38.0181V38.2089L194.234 38.554L194.059 38.7282L193.993 38.6402L194.114 38.4677L193.94 38.3997L194.026 38.2255V38.0181L193.993 37.8472L193.802 37.8306L193.524 37.9351L193.491 38.106L193.127 38.0181L192.938 38.1425L192.765 38.2089L192.574 38.2437L192.54 38.0546L192.401 37.8804L192.299 37.6896L192.263 37.5203L192.333 37.3644L192.367 37.4158L192.349 37.5867L192.524 37.9351L192.695 37.9152L192.886 37.9849L193.283 37.6564L193.094 37.5369H193.265L193.524 37.5867L193.386 37.4158L193.577 37.4855L193.749 37.4158V37.2582L193.561 37.1056L193.386 37.0525L193.577 37.0176L193.94 37.2416H194.164L193.993 37.0707L193.868 36.8998L194.234 37.1753L194.372 37.4158L194.355 37.225L194.01 36.709V36.6211L193.818 36.5879L193.68 36.4137L193.644 36.2428H193.699L193.868 36.3805L193.923 36.2063H193.785L193.975 36.1732L194.302 36.8816L194.423 37.0176L194.58 37.3644L194.751 37.5369L194.681 37.605L194.855 37.673L195.027 37.8638L195.131 38.0546L195.166 38.0015L195.063 37.814L194.613 37.2781L194.372 36.9164L194.059 36.1898L194.043 36.1566L193.715 35.6207L193.561 35.2607L193.059 35.2772L192.886 35.2424L192.833 35.4498L192.903 35.5527L192.73 35.468L192.59 35.4498L192.401 35.6207L192.454 35.4498L192.279 35.2772L192.108 35.1561L192.092 35.1727L191.967 34.9836L191.9 34.8094L191.709 34.8807L191.538 34.8094L191.38 34.8475L191.038 34.7065H190.484L190.534 34.6236L190.709 34.6567L191.071 34.5854L191.262 34.743H191.347L191.364 34.5522L191.538 34.7065L191.709 34.8094L191.884 34.6733L192.02 34.8641L192.195 35.0168L192.382 35.0881L192.557 35.2772L192.645 35.1727L192.765 35.1379L192.816 34.9487L192.748 34.7762L192.557 34.7065L192.507 34.5356L192.316 34.5854L191.95 34.4494L191.796 34.2752L191.417 33.9832L191.605 34.018L191.95 34.3283L192.316 34.4825L192.401 34.2918L192.246 34.1209L192.316 34.0694L192.487 34.1043L192.662 34.242L192.695 34.0694L192.608 33.7409L192.437 33.7575L192.263 33.7061L192.333 33.6547L192.141 33.5004L191.967 33.517L191.796 33.3809L191.744 33.2764L191.38 33.1022L191.244 32.913L191.055 32.8284L190.95 32.7239L190.847 32.5514L190.484 32.3257L190.327 32.3091L190.501 32.2925L190.709 32.3805L190.898 32.5331L191.055 32.7239L191.227 32.7919L191.38 32.9827L191.503 32.9993L191.867 33.2764L192.038 33.293L192.055 33.3444L192.246 33.4141L192.349 33.1536L192.333 32.9661L192.23 32.7919L192.401 32.8284V32.6376L192.02 32.4999L191.851 32.4833V32.4137H191.676V32.3091L191.503 32.1897L191.468 32.1017L191.123 32.1731L191.071 32.1349L190.88 32.1548L190.777 32.1183L190.484 31.8612V31.6886H190.293L190.086 31.8446L189.966 31.8944L189.793 31.8778L189.722 31.7052L189.793 31.6886L189.758 31.5144L189.828 30.9802L189.929 31.0499L189.983 31.0333L190.036 30.9636L190.017 30.8757L190.19 30.7065L190.135 30.5157L190.119 30.4111L190.036 30.222L190.155 30.3099L190.19 30.4642L190.224 30.6882L190.086 30.8591L190.069 31.0333L189.966 31.2042L189.911 31.2407L189.861 31.4116L189.894 31.6024L190.052 31.7766L190.19 31.5858L190.207 31.4647L190.381 31.395L190.484 31.5858L190.622 31.7583L190.814 31.8778V31.7052L190.847 31.6024L190.915 31.7766L191.088 31.9491L191.279 31.8778L191.452 31.8944L191.605 32.0686L191.659 32.0337L191.851 32.0503L192.02 32.1897L192.075 32.0337L191.851 31.6886L191.676 31.619L191.485 31.4647L191.227 31.3286L191.106 31.1544L190.985 30.7927V30.6882L191.038 30.8591L191.227 31.2241L191.417 31.3452L191.588 31.395L191.676 31.5144L191.779 31.3452L191.435 31.0001L191.33 30.6019L191.227 30.4277L191.279 30.2568L191.209 30.086L191.227 29.7575L191.088 29.6529L191.123 29.6181L191.314 29.6529L191.38 29.6363L191.209 29.5335L191.244 29.3427L190.814 29.0855L191.001 29.0308L191.055 29.0673H191.227L191.055 28.9113L191.227 28.9445L191.244 28.7222L191.209 28.616L191.262 28.5148L191.417 28.7039V28.4285L191.485 28.324L191.503 28.4982L191.676 28.4468L191.812 28.2742L191.693 28.0834L191.709 27.9789L191.884 27.9457L191.987 27.8926L191.95 28.0668L192.125 27.9291L192.175 27.9955L191.934 28.3588L192.175 28.3754L192.004 28.4634L191.832 28.4982L191.676 28.6707L191.588 29.205L191.709 29.3958L191.779 29.2216L191.851 29.2382V29.4124L191.884 29.4804L191.693 29.6363L191.538 29.6695V30.0329L191.571 29.8587L191.729 29.7575L191.779 29.6878L191.9 29.8587L192.075 29.8786L191.95 30.0329L192.038 30.2054L191.867 30.066L191.693 30.1374L191.659 30.3265L191.744 30.4991L191.779 30.3099L191.95 30.2734L192.055 30.3431L192.125 30.5157L192.349 30.5853L192.524 30.4991L192.401 30.6683L191.95 30.6351L191.9 30.8259L192.092 30.723L192.004 31.0665V31.2573L192.175 31.4481L192.125 31.2739L192.299 31.3618L192.471 31.4978L192.625 31.5692L192.574 31.3784L192.645 31.2042V31.3784L192.73 31.4647L192.886 31.1013V31.4481L193.006 31.4978L192.853 31.6886L192.886 31.8612L193.059 31.7583L193.127 31.8778L193.3 31.8097L193.23 31.9823L193.11 32.1731V32.2925L193.456 32.1731H193.611L193.456 32.3423L193.627 32.4634L193.594 32.6542H193.42L193.403 33.0192L193.265 33.3262L193.248 33.6895L193.283 33.8803L193.23 33.9301L193.248 34.2918L193.436 34.5522L193.594 34.2088L193.561 33.8803L193.594 33.6895L193.68 33.517L193.715 33.3444L193.887 33.4655L193.906 33.4489L193.956 33.2598L193.94 32.913L194.01 32.5514L194.131 32.2925L194.114 32.1183L194.164 31.8612L194.147 31.6886L194.284 31.5144L194.372 31.1544L194.457 31.2042L194.545 30.8425L194.372 30.6882L194.457 30.6185L194.491 30.5505L194.545 30.5339L194.58 30.723L194.596 30.5505V30.5339L194.475 30.1706L194.284 30.2054L194.199 30.2568L194.355 30.066L194.267 30.0495V29.8786L194.339 29.7044L194.267 29.5998L194.076 29.6181L193.732 29.3427L193.661 29.1685L193.473 29.0142L193.37 28.7388L193.353 28.5496L193.23 28.3754L193.059 28.241L192.903 28.0668L192.798 27.8926L192.816 27.7218L192.678 27.5475L192.765 27.4281L192.833 27.239L192.853 27.0664L192.938 26.9785L193.11 26.7877L193.283 26.7379L193.456 26.582V26.4111L193.594 26.2551L193.508 26.4459V26.6185L193.318 26.7545C192.989 26.9121 192.866 27.0332 192.853 27.4281L192.798 27.5475L192.781 27.6006L192.886 27.7715L192.903 27.7881L192.869 27.876L193.212 28.1697L193.403 28.2211L193.577 28.3074L193.887 28.5496L194.059 28.4634H194.423L194.491 28.6542L194.423 28.9445L194.44 29.1353L194.613 29.1187L194.718 28.981L194.751 28.8068L194.872 28.616L194.944 28.2576L195.027 28.0834L194.944 28.0502L194.96 27.9623L195.096 27.7881L195.268 27.7715L195.185 27.6189L195.304 27.4447L195.234 27.2738L195.409 27.2025L195.442 26.9951L195.563 26.8076L195.633 26.635L195.547 26.4625L195.6 26.2883L195.563 26.0145L195.492 25.8403L195.563 25.8072L195.6 25.633L195.667 25.7906L195.65 25.9615L195.701 26.3231L195.72 26.134L195.683 25.5998L195.633 25.4272V24.8748L195.58 24.6508L195.218 24.5993L195.045 24.6508L194.909 24.6176V24.1149L195.01 23.9075L195.063 23.9258L195.234 23.7549L195.218 23.6338L195.288 23.3749L195.304 23.1841L195.288 22.9933L195.166 22.562L194.993 22.3911L194.96 22.2169L194.977 22.1671L195.027 22.338L195.218 22.4608L195.304 22.7362L195.322 23.0116L195.339 23.2887L195.254 23.6669H195.322L195.409 23.4761L195.6 23.4081L195.617 23.2007L195.808 22.8225L195.979 22.7528L196.306 22.3911L196.496 22.2882L196.635 22.0974L196.737 22.1671L197.016 21.8038L197.207 21.7689L197.377 21.6677H197.568L197.656 21.5798L198.209 21.4404V21.3392L198.138 21.1999L198.226 21.2347V21.3226L198.415 21.3392L198.776 21.1152L199.142 20.9941L199.243 21.0273L199.226 20.941L199.208 20.8747L199.263 20.7337L199.226 20.5429L198.829 19.1293L199.521 18.9219L199.695 19.043L199.763 19.2173L199.866 19.2703L199.885 19.408L200.021 19.5441L200.16 19.632L200.3 19.5275L200.333 19.3533V19.5441L200.282 19.7166L200.436 19.7681L200.524 20.0285L200.541 20.1314L200.661 19.9406L200.832 19.9572L200.94 19.6652L201.111 19.5275L201.198 19.3533L201.37 19.2338V19.408L201.457 19.7681L201.646 19.7L201.819 19.5789L201.869 19.3915L201.94 19.4246L202.476 19.1293L202.683 19.063L202.788 18.8722L202.683 18.5271L202.442 18.2002L202.251 18.0609L202.077 18.0094L201.887 18.0443L202.077 18.0775L202.268 18.2002L202.338 18.3894L202.492 18.3728L202.58 18.6648L202.422 18.839L202.06 19.1127L201.887 19.063L201.698 19.0795L201.595 19.0099L201.422 18.6648L201.247 18.6316L201.076 18.5437V18.3728L201.247 18.4574L201.095 18.2682L200.749 17.9414L200.558 17.9049L200.367 18.0094L200.195 17.9049L200.074 17.734H200.265L200.179 17.5598L200.333 17.3723L200.3 17.301L200.383 17.1301L200.732 16.8862L200.765 16.6987L200.591 16.7336L200.627 16.7668L200.453 16.8016L200.282 16.6623L200.245 16.4914L200.109 16.4051L200.142 16.2325V16.0583L200.229 15.6983L200.142 15.6469L200.3 15.4743L200.367 15.2835L200.317 15.0944V14.9219L200.488 14.7493L200.627 14.4208L200.541 14.2483L200.782 13.8866L200.661 13.8352L200.644 13.6626L200.699 13.4718L200.973 13.0935L201.058 13.4204L201.076 13.2495L201.095 13.4204L201.181 13.2495L201.232 13.0587L201.282 13.0753L201.422 13.4386L201.472 13.2495L201.232 12.697L201.164 12.765L201.181 12.5942L201.266 12.42L201.247 12.6108L201.507 13.1964L201.578 13.0255L201.439 12.8347L201.49 12.5942L201.562 12.5577L201.663 12.7302L201.611 12.9044L201.803 12.989L201.714 12.6439L201.733 12.4565L201.768 12.42L201.751 12.5942L201.803 12.7816L201.94 12.8862L201.974 12.7136L201.957 12.5228L202.027 12.3519L202.218 12.3685L202.406 12.4365L202.476 12.2657L202.614 12.0583L202.527 11.8841L202.564 11.6949L202.544 11.5058L202.597 11.3333L202.614 11.1441L202.509 10.9732L202.771 10.8156L202.717 10.5236L202.856 10.6945L202.821 10.8687L202.996 10.8322L202.978 11.023L202.891 11.1441H203.253L203.513 11.247L203.41 11.0562L203.375 10.8853L203.426 10.6945L203.41 10.5236L203.566 10.6945L203.737 10.5402L203.704 10.3677L204.169 10.4871L204.29 10.6779L204.359 10.5037L204.29 10.3328L204.394 10.2465L204.462 10.4207L204.482 10.23L204.531 10.4207L204.566 10.23L204.515 10.0557L204.62 9.85002L204.772 10.0392L204.861 10.0557L204.895 9.8832H205.068V9.71398L205.223 9.62605H205.241V9.50659L205.414 9.53977L205.293 9.34898L205.569 9.38548L205.743 9.2627L205.931 8.91761L205.951 8.74673L205.76 8.58911L205.81 8.6588L205.673 8.833L205.499 8.67705L205.726 8.38339L205.394 8.0383L205.377 8.02005L205.361 8.00345L205.241 7.97027H205.103L204.964 8.12623L204.772 7.97027L204.669 7.77948V7.59034L204.531 7.41614L204.482 7.24691L204.531 7.05611L204.412 6.96818L204.237 7.03952H204.049L203.858 6.91841L203.687 6.935L203.634 6.7608L203.651 6.6065L203.546 6.43561V6.26141L203.322 5.65916L202.544 3.29495L202.389 3.26011L202.027 3.0013L201.663 2.84534L201.472 2.79557L201.266 2.88018L201.128 3.07098L200.957 3.15725L200.799 3.34805L200.627 3.41607L200.453 3.58861L200.245 3.53718L200.037 3.38123L199.936 3.01955L199.763 3.0013L199.59 3.03614L198.759 5.48495L198.881 6.22823L198.726 6.48705L198.64 7.02127L198.743 7.19216V7.55716L198.897 7.72805L198.691 8.10798L198.776 8.24402L198.484 8.60736L198.381 8.77991L198.347 8.9707L198.311 9.00389L198.502 9.36889L198.327 9.2992L198.277 9.3158L198.243 9.48668L198.277 9.65923L198.105 9.73057L197.932 9.64264L197.794 9.81518L197.623 10.006L197.448 9.95455L197.274 10.0906V10.2631L197.187 10.6248L197.224 10.799L197.207 10.8156L194.355 11.5589L193.661 11.7663L192.299 12.1445L191.038 12.42H190.863L190.501 12.6108L189.861 13.3009L189.29 14.2483L189.308 14.4722L189.032 14.8339L188.962 14.9733L188.773 15.1292L188.445 15.4743L188.409 15.6469L188.583 15.7846L188.616 15.8875L188.583 15.6983L188.773 15.6104L188.791 15.8709L189.032 15.7514L188.927 15.9223L188.894 16.0932L188.719 16.1629L188.894 16.5262L188.911 16.6457L188.982 16.8199L188.999 17.0073L188.877 17.1815H188.686L188.495 17.3889L188.271 17.5598L188.168 17.7506L188.013 17.9232L187.839 18.0277L187.721 18.2002L187.581 18.1488L187.217 18.1654L186.855 18.25L186.492 18.4574L186.024 18.2682L185.299 18.3014C184.731 18.333 184.174 18.6001 183.692 18.8722L183.501 18.9584V18.975L183.606 19.3035L183.589 19.4412L183.968 19.5109L183.986 19.5789L183.9 19.7L184.124 20.0966V20.2857L183.813 20.6308L183.725 20.8216L183.589 20.9941L183.363 21.2181L183.069 21.5798L182.672 21.9763L182.605 22.0278L181.998 22.5122L181.982 22.4608L181.811 22.6483L181.445 22.9436L181.204 23.0813L180.15 23.7001L179.786 23.9622L179.614 24.0983L179.459 24.2692L179.269 24.5479L178.922 24.8582L178.56 24.9079L178.385 24.8748L178.006 25.0473L177.835 25.1684L177.644 25.2364L177.473 25.3758L177.298 25.341L177.091 25.2364H176.728L176.555 25.3924L176.384 25.3758L176.555 25.2033L176.833 25.1336L176.675 24.9627L176.504 25.1336L176.313 25.0987L176.142 24.9627L175.881 24.9079L175.708 24.8233L175.329 24.7719L175.276 24.7022L175.397 24.3405L175.708 23.8046L175.726 23.2704L175.779 23.0979L175.829 23.0116L175.847 22.9767L176.054 22.8225L176.193 22.6483L176.175 22.2716L176.296 22.0974L176.329 21.9431L176.521 21.8386L176.609 21.9597L176.659 22.1323L176.625 22.1837L176.745 22.1323L176.85 21.9597L176.883 21.5798L176.833 21.4072L176.866 21.0456L176.916 20.9775L176.9 20.8382H176.883L176.712 20.5429L176.625 20.3388L176.521 19.9572L176.418 19.5988L176.313 19.4246L176.122 18.7145L175.916 18.3529L175.743 18.182L175.572 18.1123L175.38 18.0775L175.101 18.2848L174.932 18.3529L174.741 18.5271L174.568 18.5968L174.603 18.7676L174.518 19.0795L174.343 19.2173L174.257 19.3915L174.119 19.5789L173.948 19.5109L173.757 19.4927L173.532 19.2869L173.516 19.0099L173.549 18.6482L173.74 18.5088L173.928 18.474L174.102 18.2002L174.119 17.8369L174.172 17.6627L174.343 17.5598L174.518 17.3889L174.446 16.8199L174.465 16.4565L174.378 16.0932L174.29 15.9223L174.102 15.8012L173.998 15.627L174.066 15.403L174.239 15.3698V15.1973L174.137 15.1292L173.998 14.9567L173.948 14.7825L173.757 14.663H173.582L173.394 14.5751L173.012 14.4722L172.839 14.3876H172.65L172.479 14.3345L172.374 14.1637L172.199 14.0608L172.028 14.006L171.872 14.0409H171.701L171.526 13.9032L171.354 13.8534L171.162 13.7489L171.009 13.8866L170.835 13.9729L170.732 14.1637L170.559 14.3694V14.5419L170.647 14.7327L170.818 14.8339L170.835 14.9899H170.594L170.406 15.0944L170.232 15.2321L170.11 15.403L170.195 15.9555V16.1629L170.16 16.3371L170.11 16.5262L169.952 16.6987L170.007 16.5262V16.1629L169.936 16.1811L169.886 16.5445L169.765 16.717L169.728 16.5445L169.8 16.3703L169.711 16.1811L169.765 16.0583L169.816 15.5606L169.643 15.6983L169.575 15.8709L169.454 16.0417L169.419 16.216L169.279 16.3885L169.108 16.3371L168.882 16.6623L168.899 16.8365L168.746 17.0073L168.571 17.1484L168.674 17.4918L168.641 17.8037L168.674 17.9746L168.658 18.1654L168.45 18.698L168.295 18.8888L168.279 19.063L168.382 19.2338L168.522 19.7681L168.4 19.9572L168.33 20.1314L168.364 20.3023L168.866 21.253L169.038 21.1833L168.934 21.3558L169.178 21.9083L169.279 22.6317V23.1675L169.178 23.8212L169.108 24.012L168.917 24.3737L168.763 24.9079L168.674 25.0805L168.555 25.2713L168.382 25.4438L168.314 25.4953L167.95 25.7557L167.587 25.9432L167.396 25.998L167.155 25.9432L166.914 25.774L166.723 25.4953L166.672 25.321L166.569 25.1336L166.516 24.8582L166.344 24.7022L166.153 24.3571L166.118 24.1862L166.137 23.8212L166.118 23.6503L166.067 23.2704L166.102 23.0979V22.9104L166.049 22.7362L165.929 22.562V22.3911L165.773 22.2003L165.824 22.0278L165.703 21.6312L165.738 21.2878L165.861 20.9079L165.844 20.7337L165.877 20.5429L165.979 20.3554V20.1646L165.894 19.7863V19.6154L165.979 19.2504L166.067 19.063L166.24 18.9219L166.256 18.839L166.118 18.474L166.17 18.2848L166.203 17.9414L166.394 17.4221L166.427 17.2512L166.344 17.0604L166.186 16.8862L165.997 17.0256L165.824 17.0936L165.721 17.2678L165.686 17.4387L165.565 17.6295L165.392 17.7672L165.307 17.9414L165.133 17.9232L165.1 17.7506L165.149 17.5266L165.291 17.165L165.392 16.9742L165.409 16.8016L165.598 16.7336L165.773 16.6125V16.4914L165.824 16.3205L165.806 16.1463L165.997 15.851L166.256 15.3184L166.361 14.9567L166.464 14.7659L166.619 14.5751L166.69 14.2317L166.843 13.9729L166.776 14.1438L166.843 14.3345L166.948 14.5087L167.122 14.3511L167.155 14.2483L167.33 14.0608L167.501 13.9895L167.672 14.0243L167.656 14.2134L167.483 14.3511L167.396 14.5751L167.571 14.5934L167.689 14.4042L167.863 14.2317L168.053 14.094L168.071 13.8866L168.174 13.714L168.314 13.6278L168.503 13.5913L168.674 13.6112L169.022 13.5067H169.211L169.386 13.4038L169.539 13.1267L169.886 13.0753L170.077 13.1267L170.248 13.1101L170.611 13.2312L170.993 13.5415L171.162 13.6112V13.2827L171.217 13.0935L171.388 13.0587L171.56 13.1616L171.734 13.0935L172.58 13.1101L172.755 13.0587L172.65 12.8862L172.462 12.8015L172.442 12.6273L172.271 12.5394H172.218L172.047 12.42L172.028 12.2292L171.975 12.0583L171.872 11.8675L171.717 11.6949H171.631L171.576 11.7298L171.56 11.7464L171.458 11.9023L171.285 11.9886L171.162 11.8177L170.802 11.9537L170.456 11.9023L170.37 11.7464L170.351 11.1093L170.007 11.1607L169.833 11.2304L169.487 11.4378L169.314 11.4892L168.588 11.539L168.417 11.6103L168.106 11.6783L167.935 11.8509L167.571 12.0749L167.293 12.4365L167.139 12.3685L166.964 12.3868L166.776 12.3519L166.602 12.196L166.186 12.3519L166.014 12.3685L165.824 12.2823L165.721 12.0915L165.392 11.7464L165.291 11.5589L165.116 11.5224L164.942 11.3681L164.752 11.3333H164.388L164.217 11.4029L164.097 11.5755L164.011 11.6269L164.164 11.2636L163.993 11.4378L163.821 11.539L163.767 11.7132L163.7 11.7829L163.647 11.6103L163.682 11.247L163.389 10.8853L163.268 10.8156L163.147 10.6447L162.766 11.0744L162.661 11.247L162.299 11.4029L162.11 11.5921L161.937 11.7132L161.766 11.7829L161.574 11.7995L161.4 11.8509H161.212L161.021 11.9537L160.694 12.3154L160.158 12.5577L159.984 12.6638L159.673 12.6273L159.5 12.5394L159.311 12.5062L159.136 12.6108H158.947L159.015 12.4896L159.068 12.3154V12.1445L159.188 11.972L159.223 11.7829L159.032 11.6435L158.809 11.7464L158.636 11.8841L158.445 11.9886L158.257 12.0417L157.911 12.2491L157.203 12.5062L157.029 12.5394L156.838 12.5062L156.667 12.332L156.753 12.196L157.288 11.7663L157.461 11.6103L157.564 11.471L157.754 11.315L158.221 10.7824L158.41 10.4871L159.085 9.83177L159.638 9.50659L159.984 9.34898L160.175 9.2992L160.762 8.9873L160.935 8.88443L161.107 8.71189L161.279 8.58911H160.847L160.657 8.67705L160.488 8.58911L160.468 8.53934L160.296 8.3668L159.931 8.40164L159.743 8.45141L159.377 8.43482L159.188 8.48791H159.015L158.964 8.31536L158.86 8.26393L158.877 8.14282L158.689 8.15941C158.144 8.39998 158.025 9.06693 157.237 8.53934L157.203 8.40164L156.683 8.176L156.613 8.00345L156.424 7.95202L156.146 7.98686L156.095 8.26393L155.905 8.176L155.802 8.05489L155.786 7.88566L155.613 7.72805L155.422 7.74464L155.472 7.55716L154.749 7.2635H154.35L154.179 7.28009L154.127 7.29668L154.074 7.32986L153.953 7.34977L153.848 7.52066L153.399 7.62352L153.208 7.52066L153.158 7.34977L152.38 7.2635L152.208 7.14239H151.847L151.672 7.0727L151.515 6.90016L151.535 6.643L151.377 6.1237L151.274 5.57123L151.119 5.40034L150.773 5.36384L150.652 5.31407L150.67 6.17514L150.635 6.34768L149.218 6.38252H145.158L141.408 6.29625L137.019 6.10711L134.099 5.91632L132.751 5.81345C126.675 5.30909 120.582 4.52102 114.591 3.41607L111.877 2.88018L111.461 2.79557L110.062 2.50025L108.298 2.14023L105.014 1.38036L102.181 0.673591L99.6777 0L99.5364 0.121114ZM98.6041 9.43532L98.7752 9.40214L98.9664 9.29928L98.7786 9.40214L98.6041 9.43532L98.2417 9.47016L98.6041 9.43532ZM104.6 9.83197L104.411 9.93649L104.6 9.83197ZM102.372 9.90149L102.734 9.86664L102.372 9.90149L102.026 9.98776L102.372 9.90149ZM196.878 12.8511L196.91 12.8428C196.838 12.9058 196.765 12.9705 196.704 13.0253L196.878 12.8511ZM163.767 13.9197L163.597 13.9728L163.231 13.9197L163.597 13.9728L163.767 13.9197ZM148.059 14.6977L148.069 14.6014C148.076 14.6645 148.076 14.7242 148.076 14.7823L148.059 14.6977ZM158.257 19.9239L158.428 20.045L158.558 20.1727C158.485 20.1047 158.402 20.0317 158.257 19.9239ZM158.716 20.3854L158.756 20.4435L158.782 20.6194C158.766 20.5265 158.747 20.4518 158.716 20.3854ZM193.23 22.6149L193.162 22.7874L193.23 22.6149ZM94.0586 30.1023L94.2165 30.2566L94.3378 30.4275V30.4806L94.0586 30.1023Z" fill="white"/>
</mask>
<g mask="url(#mask0)">
<path fill-rule="evenodd" clip-rule="evenodd" d="M142.419 5.01357H206.147V-0.77002H142.419V5.01357Z" fill="#4D4D4D"/>
<path fill-rule="evenodd" clip-rule="evenodd" d="M142.419 16.581H206.147V10.7974H142.419V16.581Z" fill="#4D4D4D"/>
<path fill-rule="evenodd" clip-rule="evenodd" d="M142.419 28.1483H206.147V22.3647H142.419V28.1483Z" fill="#4D4D4D"/>
<path fill-rule="evenodd" clip-rule="evenodd" d="M142.419 39.7154H206.147V33.9302H142.419V39.7154Z" fill="#4D4D4D"/>
<path fill-rule="evenodd" clip-rule="evenodd" d="M90.2759 51.2823H206.147V45.4971H90.2759V51.2823Z" fill="#4D4D4D"/>
<path fill-rule="evenodd" clip-rule="evenodd" d="M90.2759 62.848H206.147V57.0645H90.2759V62.848Z" fill="#4D4D4D"/>
<path fill-rule="evenodd" clip-rule="evenodd" d="M90.2759 74.4154H206.147V68.6318H90.2759V74.4154Z" fill="#4D4D4D"/>
<path fill-rule="evenodd" clip-rule="evenodd" d="M137.275 6.28307L137.398 7.00312L136.751 6.663L136.103 7.00312L136.228 6.28307L135.706 5.77207L136.429 5.66755L136.751 5.01221L137.075 5.66755L137.798 5.77207L137.275 6.28307ZM137.275 15.076L137.398 15.7944L136.751 15.4543L136.103 15.7944L136.228 15.076L135.706 14.565L136.429 14.4605L136.751 13.8052L137.075 14.4605L137.798 14.565L137.275 15.076ZM137.275 23.8678L137.398 24.5862L136.751 24.2461L136.103 24.5862L136.228 23.8678L135.706 23.3585L136.429 23.254L136.751 22.5986L137.075 23.254L137.798 23.3585L137.275 23.8678ZM137.398 33.3792L136.751 33.0391L136.103 33.3792L136.228 32.6591L135.706 32.1498L136.429 32.0453L136.751 31.3916L137.075 32.0453L137.798 32.1498L137.275 32.6591L137.398 33.3792ZM133.972 10.6777L134.095 11.3977L133.449 11.0576L132.801 11.3977L132.924 10.6777L132.402 10.17L133.125 10.0655L133.449 9.41016L133.773 10.0655L134.496 10.17L133.972 10.6777ZM133.972 19.4712L134.095 20.1912L133.449 19.8511L132.801 20.1912L132.924 19.4712L132.402 18.9618L133.125 18.8556L133.449 18.2036L133.773 18.8556L134.496 18.9618L133.972 19.4712ZM134.095 28.9829L133.449 28.6428L132.801 28.9829L132.924 28.2645L132.402 27.7535L133.125 27.649L133.449 26.9937L133.773 27.649L134.496 27.7535L133.972 28.2645L134.095 28.9829ZM130.67 6.28307L130.793 7.00312L130.145 6.663L129.498 7.00312L129.621 6.28307L129.098 5.77207L129.823 5.66755L130.145 5.01221L130.471 5.66755L131.194 5.77207L130.67 6.28307ZM130.67 15.076L130.793 15.7944L130.145 15.4543L129.498 15.7944L129.621 15.076L129.098 14.565L129.823 14.4605L130.145 13.8052L130.471 14.4605L131.194 14.565L130.67 15.076ZM130.67 23.8678L130.793 24.5862L130.145 24.2461L129.498 24.5862L129.621 23.8678L129.098 23.3585L129.823 23.254L130.145 22.5986L130.471 23.254L131.194 23.3585L130.67 23.8678ZM130.793 33.3792L130.145 33.0391L129.498 33.3792L129.621 32.6591L129.098 32.1498L129.823 32.0453L130.145 31.3916L130.471 32.0453L131.194 32.1498L130.67 32.6591L130.793 33.3792ZM127.366 10.6777L127.491 11.3977L126.843 11.0576L126.194 11.3977L126.319 10.6777L125.796 10.17L126.52 10.0655L126.843 9.41016L127.167 10.0655L127.891 10.17L127.366 10.6777ZM127.366 19.4712L127.491 20.1912L126.843 19.8511L126.194 20.1912L126.319 19.4712L125.796 18.9618L126.52 18.8556L126.843 18.2036L127.167 18.8556L127.891 18.9618L127.366 19.4712ZM127.491 28.9829L126.843 28.6428L126.194 28.9829L126.319 28.2645L125.796 27.7535L126.52 27.649L126.843 26.9937L127.167 27.649L127.891 27.7535L127.366 28.2645L127.491 28.9829ZM124.064 6.28307L124.187 7.00312L123.54 6.663L122.892 7.00312L123.017 6.28307L122.495 5.77207L123.218 5.66755L123.54 5.01221L123.863 5.66755L124.587 5.77207L124.064 6.28307ZM124.064 15.076L124.187 15.7944L123.54 15.4543L122.892 15.7944L123.017 15.076L122.495 14.565L123.218 14.4605L123.54 13.8052L123.863 14.4605L124.587 14.565L124.064 15.076ZM124.064 23.8678L124.187 24.5862L123.54 24.2461L122.892 24.5862L123.017 23.8678L122.495 23.3585L123.218 23.254L123.54 22.5986L123.863 23.254L124.587 23.3585L124.064 23.8678ZM124.187 33.3792L123.54 33.0391L122.892 33.3792L123.017 32.6591L122.495 32.1498L123.218 32.0453L123.54 31.3916L123.863 32.0453L124.587 32.1498L124.064 32.6591L124.187 33.3792ZM120.761 10.6777L120.884 11.3977L120.238 11.0576L119.59 11.3977L119.713 10.6777L119.189 10.17L119.914 10.0655L120.238 9.41016L120.56 10.0655L121.285 10.17L120.761 10.6777ZM120.761 19.4712L120.884 20.1912L120.238 19.8511L119.59 20.1912L119.713 19.4712L119.189 18.9618L119.914 18.8556L120.238 18.2036L120.56 18.8556L121.285 18.9618L120.761 19.4712ZM120.884 28.9829L120.238 28.6428L119.59 28.9829L119.713 28.2645L119.189 27.7535L119.914 27.649L120.238 26.9937L120.56 27.649L121.285 27.7535L120.761 28.2645L120.884 28.9829ZM117.459 6.28307L117.582 7.00312L116.934 6.663L116.287 7.00312L116.41 6.28307L115.887 5.77207L116.611 5.66755L116.934 5.01221L117.256 5.66755L117.983 5.77207L117.459 6.28307ZM117.459 15.076L117.582 15.7944L116.934 15.4543L116.287 15.7944L116.41 15.076L115.887 14.565L116.611 14.4605L116.934 13.8052L117.256 14.4605L117.983 14.565L117.459 15.076ZM117.459 23.8678L117.582 24.5862L116.934 24.2461L116.287 24.5862L116.41 23.8678L115.887 23.3585L116.611 23.254L116.934 22.5986L117.256 23.254L117.983 23.3585L117.459 23.8678ZM117.582 33.3792L116.934 33.0391L116.287 33.3792L116.41 32.6591L115.887 32.1498L116.611 32.0453L116.934 31.3916L117.256 32.0453L117.983 32.1498L117.459 32.6591L117.582 33.3792ZM114.155 10.6777L114.28 11.3977L113.632 11.0576L112.983 11.3977L113.108 10.6777L112.585 10.17L113.308 10.0655L113.632 9.41016L113.954 10.0655L114.68 10.17L114.155 10.6777ZM114.155 19.4712L114.28 20.1912L113.632 19.8511L112.983 20.1912L113.108 19.4712L112.585 18.9618L113.308 18.8556L113.632 18.2036L113.954 18.8556L114.68 18.9618L114.155 19.4712ZM114.28 28.9829L113.632 28.6428L112.983 28.9829L113.108 28.2645L112.585 27.7535L113.308 27.649L113.632 26.9937L113.954 27.649L114.68 27.7535L114.155 28.2645L114.28 28.9829ZM110.853 6.28307L110.976 7.00312L110.329 6.663L109.681 7.00312L109.806 6.28307L109.281 5.77207L110.007 5.66755L110.329 5.01221L110.652 5.66755L111.376 5.77207L110.853 6.28307ZM110.853 15.076L110.976 15.7944L110.329 15.4543L109.681 15.7944L109.806 15.076L109.281 14.565L110.007 14.4605L110.329 13.8052L110.652 14.4605L111.376 14.565L110.853 15.076ZM110.853 23.8678L110.976 24.5862L110.329 24.2461L109.681 24.5862L109.806 23.8678L109.281 23.3585L110.007 23.254L110.329 22.5986L110.652 23.254L111.376 23.3585L110.853 23.8678ZM110.976 33.3792L110.329 33.0391L109.681 33.3792L109.806 32.6591L109.281 32.1498L110.007 32.0453L110.329 31.3916L110.652 32.0453L111.376 32.1498L110.853 32.6591L110.976 33.3792ZM107.55 10.6777L107.673 11.3977L107.027 11.0576L106.379 11.3977L106.502 10.6777L105.978 10.17L106.701 10.0655L107.027 9.41016L107.349 10.0655L108.072 10.17L107.55 10.6777ZM107.55 19.4712L107.673 20.1912L107.027 19.8511L106.379 20.1912L106.502 19.4712L105.978 18.9618L106.701 18.8556L107.027 18.2036L107.349 18.8556L108.072 18.9618L107.55 19.4712ZM107.673 28.9829L107.027 28.6428L106.379 28.9829L106.502 28.2645L105.978 27.7535L106.701 27.649L107.027 26.9937L107.349 27.649L108.072 27.7535L107.55 28.2645L107.673 28.9829ZM104.248 6.28307L104.371 7.00312L103.723 6.663L103.076 7.00312L103.199 6.28307L102.676 5.77207L103.399 5.66755L103.723 5.01221L104.045 5.66755L104.772 5.77207L104.248 6.28307ZM104.248 15.076L104.371 15.7944L103.723 15.4543L103.076 15.7944L103.199 15.076L102.676 14.565L103.399 14.4605L103.723 13.8052L104.045 14.4605L104.772 14.565L104.248 15.076ZM104.248 23.8678L104.371 24.5862L103.723 24.2461L103.076 24.5862L103.199 23.8678L102.676 23.3585L103.399 23.254L103.723 22.5986L104.045 23.254L104.772 23.3585L104.248 23.8678ZM104.371 33.3792L103.723 33.0391L103.076 33.3792L103.199 32.6591L102.676 32.1498L103.399 32.0453L103.723 31.3916L104.045 32.0453L104.772 32.1498L104.248 32.6591L104.371 33.3792ZM100.944 10.6777L101.069 11.3977L100.421 11.0576L99.7724 11.3977L99.8971 10.6777L99.3735 10.17L100.098 10.0655L100.421 9.41016L100.743 10.0655L101.466 10.17L100.944 10.6777ZM100.944 19.4712L101.069 20.1912L100.421 19.8511L99.7724 20.1912L99.8971 19.4712L99.3735 18.9618L100.098 18.8556L100.421 18.2036L100.743 18.8556L101.466 18.9618L100.944 19.4712ZM101.069 28.9829L100.421 28.6428L99.7724 28.9829L99.8971 28.2645L99.3735 27.7535L100.098 27.649L100.421 26.9937L100.743 27.649L101.466 27.7535L100.944 28.2645L101.069 28.9829ZM97.6418 6.28307L97.7631 7.00312L97.1183 6.663L96.4701 7.00312L96.5948 6.28307L96.0696 5.77207L96.7925 5.66755L97.1183 5.01221L97.4407 5.66755L98.1637 5.77207L97.6418 6.28307ZM97.6418 15.076L97.7631 15.7944L97.1183 15.4543L96.4701 15.7944L96.5948 15.076L96.0696 14.565L96.7925 14.4605L97.1183 13.8052L97.4407 14.4605L98.1637 14.565L97.6418 15.076ZM97.6418 23.8678L97.7631 24.5862L97.1183 24.2461L96.4701 24.5862L96.5948 23.8678L96.0696 23.3585L96.7925 23.254L97.1183 22.5986L97.4407 23.254L98.1637 23.3585L97.6418 23.8678ZM97.7631 33.3792L97.1183 33.0391L96.4701 33.3792L96.5948 32.6591L96.0696 32.1498L96.7925 32.0453L97.1183 31.3916L97.4407 32.0453L98.1637 32.1498L97.6418 32.6591L97.7631 33.3792ZM90.2759 39.7151H142.417V-0.77002H90.2759V39.7151Z" fill="#4D4D4D"/>
</g>
<path fill-rule="evenodd" clip-rule="evenodd" d="M24.4906 92.6201L24.8024 103.45H23.6395C23.0901 100.733 21.7418 98.5496 19.5929 96.8959C17.4457 95.2438 15.1215 94.4161 12.6238 94.4161C10.6923 94.4161 9.16366 94.8512 8.03782 95.7214C6.91197 96.5933 6.34905 97.5943 6.34905 98.7295C6.34905 99.4476 6.54793 100.087 6.94568 100.647C7.49344 101.397 8.37321 102.14 9.58501 102.874C10.4749 103.401 12.5277 104.337 15.7468 105.678C20.2519 107.546 23.2889 109.313 24.8597 110.973C26.412 112.635 27.1873 114.535 27.1873 116.677C27.1873 119.392 25.9333 121.728 23.4255 123.684C20.9176 125.64 17.7339 126.62 13.8726 126.62C12.6609 126.62 11.5165 126.515 10.4378 126.308C9.35748 126.1 8.00411 125.709 6.37771 125.133C5.46928 124.814 4.72096 124.654 4.13445 124.654C3.64231 124.654 3.12153 124.814 2.57209 125.133C2.02433 125.454 1.57939 125.941 1.23894 126.596H0.187256V114.328H1.23894C2.07153 117.777 3.67433 120.409 6.05074 122.223C8.42546 124.036 10.9856 124.942 13.7311 124.942C15.8496 124.942 17.5401 124.454 18.7991 123.481C20.0564 122.506 20.6867 121.373 20.6867 120.079C20.6867 119.312 20.4457 118.569 19.962 117.849C19.48 117.131 18.7468 116.448 17.7625 115.801C16.7783 115.154 15.0373 114.311 12.5378 113.273C9.03557 111.82 6.51928 110.582 4.98557 109.56C3.45186 108.537 2.27377 107.396 1.4513 106.133C0.627144 104.872 0.215908 103.481 0.215908 101.963C0.215908 99.3756 1.34175 97.1723 3.59512 95.3501C5.84681 93.5296 8.68669 92.6201 12.1114 92.6201C13.362 92.6201 14.5721 92.7477 15.7468 93.0029C16.6367 93.1943 17.7187 93.5492 18.9979 94.0694C20.2755 94.5879 21.1687 94.848 21.6794 94.848C22.1715 94.848 22.5609 94.7204 22.844 94.4636C23.1288 94.2084 23.3934 93.5934 23.6395 92.6201H24.4906Z" fill="#4D4D4D"/>
<path fill-rule="evenodd" clip-rule="evenodd" d="M38.0538 93.6201V121.898C38.0538 123.505 38.2661 124.532 38.6924 124.977C39.117 125.424 39.948 125.678 41.1873 125.745V126.62H27.1873V125.745C28.3327 125.711 29.1818 125.419 29.7365 124.867C30.1067 124.495 30.2911 123.505 30.2911 121.898V98.3401C30.2911 96.7502 30.0788 95.7334 29.6542 95.2865C29.2296 94.8396 28.4067 94.5854 27.1873 94.5206V93.6201H38.0538Z" fill="#4D4D4D"/>
<path fill-rule="evenodd" clip-rule="evenodd" d="M47.1734 92.6201C48.3747 92.6201 49.3918 92.9914 50.2229 93.7338C51.0556 94.478 51.472 95.371 51.472 96.4161C51.472 97.4613 51.0507 98.3526 50.2097 99.0867C49.3687 99.8208 48.3566 100.189 47.1734 100.189C45.9918 100.189 44.9846 99.8208 44.1519 99.0867C43.3208 98.3526 42.9044 97.4613 42.9044 96.4161C42.9044 95.371 43.3208 94.478 44.1519 93.7338C44.9846 92.9914 45.9918 92.6201 47.1734 92.6201ZM51.0555 103.717V121.868C51.0555 123.485 51.2678 124.518 51.6924 124.966C52.1186 125.416 52.9497 125.672 54.1873 125.739V126.62H40.1873V125.739C41.3343 125.706 42.1835 125.411 42.7381 124.856C43.1084 124.481 43.2927 123.485 43.2927 121.868V108.493C43.2927 106.876 43.0804 105.844 42.6558 105.395C42.2296 104.945 41.4084 104.689 40.1873 104.624V103.717H51.0555Z" fill="#4D4D4D"/>
<path fill-rule="evenodd" clip-rule="evenodd" d="M64.8175 104.29V107.227C66.2502 105.89 67.5752 104.954 68.7926 104.421C70.0117 103.888 71.3467 103.62 72.7976 103.62C74.4705 103.62 75.875 103.956 77.0096 104.624C78.1458 105.293 79.0187 106.312 79.6332 107.681C81.1206 106.248 82.5483 105.213 83.9164 104.576C85.2829 103.94 86.7107 103.62 88.1997 103.62C90.0034 103.62 91.4394 103.976 92.5094 104.683C93.5794 105.392 94.3231 106.292 94.7421 107.383C95.1612 108.474 95.3699 110.212 95.3699 112.6V121.748C95.3699 123.467 95.5504 124.535 95.9131 124.947C96.2759 125.361 97.0345 125.632 98.1873 125.761V126.62H84.7115V125.761C85.7715 125.681 86.5533 125.33 87.0552 124.709C87.3897 124.279 87.557 123.292 87.557 121.748V112.147C87.557 110.156 87.4643 108.891 87.2788 108.35C87.0916 107.809 86.7984 107.406 86.3993 107.143C86.0001 106.881 85.5297 106.749 84.9897 106.749C84.1897 106.749 83.3815 107 82.5632 107.502C81.745 108.003 80.9169 108.756 80.0788 109.759V121.748C80.0788 123.356 80.2378 124.367 80.5541 124.781C80.9815 125.37 81.7997 125.696 83.0088 125.761V126.62H69.5049V125.761C70.2303 125.728 70.8017 125.573 71.2208 125.295C71.6398 125.016 71.9181 124.682 72.0572 124.292C72.198 123.901 72.2676 123.053 72.2676 121.748V112.147C72.2676 110.125 72.1748 108.859 71.9877 108.35C71.8022 107.84 71.4908 107.442 71.0535 107.155C70.6162 106.869 70.1458 106.726 69.644 106.726C68.9003 106.726 68.2212 106.892 67.6067 107.227C66.7338 107.721 65.803 108.565 64.8175 109.759V121.748C64.8175 123.323 64.998 124.364 65.3608 124.864C65.7235 125.366 66.4821 125.665 67.6349 125.761V126.62H54.1873V125.761C55.2837 125.665 56.0655 125.361 56.5309 124.853C56.8473 124.502 57.0046 123.467 57.0046 121.748V109.137C57.0046 107.45 56.8241 106.4 56.4614 105.986C56.0986 105.572 55.3401 105.301 54.1873 105.174V104.29H64.8175Z" fill="#4D4D4D"/>
<path fill-rule="evenodd" clip-rule="evenodd" d="M109.817 104.29V107.227C111.25 105.89 112.575 104.954 113.794 104.421C115.012 103.888 116.347 103.62 117.798 103.62C119.472 103.62 120.877 103.956 122.011 104.624C123.146 105.293 124.019 106.312 124.633 107.681C126.122 106.248 127.548 105.213 128.916 104.576C130.283 103.94 131.711 103.62 133.2 103.62C135.003 103.62 136.441 103.976 137.509 104.683C138.579 105.392 139.323 106.292 139.742 107.383C140.161 108.474 140.37 110.212 140.37 112.6V121.748C140.37 123.467 140.552 124.535 140.915 124.947C141.278 125.361 142.034 125.632 143.187 125.761V126.62H129.711V125.761C130.772 125.681 131.553 125.33 132.055 124.709C132.39 124.279 132.557 123.292 132.557 121.748V112.147C132.557 110.156 132.464 108.891 132.279 108.35C132.093 107.809 131.8 107.406 131.399 107.143C131 106.881 130.53 106.749 129.99 106.749C129.191 106.749 128.381 107 127.563 107.502C126.745 108.003 125.917 108.756 125.08 109.759V121.748C125.08 123.356 125.238 124.367 125.554 124.781C125.981 125.37 126.8 125.696 128.009 125.761V126.62H114.505V125.761C115.23 125.728 115.802 125.573 116.221 125.295C116.64 125.016 116.918 124.682 117.057 124.292C117.198 123.901 117.268 123.053 117.268 121.748V112.147C117.268 110.125 117.175 108.859 116.988 108.35C116.802 107.84 116.491 107.442 116.054 107.155C115.616 106.869 115.148 106.726 114.644 106.726C113.9 106.726 113.221 106.892 112.608 107.227C111.734 107.721 110.803 108.565 109.817 109.759V121.748C109.817 123.323 110 124.364 110.362 124.864C110.725 125.366 111.482 125.665 112.635 125.761V126.62H99.1873V125.761C100.284 125.665 101.066 125.361 101.531 124.853C101.847 124.502 102.005 123.467 102.005 121.748V109.137C102.005 107.45 101.824 106.4 101.461 105.986C101.099 105.572 100.34 105.301 99.1873 105.174V104.29H109.817Z" fill="#4D4D4D"/>
<path fill-rule="evenodd" clip-rule="evenodd" d="M155.819 126.939L147.259 110.33C145.976 107.822 145.025 106.28 144.411 105.704C143.797 105.129 143.057 104.729 142.187 104.507V103.62H156.271V104.507C155.346 104.538 154.695 104.69 154.317 104.962C153.938 105.233 153.75 105.561 153.75 105.943C153.75 106.552 154.222 107.75 155.166 109.54L159.702 118.311L162.79 111.529C163.904 109.116 164.462 107.439 164.462 106.495C164.462 105.904 164.23 105.433 163.768 105.081C163.305 104.729 162.487 104.538 161.317 104.507V103.62H170.187V104.507C169.318 104.585 168.609 104.87 168.061 105.358C167.514 105.844 166.597 107.503 165.312 110.33L157.745 126.939C155.837 131.093 154.421 133.649 153.494 134.608C152.192 135.949 150.557 136.62 148.592 136.62C147.024 136.62 145.754 136.242 144.78 135.483C143.807 134.724 143.321 133.809 143.321 132.738C143.321 131.812 143.656 131.044 144.327 130.437C144.998 129.83 145.824 129.528 146.807 129.528C147.751 129.528 148.511 129.783 149.088 130.293C149.665 130.805 149.961 131.596 149.981 132.667C150 133.274 150.084 133.665 150.235 133.84C150.387 134.017 150.604 134.104 150.888 134.104C151.341 134.104 151.823 133.873 152.333 133.41C153.088 132.738 153.977 131.205 154.996 128.808L155.819 126.939Z" fill="#4D4D4D"/>
<path fill-rule="evenodd" clip-rule="evenodd" d="M187.796 94.5271V93.6201H208.187V94.5271H206.943C205.812 94.5271 204.907 94.6978 204.228 95.0409C203.756 95.2702 203.38 95.6618 203.097 96.2174C202.89 96.6106 202.786 97.6398 202.786 99.3066V115.584C202.786 118.771 202.418 121.087 201.683 122.533C200.948 123.98 199.641 125.189 197.766 126.161C195.889 127.133 193.631 127.62 190.991 127.62C187.768 127.62 185.16 126.885 183.171 125.414C181.181 123.943 180.187 122.317 180.187 120.536C180.187 119.392 180.594 118.465 181.403 117.753C182.214 117.042 183.204 116.687 184.373 116.687C185.523 116.687 186.49 117.005 187.272 117.643C188.055 118.28 188.446 119.065 188.446 119.996C188.446 120.454 188.381 120.854 188.248 121.197C188.172 121.361 187.875 121.773 187.356 122.436C186.839 123.097 186.579 123.567 186.579 123.845C186.579 124.27 186.824 124.638 187.314 124.948C188.031 125.406 188.965 125.634 190.115 125.634C190.926 125.634 191.594 125.455 192.123 125.095C192.65 124.735 193.023 124.176 193.239 123.416C193.456 122.657 193.565 120.543 193.565 117.079V99.3066C193.565 97.6063 193.456 96.5454 193.239 96.1203C193.023 95.6952 192.6 95.3237 191.967 95.0041C191.336 94.6861 190.483 94.5271 189.408 94.5271H187.796Z" fill="#4D4D4D"/>
<path fill-rule="evenodd" clip-rule="evenodd" d="M229.187 114.809H214.754C214.923 117.811 215.852 120.186 217.54 121.93C218.834 123.269 220.391 123.938 222.21 123.938C223.335 123.938 224.357 123.669 225.276 123.128C226.196 122.588 227.18 121.614 228.23 120.21L229.187 120.743C227.761 123.246 226.186 125.016 224.461 126.058C222.736 127.099 220.738 127.62 218.469 127.62C214.567 127.62 211.613 126.329 209.606 123.745C207.994 121.664 207.187 119.08 207.187 115.996C207.187 112.219 208.373 109.211 210.746 106.975C213.118 104.739 215.898 103.62 219.087 103.62C221.75 103.62 224.062 104.561 226.022 106.442C227.981 108.324 229.037 111.113 229.187 114.809ZM222.266 113.188C222.266 110.587 222.103 108.803 221.774 107.834C221.446 106.866 220.935 106.132 220.241 105.631C219.847 105.34 219.322 105.196 218.666 105.196C217.69 105.196 216.892 105.607 216.274 106.431C215.167 107.867 214.614 109.836 214.614 112.339V113.188H222.266Z" fill="#4D4D4D"/>
<path fill-rule="evenodd" clip-rule="evenodd" d="M243.913 122.907C240.738 125.383 237.889 126.62 235.365 126.62C233.881 126.62 232.646 126.19 231.663 125.329C230.678 124.47 230.187 123.39 230.187 122.096C230.187 120.342 231.04 118.764 232.749 117.362C234.456 115.961 238.176 114.096 243.913 111.769V109.457C243.913 107.72 243.805 106.625 243.592 106.174C243.379 105.724 242.976 105.329 242.381 104.994C241.787 104.658 241.118 104.49 240.376 104.49C239.17 104.49 238.176 104.727 237.398 105.204C236.915 105.497 236.674 105.841 236.674 106.236C236.674 106.58 236.933 107.006 237.452 107.513C238.158 108.218 238.512 108.9 238.512 109.555C238.512 110.359 238.173 111.044 237.495 111.608C236.818 112.173 235.932 112.457 234.836 112.457C233.666 112.457 232.688 112.145 231.899 111.522C231.109 110.899 230.716 110.171 230.716 109.333C230.716 108.153 231.245 107.027 232.303 105.952C233.36 104.88 234.836 104.055 236.729 103.481C238.623 102.907 240.589 102.62 242.632 102.62C245.099 102.62 247.053 103.083 248.492 104.01C249.93 104.937 250.862 105.941 251.29 107.023C251.55 107.712 251.68 109.293 251.68 111.769V120.694C251.68 121.744 251.727 122.403 251.819 122.674C251.912 122.944 252.05 123.145 252.237 123.276C252.422 123.407 252.636 123.473 252.877 123.473C253.359 123.473 253.852 123.17 254.353 122.563L255.187 123.154C254.26 124.367 253.298 125.247 252.307 125.798C251.313 126.346 250.186 126.62 248.924 126.62C247.438 126.62 246.279 126.313 245.443 125.699C244.608 125.084 244.098 124.154 243.913 122.907ZM243.913 121.112V113.416C241.667 114.579 239.996 115.826 238.9 117.154C238.176 118.039 237.814 118.932 237.814 119.833C237.814 120.589 238.122 121.252 238.733 121.826C239.198 122.269 239.847 122.489 240.683 122.489C241.611 122.489 242.687 122.03 243.913 121.112Z" fill="#4D4D4D"/>
<path fill-rule="evenodd" clip-rule="evenodd" d="M265.76 104.29V107.179C267.091 105.937 268.368 105.034 269.588 104.468C270.811 103.904 272.124 103.62 273.53 103.62C275.214 103.62 276.609 104.023 277.72 104.827C278.83 105.63 279.57 106.63 279.94 107.825C280.237 108.731 280.383 110.476 280.383 113.055V121.748C280.383 123.467 280.565 124.538 280.925 124.96C281.286 125.383 282.041 125.648 283.187 125.761V126.62H270.061V125.761C271.041 125.648 271.745 125.298 272.17 124.709C272.466 124.311 272.615 123.323 272.615 121.748V111.813C272.615 109.982 272.531 108.828 272.364 108.35C272.198 107.872 271.916 107.502 271.517 107.24C271.12 106.977 270.681 106.845 270.2 106.845C268.608 106.845 267.129 107.825 265.76 109.783V121.748C265.76 123.42 265.94 124.478 266.3 124.925C266.661 125.37 267.332 125.648 268.313 125.761V126.62H255.187V125.761C256.278 125.665 257.055 125.361 257.518 124.853C257.831 124.502 257.989 123.467 257.989 121.748V109.137C257.989 107.45 257.808 106.4 257.447 105.986C257.087 105.572 256.334 105.301 255.187 105.174V104.29H265.76Z" fill="#4D4D4D"/>
<path fill-rule="evenodd" clip-rule="evenodd" d="M301.396 103.67L301.816 111.395H300.864C299.726 109.102 298.546 107.537 297.323 106.697C296.1 105.857 294.884 105.437 293.67 105.437C292.904 105.437 292.251 105.659 291.711 106.103C291.17 106.546 290.899 107.06 290.899 107.641C290.899 108.077 291.085 108.497 291.459 108.901C292.055 109.562 293.725 110.696 296.469 112.303C299.212 113.91 301.019 115.274 301.886 116.395C302.754 117.517 303.187 118.772 303.187 120.161C303.187 121.42 302.823 122.655 302.095 123.867C301.368 125.077 300.342 126.005 299.016 126.651C297.692 127.298 296.226 127.62 294.621 127.62C293.371 127.62 291.701 127.281 289.611 126.603C289.051 126.425 288.669 126.337 288.463 126.337C287.848 126.337 287.334 126.741 286.924 127.547H286L285.551 119.41H286.503C287.344 121.541 288.496 123.14 289.961 124.206C291.425 125.271 292.811 125.803 294.117 125.803C295.013 125.803 295.746 125.565 296.316 125.089C296.884 124.613 297.168 124.036 297.168 123.358C297.168 122.583 296.889 121.913 296.329 121.348C295.769 120.782 294.52 119.928 292.579 118.78C289.722 117.069 287.876 115.761 287.035 114.857C285.804 113.535 285.187 112.073 285.187 110.474C285.187 108.73 285.884 107.153 287.273 105.74C288.664 104.328 290.674 103.62 293.307 103.62C294.724 103.62 296.097 103.919 297.421 104.516C297.925 104.759 298.335 104.88 298.652 104.88C298.988 104.88 299.259 104.82 299.465 104.698C299.669 104.577 299.997 104.235 300.444 103.67H301.396Z" fill="#4D4D4D"/>
<path fill-rule="evenodd" clip-rule="evenodd" d="M67.1791 150.345C67.1697 150.682 67.1303 150.898 67.0625 150.99C66.9931 151.082 66.8575 151.128 66.6572 151.128C66.4995 151.128 66.3828 151.085 66.3055 151.002C66.2267 150.92 66.1873 150.798 66.1873 150.636C66.1873 150.636 66.1904 150.601 66.1936 150.531C66.1983 150.461 66.2014 150.389 66.2014 150.318L66.2677 148.092C66.2771 147.925 66.3213 147.806 66.4017 147.731C66.4821 147.657 66.6067 147.62 66.777 147.62H72.5991C72.7678 147.62 72.8939 147.657 72.9728 147.731C73.0532 147.806 73.0958 147.925 73.1005 148.092L73.1746 150.318C73.1746 150.399 73.1762 150.475 73.1809 150.547C73.1857 150.62 73.1873 150.653 73.1873 150.648C73.1873 150.81 73.1463 150.931 73.0611 151.009C72.9759 151.088 72.8482 151.128 72.6795 151.128C72.4997 151.128 72.3767 151.082 72.3105 150.99C72.2427 150.898 72.2048 150.682 72.1969 150.345L72.1291 148.59H70.2069V154.669H71.4999C71.6876 154.669 71.8232 154.705 71.9084 154.78C71.9935 154.855 72.0361 154.972 72.0361 155.134C72.0361 155.291 71.9951 155.412 71.9147 155.495C71.8342 155.579 71.7191 155.62 71.5662 155.62H67.8083C67.657 155.62 67.5403 155.579 67.4598 155.495C67.3794 155.412 67.34 155.291 67.34 155.134C67.34 154.967 67.3826 154.848 67.4709 154.777C67.5576 154.705 67.7058 154.669 67.9156 154.669H69.1692V148.59H67.2454L67.1791 150.345Z" fill="#4D4D4D"/>
<path fill-rule="evenodd" clip-rule="evenodd" d="M80.9638 154.579H83.2297C83.4063 154.579 83.538 154.619 83.6215 154.701C83.705 154.782 83.7484 154.911 83.7484 155.088C83.7484 155.29 83.7082 155.429 83.628 155.505C83.5493 155.582 83.4015 155.62 83.1879 155.62H78.7268C78.5502 155.62 78.4153 155.575 78.3238 155.486C78.2338 155.398 78.1873 155.266 78.1873 155.088C78.1873 154.916 78.2338 154.787 78.3286 154.704C78.4217 154.621 78.5646 154.579 78.7606 154.579H79.9473V149.846H79.4848C79.0432 149.846 78.7686 149.807 78.6594 149.731C78.5502 149.654 78.4956 149.515 78.4956 149.314C78.4956 149.142 78.5389 149.013 78.6273 148.926C78.7172 148.839 78.8521 148.797 79.0336 148.797H80.5896C80.7117 148.797 80.8048 148.823 80.8691 148.874C80.9333 148.926 80.9638 149.001 80.9638 149.1V150.355C81.3958 149.769 81.847 149.333 82.3143 149.048C82.7833 148.763 83.2891 148.62 83.8303 148.62C84.235 148.62 84.5626 148.709 84.8115 148.886C85.062 149.063 85.1873 149.291 85.1873 149.573C85.1873 149.755 85.1246 149.915 84.9994 150.056C84.8741 150.197 84.7376 150.266 84.5867 150.266C84.4823 150.266 84.3056 150.192 84.0583 150.04C83.811 149.891 83.5878 149.816 83.3935 149.816C83.0386 149.816 82.6644 149.953 82.271 150.226C81.8776 150.499 81.4424 150.93 80.9638 151.521V154.579Z" fill="#4D4D4D"/>
<path fill-rule="evenodd" clip-rule="evenodd" d="M91.3845 153.735C91.3845 154.358 91.5168 154.813 91.7816 155.1C92.0463 155.386 92.4663 155.529 93.0417 155.529C93.5852 155.529 94.0529 155.36 94.4394 155.018C94.8259 154.677 95.02 154.25 95.02 153.735V150.673H93.9929C93.7988 150.673 93.6576 150.633 93.5693 150.551C93.4829 150.468 93.4387 150.341 93.4387 150.168C93.4387 149.98 93.4864 149.842 93.5817 149.753C93.6752 149.664 93.8288 149.62 94.0388 149.62H95.636C95.8248 149.62 95.9589 149.66 96.0366 149.742C96.1142 149.824 96.1531 150.023 96.1531 150.339V155.426H96.4972C96.7425 155.426 96.919 155.466 97.0267 155.545C97.1325 155.623 97.1873 155.754 97.1873 155.938C97.1873 156.116 97.1361 156.248 97.0337 156.337C96.9314 156.426 96.7831 156.472 96.5872 156.472H95.4471C95.313 156.472 95.2071 156.444 95.133 156.39C95.0571 156.336 95.02 156.262 95.02 156.168V155.664C94.54 156.028 94.1288 156.28 93.7864 156.416C93.444 156.552 93.084 156.62 92.7046 156.62C91.8786 156.62 91.2609 156.404 90.848 155.971C90.4368 155.538 90.2303 154.885 90.2303 154.01V150.673H90.0732C89.7326 150.673 89.4996 150.633 89.3743 150.554C89.2508 150.475 89.1873 150.336 89.1873 150.139C89.1873 149.966 89.2367 149.837 89.3337 149.749C89.4308 149.662 89.5826 149.62 89.7873 149.62H90.9203C91.095 149.62 91.2151 149.655 91.2839 149.723C91.3509 149.793 91.3845 149.947 91.3845 150.184V153.735Z" fill="#4D4D4D"/>
<path fill-rule="evenodd" clip-rule="evenodd" d="M102.391 152.44C102.428 153.129 102.653 153.661 103.065 154.037C103.477 154.413 104.042 154.601 104.756 154.601C105.295 154.601 105.883 154.451 106.52 154.152C107.157 153.852 107.541 153.704 107.674 153.704C107.813 153.704 107.928 153.749 108.021 153.841C108.112 153.93 108.16 154.043 108.16 154.177C108.16 154.315 108.111 154.442 108.015 154.557C107.917 154.672 107.762 154.785 107.551 154.895C107.09 155.13 106.613 155.309 106.123 155.434C105.631 155.558 105.144 155.62 104.659 155.62C103.609 155.62 102.767 155.306 102.135 154.675C101.503 154.047 101.187 153.214 101.187 152.174C101.187 151.116 101.521 150.259 102.19 149.604C102.858 148.948 103.731 148.62 104.804 148.62C105.777 148.62 106.585 148.926 107.225 149.539C107.866 150.151 108.187 150.893 108.187 151.765C108.187 152.032 108.132 152.213 108.024 152.303C107.915 152.394 107.622 152.44 107.142 152.44H102.391ZM102.425 151.5H106.929C106.859 150.93 106.629 150.472 106.24 150.124C105.851 149.778 105.372 149.604 104.804 149.604C104.191 149.604 103.675 149.771 103.255 150.107C102.835 150.442 102.558 150.907 102.425 151.5Z" fill="#4D4D4D"/>
<path fill-rule="evenodd" clip-rule="evenodd" d="M125.531 156.051C125.506 156.265 125.45 156.413 125.36 156.496C125.269 156.578 125.126 156.62 124.93 156.62C124.719 156.62 124.564 156.562 124.461 156.446C124.359 156.331 124.3 156.142 124.285 155.88L124.187 154.232V154.103C124.187 153.876 124.233 153.715 124.325 153.62C124.419 153.526 124.573 153.477 124.788 153.477C125.089 153.477 125.303 153.681 125.434 154.09C125.494 154.294 125.552 154.448 125.607 154.552C125.782 154.883 126.058 155.139 126.436 155.32C126.815 155.499 127.267 155.589 127.792 155.589C128.438 155.589 128.963 155.445 129.366 155.156C129.769 154.866 129.971 154.496 129.971 154.046C129.971 153.673 129.847 153.372 129.599 153.144C129.35 152.917 128.989 152.769 128.514 152.702L127.402 152.56C126.366 152.423 125.609 152.165 125.133 151.785C124.658 151.407 124.421 150.873 124.421 150.187C124.421 149.461 124.737 148.852 125.37 148.36C126.003 147.866 126.793 147.62 127.739 147.62C128.015 147.62 128.305 147.655 128.611 147.724C128.917 147.792 129.262 147.9 129.647 148.047C129.658 147.91 129.698 147.814 129.767 147.762C129.838 147.71 129.958 147.684 130.128 147.684C130.349 147.684 130.501 147.716 130.586 147.776C130.671 147.838 130.724 147.985 130.743 148.218L130.85 149.704V149.774C130.85 149.94 130.8 150.068 130.699 150.162C130.598 150.254 130.459 150.301 130.278 150.301C130.013 150.301 129.808 150.125 129.663 149.774C129.592 149.575 129.522 149.426 129.453 149.327C129.287 149.089 129.05 148.907 128.738 148.778C128.429 148.651 128.075 148.587 127.679 148.587C127.075 148.587 126.581 148.73 126.203 149.014C125.826 149.299 125.637 149.67 125.637 150.13C125.637 150.49 125.779 150.775 126.061 150.982C126.344 151.191 126.776 151.334 127.358 151.409L128.558 151.551C129.43 151.66 130.086 151.913 130.526 152.309C130.966 152.704 131.187 153.238 131.187 153.912C131.187 154.707 130.874 155.347 130.248 155.827C129.622 156.309 128.786 156.55 127.739 156.55C127.379 156.55 127.022 156.508 126.666 156.428C126.311 156.347 125.932 156.222 125.531 156.051Z" fill="#4D4D4D"/>
<path fill-rule="evenodd" clip-rule="evenodd" d="M138.596 147.611H137.461C137.029 147.611 136.759 147.575 136.651 147.504C136.541 147.433 136.487 147.303 136.487 147.115C136.487 146.95 136.533 146.827 136.624 146.745C136.715 146.662 136.847 146.62 137.022 146.62H139.223C139.344 146.62 139.436 146.646 139.504 146.696C139.57 146.746 139.604 146.816 139.604 146.902V154.651H141.699C141.868 154.651 141.992 154.688 142.069 154.764C142.148 154.84 142.187 154.96 142.187 155.125C142.187 155.313 142.148 155.442 142.073 155.513C141.997 155.585 141.856 155.62 141.645 155.62H136.72C136.547 155.62 136.415 155.578 136.324 155.495C136.233 155.413 136.187 155.29 136.187 155.125C136.187 154.965 136.233 154.845 136.327 154.767C136.42 154.69 136.56 154.651 136.747 154.651H138.596V147.611Z" fill="#4D4D4D"/>
<path fill-rule="evenodd" clip-rule="evenodd" d="M149.844 146.811C149.844 146.287 149.891 145.959 149.99 145.824C150.086 145.687 150.294 145.62 150.612 145.62C150.921 145.62 151.125 145.677 151.225 145.789C151.323 145.904 151.374 146.174 151.374 146.6C151.374 147.018 151.329 147.275 151.235 147.374C151.144 147.475 150.935 147.524 150.612 147.524C150.294 147.524 150.086 147.478 149.99 147.386C149.891 147.293 149.844 147.102 149.844 146.811ZM151.225 154.595H153.62C153.815 154.595 153.957 154.634 154.05 154.715C154.142 154.795 154.187 154.922 154.187 155.096C154.187 155.295 154.143 155.432 154.057 155.507C153.969 155.582 153.809 155.62 153.576 155.62H147.783C147.584 155.62 147.435 155.575 147.337 155.488C147.236 155.401 147.187 155.271 147.187 155.096C147.187 154.927 147.238 154.8 147.344 154.718C147.447 154.636 147.604 154.595 147.813 154.595H150.09V149.936H148.635C148.431 149.936 148.275 149.892 148.168 149.801C148.06 149.712 148.008 149.582 148.008 149.413C148.008 149.244 148.057 149.117 148.157 149.031C148.256 148.946 148.405 148.905 148.605 148.905H150.791C150.926 148.905 151.032 148.93 151.109 148.983C151.186 149.038 151.225 149.11 151.225 149.202V154.595Z" fill="#4D4D4D"/>
<path fill-rule="evenodd" clip-rule="evenodd" d="M165.254 151.517C165.254 150.823 165.193 150.356 165.07 150.112C164.949 149.869 164.74 149.747 164.445 149.747C164.091 149.747 163.811 149.905 163.604 150.219C163.395 150.533 163.292 150.967 163.292 151.517V154.581H163.42C163.712 154.581 163.906 154.616 164.004 154.689C164.101 154.76 164.152 154.893 164.152 155.089C164.152 155.266 164.11 155.398 164.029 155.487C163.948 155.575 163.825 155.62 163.656 155.62H162.748C162.542 155.62 162.402 155.572 162.328 155.473C162.254 155.374 162.219 155.164 162.219 154.84V150.941C162.219 150.573 162.136 150.282 161.974 150.068C161.813 149.855 161.59 149.747 161.309 149.747C161.095 149.747 160.897 149.813 160.719 149.943C160.538 150.074 160.385 150.266 160.257 150.521V154.581H160.522C160.808 154.581 161 154.618 161.101 154.692C161.201 154.765 161.251 154.899 161.251 155.089C161.251 155.291 161.211 155.429 161.13 155.506C161.049 155.582 160.894 155.62 160.665 155.62H158.76C158.573 155.62 158.437 155.577 158.347 155.492C158.26 155.405 158.216 155.272 158.216 155.089C158.216 154.893 158.272 154.76 158.384 154.689C158.496 154.616 158.715 154.581 159.038 154.581H159.182V149.858H159.054C158.72 149.858 158.491 149.819 158.369 149.741C158.248 149.662 158.187 149.524 158.187 149.328C158.187 149.156 158.234 149.028 158.331 148.941C158.425 148.854 158.568 148.813 158.76 148.813H159.856C160.013 148.813 160.117 148.84 160.166 148.898C160.216 148.953 160.247 149.073 160.257 149.255C160.452 149.038 160.661 148.879 160.886 148.774C161.111 148.672 161.364 148.62 161.646 148.62C161.979 148.62 162.254 148.695 162.472 148.846C162.689 148.995 162.851 149.222 162.955 149.527C163.156 149.217 163.387 148.99 163.65 148.842C163.913 148.695 164.213 148.62 164.551 148.62C165.168 148.62 165.618 148.827 165.901 149.239C166.186 149.652 166.328 150.32 166.328 151.244V154.581H166.442C166.737 154.581 166.936 154.618 167.036 154.692C167.137 154.765 167.187 154.899 167.187 155.089C167.187 155.266 167.143 155.398 167.057 155.487C166.972 155.575 166.845 155.62 166.678 155.62H165.812C165.622 155.62 165.48 155.561 165.389 155.443C165.3 155.325 165.254 155.138 165.254 154.883V151.517Z" fill="#4D4D4D"/>
<path fill-rule="evenodd" clip-rule="evenodd" d="M184.702 154.669H184.967C185.159 154.669 185.299 154.705 185.386 154.78C185.471 154.855 185.514 154.972 185.514 155.134C185.514 155.291 185.474 155.412 185.392 155.495C185.31 155.579 185.191 155.62 185.036 155.62H181.667C181.511 155.62 181.393 155.579 181.311 155.495C181.229 155.412 181.187 155.291 181.187 155.134C181.187 154.967 181.232 154.848 181.321 154.777C181.409 154.705 181.561 154.669 181.776 154.669H182.431V148.59H182.002C181.654 148.59 181.432 148.555 181.335 148.487C181.237 148.417 181.187 148.29 181.187 148.106C181.187 147.947 181.229 147.828 181.311 147.744C181.393 147.661 181.511 147.62 181.667 147.62H187.716C187.87 147.62 187.988 147.666 188.068 147.758C188.147 147.85 188.187 147.984 188.187 148.16V149.9C188.187 150.058 188.147 150.175 188.068 150.254C187.988 150.332 187.87 150.372 187.716 150.372C187.524 150.372 187.394 150.323 187.326 150.223C187.257 150.124 187.223 149.902 187.223 149.556V148.59H183.513V150.864H185.316V150.69C185.316 150.361 185.349 150.14 185.411 150.027C185.476 149.915 185.59 149.859 185.754 149.859C185.901 149.859 186.005 149.902 186.071 149.988C186.139 150.073 186.171 150.21 186.171 150.399V152.112C186.171 152.338 186.14 152.492 186.079 152.578C186.016 152.663 185.909 152.706 185.754 152.706C185.59 152.706 185.476 152.649 185.411 152.538C185.349 152.425 185.316 152.204 185.316 151.876V151.68H183.513V154.669H184.702Z" fill="#4D4D4D"/>
<path fill-rule="evenodd" clip-rule="evenodd" d="M195.844 146.811C195.844 146.287 195.891 145.959 195.99 145.824C196.086 145.687 196.294 145.62 196.612 145.62C196.921 145.62 197.125 145.677 197.225 145.789C197.323 145.904 197.374 146.174 197.374 146.6C197.374 147.018 197.329 147.275 197.235 147.374C197.144 147.475 196.935 147.524 196.612 147.524C196.294 147.524 196.086 147.478 195.99 147.386C195.891 147.293 195.844 147.102 195.844 146.811ZM197.225 154.595H199.62C199.815 154.595 199.957 154.634 200.05 154.715C200.142 154.795 200.187 154.922 200.187 155.096C200.187 155.295 200.143 155.432 200.057 155.507C199.969 155.582 199.809 155.62 199.576 155.62H193.783C193.584 155.62 193.435 155.575 193.337 155.488C193.236 155.401 193.187 155.271 193.187 155.096C193.187 154.927 193.238 154.8 193.344 154.718C193.447 154.636 193.604 154.595 193.813 154.595H196.09V149.936H194.635C194.431 149.936 194.275 149.892 194.168 149.801C194.06 149.712 194.008 149.582 194.008 149.413C194.008 149.244 194.057 149.117 194.157 149.031C194.256 148.946 194.405 148.905 194.605 148.905H196.791C196.926 148.905 197.032 148.93 197.109 148.983C197.186 149.038 197.225 149.11 197.225 149.202V154.595Z" fill="#4D4D4D"/>
<path fill-rule="evenodd" clip-rule="evenodd" d="M210.595 150.127C210.817 150.127 210.978 150.169 211.08 150.251C211.182 150.334 211.233 150.465 211.233 150.647C211.233 150.817 211.185 150.947 211.091 151.031C210.995 151.118 210.854 151.161 210.664 151.161H207.922V153.607C207.922 154.41 208.019 154.938 208.21 155.191C208.401 155.445 208.729 155.573 209.195 155.573C209.606 155.573 210.097 155.443 210.67 155.185C211.244 154.926 211.598 154.796 211.733 154.796C211.859 154.796 211.967 154.845 212.055 154.943C212.143 155.04 212.187 155.16 212.187 155.302C212.187 155.462 212.131 155.604 212.022 155.723C211.91 155.842 211.722 155.959 211.456 156.071C211.013 156.261 210.615 156.401 210.261 156.489C209.907 156.577 209.574 156.62 209.263 156.62C208.734 156.62 208.291 156.529 207.933 156.346C207.574 156.163 207.307 155.89 207.13 155.528C207.04 155.357 206.975 155.155 206.937 154.921C206.899 154.686 206.879 154.324 206.879 153.835V151.161H205.729C205.539 151.161 205.402 151.119 205.316 151.038C205.23 150.959 205.187 150.828 205.187 150.647C205.187 150.446 205.246 150.31 205.364 150.236C205.48 150.163 205.731 150.127 206.115 150.127H206.879V148.236C206.879 148.026 206.921 147.87 207.005 147.77C207.088 147.67 207.219 147.62 207.394 147.62C207.593 147.62 207.73 147.681 207.807 147.803C207.883 147.926 207.922 148.203 207.922 148.638V150.127H210.595Z" fill="#4D4D4D"/>
<path fill-rule="evenodd" clip-rule="evenodd" d="M217.187 154.935V153.652C217.187 153.44 217.225 153.288 217.301 153.197C217.376 153.105 217.499 153.061 217.67 153.061C217.859 153.061 218.008 153.195 218.119 153.463C218.192 153.628 218.259 153.75 218.319 153.832C218.512 154.091 218.798 154.298 219.175 154.456C219.552 154.612 219.97 154.69 220.425 154.69C220.913 154.69 221.305 154.587 221.599 154.38C221.893 154.173 222.041 153.901 222.041 153.565C222.041 153.224 221.923 152.981 221.685 152.837C221.448 152.693 221.041 152.62 220.466 152.62H220.087C219.148 152.62 218.432 152.45 217.94 152.109C217.447 151.768 217.2 151.272 217.2 150.624C217.2 149.99 217.441 149.497 217.922 149.146C218.403 148.795 219.079 148.62 219.949 148.62C220.303 148.62 220.664 148.671 221.033 148.775C221.401 148.878 221.594 148.929 221.614 148.929C221.664 148.929 221.76 148.883 221.903 148.79C222.046 148.695 222.186 148.649 222.324 148.649C222.48 148.649 222.597 148.708 222.674 148.829C222.748 148.949 222.787 149.129 222.787 149.37V150.214C222.787 150.468 222.75 150.651 222.677 150.765C222.602 150.877 222.485 150.933 222.324 150.933C222.186 150.933 222.015 150.811 221.814 150.567C221.671 150.399 221.554 150.271 221.461 150.185C221.217 149.949 220.957 149.779 220.681 149.676C220.404 149.572 220.079 149.521 219.707 149.521C219.274 149.521 218.925 149.621 218.66 149.82C218.397 150.02 218.263 150.273 218.263 150.58C218.263 150.884 218.4 151.099 218.671 151.23C218.943 151.359 219.528 151.434 220.425 151.452C221.383 151.476 222.082 151.651 222.524 151.975C222.966 152.299 223.187 152.801 223.187 153.479C223.187 154.127 222.943 154.646 222.456 155.036C221.968 155.425 221.31 155.62 220.481 155.62C220.217 155.62 219.926 155.595 219.603 155.544C219.281 155.493 218.876 155.408 218.389 155.288C218.228 155.398 218.089 155.481 217.974 155.537C217.859 155.591 217.763 155.62 217.683 155.62C217.522 155.62 217.4 155.561 217.314 155.444C217.23 155.325 217.187 155.155 217.187 154.935Z" fill="#4D4D4D"/>
</svg>
