<svg width="96" height="103" viewBox="0 0 96 103" fill="none" xmlns="http://www.w3.org/2000/svg">
<path fill-rule="evenodd" clip-rule="evenodd" d="M4.37586 96.8962L3.81656 96.9837L4.52427 100.019L4.62616 100.708L4.64831 100.713L4.79672 100.019L5.81121 96.4155H6.47019L7.48801 100.019L7.63974 100.727H7.66189L7.77154 100.019L8.46485 96.9837L7.90112 96.8962V96.4155H9.65323V96.8962L9.21022 96.9538L8.01076 101.928H7.34403L6.25423 98.1045L6.15566 97.6083H6.1324L6.03826 98.1045L4.93295 101.928H4.27065L3.07009 96.9538L2.62708 96.8962V96.4155H4.37586V96.8962Z" fill="#4D4D4D"/>
<path fill-rule="evenodd" clip-rule="evenodd" d="M10.0242 101.928V101.45L10.6411 101.344V97.0025L10.0242 96.8962V96.4155H14.2561V97.7412H13.617L13.5561 97.0025H11.3865V98.7856H13.4952V99.3726H11.3865V101.344H13.6015L13.6625 100.606H14.2982V101.928H10.0242Z" fill="#4D4D4D"/>
<path fill-rule="evenodd" clip-rule="evenodd" d="M18.9575 98.0437H18.3938L18.2542 97.2563C18.1402 97.1599 17.9884 97.0813 17.799 97.0182C17.6108 96.955 17.3904 96.9229 17.1412 96.9229C16.7447 96.9229 16.4401 97.0071 16.2286 97.1754C16.017 97.3427 15.9107 97.562 15.9107 97.8322C15.9107 98.0714 16.0181 98.2719 16.2341 98.4314C16.4501 98.592 16.7989 98.7326 17.2807 98.8533C17.8611 98.9973 18.3019 99.21 18.6042 99.4902C18.9055 99.7704 19.0561 100.117 19.0561 100.531C19.0561 100.975 18.8756 101.332 18.5134 101.602C18.1512 101.872 17.6772 102.008 17.0913 102.008C16.6683 102.008 16.2906 101.938 15.9617 101.799C15.6327 101.66 15.3647 101.478 15.1576 101.253V100.228H15.718L15.8609 101.019C16.0049 101.138 16.1765 101.235 16.3759 101.311C16.5752 101.386 16.8145 101.424 17.0913 101.424C17.4679 101.424 17.7647 101.344 17.9829 101.186C18.2011 101.026 18.3107 100.81 18.3107 100.538C18.3107 100.286 18.2155 100.075 18.0272 99.9044C17.8378 99.7338 17.5033 99.591 17.0238 99.4747C16.4401 99.3362 15.9849 99.1313 15.6571 98.8611C15.3293 98.5909 15.1653 98.252 15.1653 97.8433C15.1653 97.4113 15.3481 97.0525 15.7136 96.7657C16.0802 96.4799 16.5553 96.3359 17.1412 96.3359C17.5266 96.3359 17.8788 96.4024 18.1955 96.5353C18.5123 96.6682 18.7659 96.8288 18.9575 97.0182V98.0437Z" fill="#4D4D4D"/>
<path fill-rule="evenodd" clip-rule="evenodd" d="M24.1408 96.4155V97.6349H23.504L23.4475 97.0025H22.2248V101.344L22.8417 101.45V101.928H20.8625V101.45L21.4794 101.344V97.0025H20.2523L20.1991 97.6349H19.5601V96.4155H24.1408Z" fill="#4D4D4D"/>
<path fill-rule="evenodd" clip-rule="evenodd" d="M30.7516 98.108H30.2255L30.086 97.3283C29.9642 97.2098 29.8157 97.1123 29.6385 97.037C29.4624 96.9606 29.2509 96.9229 29.0061 96.9229C28.4336 96.9229 27.9939 97.1311 27.686 97.5465C27.3781 97.9607 27.2241 98.4879 27.2241 99.1269V99.2133C27.2241 99.8523 27.3748 100.38 27.676 100.798C27.9773 101.216 28.3959 101.424 28.9308 101.424C29.1811 101.424 29.4082 101.385 29.612 101.307C29.8169 101.229 29.9741 101.133 30.086 101.019L30.2255 100.239H30.7516V101.22C30.5932 101.424 30.354 101.607 30.0361 101.767C29.7183 101.927 29.3495 102.008 28.9308 102.008C28.2143 102.008 27.6262 101.742 27.1665 101.212C26.708 100.682 26.4777 100.016 26.4777 99.2133V99.1336C26.4777 98.3262 26.7036 97.6583 27.1555 97.13C27.6073 96.6006 28.1988 96.3359 28.9308 96.3359C29.3495 96.3359 29.7183 96.4179 30.0361 96.5807C30.354 96.7435 30.5932 96.9262 30.7516 97.1278V98.108Z" fill="#4D4D4D"/>
<path fill-rule="evenodd" clip-rule="evenodd" d="M36.3878 99.2133C36.3878 100.016 36.1586 100.682 35.6978 101.212C35.2371 101.742 34.6412 102.008 33.9092 102.008C33.197 102.008 32.6189 101.742 32.1748 101.212C31.7307 100.682 31.5092 100.016 31.5092 99.2133V99.1336C31.5092 98.3339 31.7307 97.6672 32.1748 97.1356C32.6189 96.6029 33.197 96.3359 33.9092 96.3359C34.6412 96.3359 35.2371 96.6029 35.6978 97.1356C36.1586 97.6672 36.3878 98.3339 36.3878 99.1336V99.2133ZM35.6424 99.1271C35.6424 98.4858 35.4896 97.962 35.1828 97.5577C34.876 97.1524 34.4518 96.9497 33.9092 96.9497C33.3886 96.9497 32.9833 97.1535 32.692 97.5588C32.4007 97.9653 32.2545 98.4881 32.2545 99.1271V99.2135C32.2545 99.8592 32.4007 100.385 32.692 100.791C32.9833 101.195 33.3886 101.398 33.9092 101.398C34.4585 101.398 34.886 101.196 35.1884 100.792C35.4907 100.389 35.6424 99.8625 35.6424 99.2135V99.1271Z" fill="#4D4D4D"/>
<path fill-rule="evenodd" clip-rule="evenodd" d="M36.585 101.45L36.9936 101.394L38.9207 96.4155H39.5609L41.4536 101.394L41.8579 101.45V101.928H40.2763V101.45L40.6928 101.378L40.3295 100.364H38.1222L37.7479 101.378L38.1643 101.45V101.928H36.585V101.45ZM38.3525 99.7392H40.1024L39.2463 97.3735H39.2242L38.3525 99.7392Z" fill="#4D4D4D"/>
<path fill-rule="evenodd" clip-rule="evenodd" d="M46.3135 98.0437H45.7497L45.6102 97.2563C45.4961 97.1599 45.3444 97.0813 45.155 97.0182C44.9667 96.955 44.7463 96.9229 44.4971 96.9229C44.1006 96.9229 43.7961 97.0071 43.5845 97.1754C43.373 97.3427 43.2667 97.562 43.2667 97.8322C43.2667 98.0714 43.3741 98.2719 43.5901 98.4314C43.806 98.592 44.1549 98.7326 44.6367 98.8533C45.217 98.9973 45.6589 99.21 45.9602 99.4902C46.2614 99.7704 46.412 100.117 46.412 100.531C46.412 100.975 46.2315 101.332 45.8694 101.602C45.5072 101.872 45.0332 102.008 44.4473 102.008C44.0242 102.008 43.6465 101.938 43.3176 101.799C42.9887 101.66 42.7207 101.478 42.5135 101.253V100.228H43.074L43.2168 101.019C43.3608 101.138 43.5325 101.235 43.7318 101.311C43.9312 101.386 44.1704 101.424 44.4473 101.424C44.8239 101.424 45.1207 101.344 45.3389 101.186C45.557 101.026 45.6667 100.81 45.6667 100.538C45.6667 100.286 45.5714 100.075 45.3832 99.9044C45.1938 99.7338 44.8593 99.591 44.3797 99.4747C43.7961 99.3362 43.3409 99.1313 43.013 98.8611C42.6852 98.5909 42.5213 98.252 42.5213 97.8433C42.5213 97.4113 42.704 97.0525 43.0695 96.7657C43.4361 96.4799 43.9112 96.3359 44.4971 96.3359C44.8825 96.3359 45.2347 96.4024 45.5515 96.5353C45.8682 96.6682 46.1219 96.8288 46.3135 97.0182V98.0437Z" fill="#4D4D4D"/>
<path fill-rule="evenodd" clip-rule="evenodd" d="M51.4967 96.4155V97.6349H50.8599L50.8034 97.0025H49.5807V101.344L50.1976 101.45V101.928H48.2184V101.45L48.8353 101.344V97.0025H47.6082L47.555 97.6349H46.916V96.4155H51.4967Z" fill="#4D4D4D"/>
<path fill-rule="evenodd" clip-rule="evenodd" d="M58.1075 98.108H57.5814L57.4419 97.3283C57.3201 97.2098 57.1716 97.1123 56.9944 97.037C56.8183 96.9606 56.6079 96.9229 56.362 96.9229C55.7894 96.9229 55.3498 97.1311 55.0419 97.5465C54.734 97.9607 54.58 98.4879 54.58 99.1269V99.2133C54.58 99.8523 54.7307 100.38 55.0319 100.798C55.3331 101.216 55.7518 101.424 56.2867 101.424C56.537 101.424 56.7641 101.385 56.9679 101.307C57.1728 101.229 57.33 101.133 57.4419 101.019L57.5814 100.239H58.1075V101.22C57.9491 101.424 57.7099 101.607 57.392 101.767C57.0742 101.927 56.7054 102.008 56.2867 102.008C55.5702 102.008 54.9821 101.742 54.5224 101.212C54.0639 100.682 53.8336 100.016 53.8336 99.2133V99.1336C53.8336 98.3262 54.0595 97.6583 54.5114 97.13C54.9632 96.6006 55.5547 96.3359 56.2867 96.3359C56.7054 96.3359 57.0742 96.4179 57.392 96.5807C57.7099 96.7435 57.9491 96.9262 58.1075 97.1278V98.108Z" fill="#4D4D4D"/>
<path fill-rule="evenodd" clip-rule="evenodd" d="M58.834 101.928V101.45L59.452 101.344V97.0025L58.834 96.8962V96.4155H60.8143V96.8962L60.1974 97.0025V101.344H62.1123L62.1699 100.713H62.8056V101.928H58.834Z" fill="#4D4D4D"/>
<path fill-rule="evenodd" clip-rule="evenodd" d="M68.0365 99.2133C68.0365 100.016 67.8072 100.682 67.3465 101.212C66.8858 101.742 66.2899 102.008 65.5578 102.008C64.8457 102.008 64.2676 101.742 63.8235 101.212C63.3793 100.682 63.1578 100.016 63.1578 99.2133V99.1336C63.1578 98.3339 63.3793 97.6672 63.8235 97.1356C64.2676 96.6029 64.8457 96.3359 65.5578 96.3359C66.2899 96.3359 66.8858 96.6029 67.3465 97.1356C67.8072 97.6672 68.0365 98.3339 68.0365 99.1336V99.2133ZM67.2911 99.1271C67.2911 98.4858 67.1383 97.962 66.8315 97.5577C66.5247 97.1524 66.1005 96.9497 65.5578 96.9497C65.0373 96.9497 64.632 97.1535 64.3407 97.5588C64.0494 97.9653 63.9032 98.4881 63.9032 99.1271V99.2135C63.9032 99.8592 64.0494 100.385 64.3407 100.791C64.632 101.195 65.0373 101.398 65.5578 101.398C66.1072 101.398 66.5347 101.196 66.837 100.792C67.1394 100.389 67.2911 99.8625 67.2911 99.2135V99.1271Z" fill="#4D4D4D"/>
<path fill-rule="evenodd" clip-rule="evenodd" d="M72.9472 96.4155V97.6349H72.3104L72.2539 97.0025H71.0312V101.344L71.6481 101.45V101.928H69.669V101.45L70.2859 101.344V97.0025H69.0587L69.0056 97.6349H68.3665V96.4155H72.9472Z" fill="#4D4D4D"/>
<path fill-rule="evenodd" clip-rule="evenodd" d="M73.356 96.8962V96.4155H75.3351V96.8962L74.7182 97.0025V98.9064H77.3907V97.0025L76.7738 96.8962V96.4155H78.754V96.8962L78.1372 97.0025V101.344L78.754 101.45V101.928H76.7738V101.45L77.3907 101.344V99.4933H74.7182V101.344L75.3351 101.45V101.928H73.356V101.45L73.9728 101.344V97.0025L73.356 96.8962Z" fill="#4D4D4D"/>
<path fill-rule="evenodd" clip-rule="evenodd" d="M79.3067 96.8962V96.4155H81.2859V96.8962L80.669 97.0025V101.344L81.2859 101.45V101.928H79.3067V101.45L79.9236 101.344V97.0025L79.3067 96.8962Z" fill="#4D4D4D"/>
<path fill-rule="evenodd" clip-rule="evenodd" d="M87.2144 96.4155V96.8962L86.5975 97.0025V101.928H85.8511L83.2019 97.6726L83.1786 97.6803V101.344L83.7955 101.45V101.928H81.8163V101.45L82.4332 101.344V97.0025L81.8163 96.8962V96.4155H83.1786L85.8289 100.667L85.8511 100.66V97.0025L85.2342 96.8962V96.4155H87.2144Z" fill="#4D4D4D"/>
<path fill-rule="evenodd" clip-rule="evenodd" d="M92.1086 101.303C91.9469 101.473 91.7088 101.632 91.3931 101.782C91.0775 101.932 90.6677 102.008 90.1627 102.008C89.4262 102.008 88.8248 101.748 88.3596 101.231C87.8933 100.714 87.6608 100.043 87.6608 99.2177V99.1269C87.6608 98.2963 87.8911 97.624 88.3519 97.109C88.8126 96.594 89.4251 96.3359 90.1893 96.3359C90.5979 96.3359 90.9579 96.4002 91.2669 96.5275C91.5759 96.6549 91.8361 96.8232 92.0488 97.0326V98.0327H91.526L91.3444 97.2718C91.2204 97.171 91.0708 97.0868 90.8959 97.0215C90.7198 96.9562 90.5104 96.9229 90.2657 96.9229C89.6698 96.9229 89.2113 97.1267 88.889 97.5343C88.5678 97.9419 88.4061 98.4701 88.4061 99.1192V99.2177C88.4061 99.8756 88.5623 100.408 88.8746 100.815C89.1858 101.221 89.6156 101.424 90.1627 101.424C90.4639 101.424 90.7098 101.393 90.9014 101.33C91.093 101.267 91.2469 101.197 91.3632 101.122V99.9132L90.4584 99.8756V99.3274H92.1086V101.303Z" fill="#4D4D4D"/>
<path fill-rule="evenodd" clip-rule="evenodd" d="M95.1753 24.3411L89.2057 25.0875L74.5288 88.0239H61.0458L47.7621 40.2119H47.4631L34.1794 88.0239H20.6964L5.91973 25.0875L0 24.3411V15.585H26.667V24.3411L20.0496 25.4851L28.3582 65.1878L28.6573 65.2376L42.2389 15.585H52.9365L66.6177 65.2376L66.9168 65.1878L75.1756 25.4851L68.5581 24.3411V15.585H95.1753V24.3411Z" fill="#4D4D4D"/>
<path fill-rule="evenodd" clip-rule="evenodd" d="M47.6126 0L49.3038 3.42669L53.086 3.97602L50.3493 6.64405L50.9949 10.4108L47.6126 8.63206L44.2302 10.4108L44.8759 6.64405L42.1392 3.97602L45.9214 3.42669L47.6126 0Z" fill="#4D4D4D"/>
<path fill-rule="evenodd" clip-rule="evenodd" d="M57.3035 4.87305H93.2981H57.3035ZM57.3035 7.64209H93.2981H57.3035ZM1.92712 4.87305H37.9217H1.92712ZM1.92712 7.64209H37.9217H1.92712Z" fill="#4D4D4D"/>
<path d="M57.3035 5.37305H93.2981V4.37305H57.3035V5.37305ZM57.3035 8.14209H93.2981V7.14209H57.3035V8.14209ZM1.92712 5.37305H37.9217V4.37305H1.92712V5.37305ZM1.92712 8.14209H37.9217V7.14209H1.92712V8.14209Z" fill="#4D4D4D"/>
</svg>
